<mxfile host="app.diagrams.net" modified="2024-01-19T09:01:23.200Z" agent="Mozilla/5.0 (Windows NT 10.0; Win64; x64) AppleWebKit/537.36 (KHTML, like Gecko) Chrome/120.0.0.0 Safari/537.36" etag="jFnNMp39pap_ftCBIpVl" version="22.1.21" type="device">
  <diagram name="Page-1" id="H3fU8LPsnGL2JLvQ2pLK">
    <mxGraphModel dx="657" dy="812" grid="1" gridSize="10" guides="1" tooltips="1" connect="1" arrows="1" fold="1" page="1" pageScale="1" pageWidth="850" pageHeight="1100" math="0" shadow="0">
      <root>
        <mxCell id="0" />
        <mxCell id="1" parent="0" />
        <mxCell id="Z8TzTKAZUmlHIoP4XjIV-23" value="" style="edgeStyle=none;rounded=0;orthogonalLoop=1;jettySize=auto;html=1;startArrow=classic;startFill=1;exitX=0;exitY=0.5;exitDx=0;exitDy=0;" edge="1" parent="1" source="Z8TzTKAZUmlHIoP4XjIV-1" target="Z8TzTKAZUmlHIoP4XjIV-3">
          <mxGeometry relative="1" as="geometry" />
        </mxCell>
        <mxCell id="Z8TzTKAZUmlHIoP4XjIV-1" value="&lt;font style=&quot;font-size: 16px;&quot;&gt;Posts&lt;/font&gt;" style="rounded=1;whiteSpace=wrap;html=1;fontColor=#FF33FF;labelBackgroundColor=none;" vertex="1" parent="1">
          <mxGeometry x="331" y="510" width="140" height="120" as="geometry" />
        </mxCell>
        <mxCell id="Z8TzTKAZUmlHIoP4XjIV-26" style="edgeStyle=orthogonalEdgeStyle;rounded=0;orthogonalLoop=1;jettySize=auto;html=1;entryX=1;entryY=0.5;entryDx=0;entryDy=0;exitX=0.5;exitY=0;exitDx=0;exitDy=0;startArrow=classic;startFill=1;" edge="1" parent="1" source="Z8TzTKAZUmlHIoP4XjIV-2" target="Z8TzTKAZUmlHIoP4XjIV-4">
          <mxGeometry relative="1" as="geometry">
            <mxPoint x="441.00000000000006" y="109.99999999999986" as="targetPoint" />
            <mxPoint x="480.3" y="318.87448275862073" as="sourcePoint" />
          </mxGeometry>
        </mxCell>
        <mxCell id="Z8TzTKAZUmlHIoP4XjIV-2" value="&lt;font style=&quot;font-size: 16px;&quot;&gt;Posts&lt;/font&gt;" style="rounded=1;whiteSpace=wrap;html=1;fontColor=#FF33FF;labelBackgroundColor=none;" vertex="1" parent="1">
          <mxGeometry x="331" y="360" width="140" height="120" as="geometry" />
        </mxCell>
        <mxCell id="Z8TzTKAZUmlHIoP4XjIV-24" value="" style="edgeStyle=none;rounded=0;orthogonalLoop=1;jettySize=auto;html=1;startArrow=classic;startFill=1;entryX=0;entryY=0.5;entryDx=0;entryDy=0;" edge="1" parent="1" source="Z8TzTKAZUmlHIoP4XjIV-3" target="Z8TzTKAZUmlHIoP4XjIV-2">
          <mxGeometry relative="1" as="geometry" />
        </mxCell>
        <mxCell id="Z8TzTKAZUmlHIoP4XjIV-28" style="edgeStyle=orthogonalEdgeStyle;rounded=0;orthogonalLoop=1;jettySize=auto;html=1;exitX=0.5;exitY=0;exitDx=0;exitDy=0;entryX=0;entryY=0.5;entryDx=0;entryDy=0;startArrow=classic;startFill=1;" edge="1" parent="1" source="Z8TzTKAZUmlHIoP4XjIV-3" target="Z8TzTKAZUmlHIoP4XjIV-4">
          <mxGeometry relative="1" as="geometry" />
        </mxCell>
        <mxCell id="Z8TzTKAZUmlHIoP4XjIV-3" value="&lt;font style=&quot;font-size: 16px;&quot;&gt;Users&lt;/font&gt;" style="rounded=1;whiteSpace=wrap;html=1;fontColor=#FF33FF;labelBackgroundColor=none;" vertex="1" parent="1">
          <mxGeometry x="60" y="430" width="140" height="120" as="geometry" />
        </mxCell>
        <mxCell id="Z8TzTKAZUmlHIoP4XjIV-4" value="&lt;font style=&quot;font-size: 16px;&quot;&gt;Saves&lt;/font&gt;" style="rounded=1;whiteSpace=wrap;html=1;fontColor=#FF33FF;labelBackgroundColor=none;" vertex="1" parent="1">
          <mxGeometry x="151" y="140" width="140" height="120" as="geometry" />
        </mxCell>
        <mxCell id="Z8TzTKAZUmlHIoP4XjIV-7" value="" style="shape=image;verticalLabelPosition=bottom;labelBackgroundColor=default;verticalAlign=top;aspect=fixed;imageAspect=0;image=data:image/png,iVBORw0KGgoAAAANSUhEUgAAAjoAAAI8CAYAAAD4EQHdAAAAAXNSR0IArs4c6QAAAARnQU1BAACxjwv8YQUAAAAJcEhZcwAAEnQAABJ0Ad5mH3gAAHrqSURBVHhe7d0LXNR1vj/+lwiDMIMIiELGhEl6wFrFFjsebFs1j5iL1eLaUWtT+4l6EIvNzUsXL3nPlk3l5OWX1lb4W1f+a3os/Gl6WvW06SlxU/ylkAZroigXGUAGxP/n/Z0vchFxuMygs6/nPmaZ72W+ny9jfOY1n8/n+/l2CAgIvI4200H/KdrwsEREREQt4Kb/bAUJNzUBR8JNzYOIiIiofbUw6DQWboiIiIjuLM0IOgw3REREdHe5TdBhuCEiIqK71y2CTk3AYbghIiKiu1cjQYcBh4iIiFxDg6BTE3LuBDWtSi19EBER0T86fR4dCQbNDzgdO3aEwdAJnp4GeHh4wM2to3o0Y3wzERERkQO1aMJAT09PeHsb1c9OqKysQlVVFa5du4bq6mpcv84uLyIiIrozNCvouLt7wMfHBx4enqioqIDVatW3EBEREd157O5n8vIyIjCwG65f74CSkhKGHCIiIrrj2RV0fHw6a4+SEovWkkNERER0N7ht0JGA4+XlDYvFoo3DISIiIrpbNBl0pLtKHhZLKQcZExER0V3nlkFHBh536dIFZWVlDDlERER0V7pl0JEuq/Lyq+yuIiIiortWo0FH5sfx8DBw4DERERHd1RoJOh3g7e3NkENERER3vTpBx3Z/KHd3N61Fh/PkEBER0d1ODzq2e111UD88PGy3dSAiIiK626mgUxty5OIquUGn3LuKiIiI6G6ngk5tyBFyF3JeaUVERESuwK1uyBFubh21u5ATERER3e3cGs4F6ObmxgkCiYiIyCU0cnk5ERERkWtg0CEiIiKX1SDoyBVYRERERK6hTtCxXWZORERE5Co6BAQEqnRjCzlyBVZQUA8UFRXbtrbQMwvex6j7zmLXpAX4o6zwjsCkV5MwJKgQB//jFWz4Wq375wSsnhqFLrK9jqJvUjBzzRH17AFMWvYKhgScw/99cwE+yrVth/cTeOWtsXiwOgPrE3+PQ/pqIiJqqV9h4eZR6Kkv1VdTlzejTn5mAf4QE6ptFpWWizhzYg+2rtuDU/q6238GELWNGy06DS8zbw0PTw94dFIPbekBPPv6K/jX+z1w7r822kKO8DDCqPZBxUWc+/HcjcffC0r1HU7jj+mnUenzAIY8/wS89bWRLwxHpD9w7q9/YsghImoTRcivqYctlVr9XWmpqZfzUajt04w62WD7DKg5RpFbN/R9bCJeW/TUjdfd/jOAqG2ooOPILitvDJn1EkaFeqD46/fx5oen9fW1KrO2Y+6rr954rPw4U98ClH2xFjtPV8K773BMflitCJmAsVHdgLxD2PzxOdtORETUSnuwtqYePnxRW3PxcE29nIL/q61pfp1cc4yXE17F/jyVbR6Iwi/1bTWa+gwgagsq6NSfGbkteT/3KiY93AWVZz/F71b9F8r09fYrw/YP/ws/VnbDwDET8czzP0eoRxmO/n8ba5s/iYjISVpaJ5/DxZJK/TmRc2ldV46ZHzAUQ54IhQcqcerQn2/5R+D9cAK2bPn4xmPZc/qGGqffx0dHLsIjdDie6uuNshN/xtoD+jYiInKuZtTJBmME+j4UgSETFiDmAQ/g0o84qm+rcdvPAKJW0m4B4SiVZ0/jbKUH+o59BU/d6Jitr+zbP2Hx0iU3Hut36RvqOPreHpyQ5qDKs9j/wactaBkiIqK2Ym+dfM9jr+K1ea8i/hcPwLf4NLavTsEJfVsNez4DiFrjpltAtJ1z2P/mArz5fzJR5vEAfvn6BPTWt9RjvYgT32beeJwt0NfXVfYpzkq38dVinKkZ6U9ERO3Dzjr57KcTMG6c/pi2AH+8eZimfZ8BRK1QZx4d0ZbNO5WoVDG/7NNkfJRRpjVzTnruAX1bLY9uAzFp4sQbj2ce66FvISIiV8fPAHK0OkHHUVdflWH/mo9xtNgDocOnYFKDrOMREoV/HTG89hF1n76FiIhcHT8DyNH0CQO1p+pxHcHBrZ8wkIiIiOhOUKdFx3aZOREREZGr0IOOLeE4bmAyERERkfPpQYetOUREROR6VNBhwiEiIiLXdGOMDrutiIiIyNWooMNuKyIiInJNN1p0iIiIiFyNFnRqu63YtENERESugy06RERE5LIcevdyIiIiovbUoEWHl14RERGR63DjZeVERETkquq06LAPi4iIiFwLByMTERGRy2LQISIiIpfFoENEREQuq07Q4a0giIiIyLWwRYeIiIhcFoMOERERuSw96LDPioiIiFxPh4CAwOu2oGMboxMU1MO2hYiIiOgu12jQKSoqtm0lIiIiuotxjA4RERG5LAYdIiIiclkMOkREROSyGHSIiIjIZTHoEBERkcti0CEiIiKXxaBDRERELotBh4iIiFwWgw4RERG5LAYdIiIiclkMOkREROSy6gWd69f1J0REREQuQA86tht6EhEREbkSdl0RERGRy2LQISIiIpfFoENEREQui0GHiIiIXBaDDhEREbmsDgEBgdpF5XLVlVxeHhzcA0VFxdpGZ3B3d4fRaIK3tzc8PQ1q2QNubrZLwKqrr6OqqhIVFVaUlZWhtLRUWyYiIiKyR7sFHaPRiC5d/ODl5aWCTIUKMFZUVlaqcFOtBRwhgcfNzQ0eHh4qABlUEPJEeXm5Or9CLfQQERERNcXpQcdg8ERgYKD6acDVq2XqcVWVaws2t9NBnWSnTp3UwxtWqxX5+fnqZ4W+lYiIiKg+p47R8fXtgtDQ+1SwqUZh4WWtdcbekCNkX3mNvFaOIceSYxIRERE1xmlBp2vXrvD390dBwWWUlbW+20mOIceSY8qxiYiIiBpyStCRICIDjouLC1FVVaWvbT05lhxTjs2wQ0RERA05POhI15KPT2eUlBRrA43bmhxTji1lsBuLiIiI6nJo0JGBx927d3NYyKlRE3akLCmTiIiISDg06MjVVRaLpU27q25FypCypEwiIiIi4bCgI/PkyCXkbTHw2F5SlpQpZRMRERE5LOjIZIAyT46zSZlSNhEREZFDgo7cxkFmPJbJAFulSxCCvPTndpIypWy5tQQREdkpMAyRA/rVeUTA3MzGcaM5ApEPmtHiNnVjNCbNmojBTmmU90eY+j3DmhjtEBE7A4ljI/QlxzJGT8TLk6ObeO9uf77UOIcEHek6kts6NGcywJtFIn7uG5i/4EU83lNfZQcpU8qWS87vTlEYkzARMaH6IhGRM8QlYeWKlXUeyXhv+25sXREHez/qH/lfb2Llgng8oi/fjnnERCTGRelLyugxGDMiDr8arS871Bi8rH7Pl+P0xZv0w5PPxGL06NHq08jxnhwTh5i4MXhSX77pvbnt+d45tHO/gz7HHBJ05Aadcu+q1jmKvUdyUdm5D+KmNS/sSNlyDnenSAx7KhaPhumLREROk4Vtw0dguP4Yu3Q/Kh5UH1rTzPr2thUWrYLE8DoxYksSRg2PxYtb9OV2dQzLnlXvw7PL1aeR46UmxWL4qCSk6ss3vTd3Ee3c76DPMYfc6yo0NBQWS0kzr7YKwsiXXsLI0PoBxcNT74K6chSbZm/EEdtSk6TbymTywdmzZ/U1rRA4BImzxmNgL3+gMBuHU5djzf4CbdPo2Sl4pGAnjnaPxZP9Tchc8zyWfQEY+4/DrOeHom8vE0qyT+LzD36H1AyL9hrhN2QG5o7ph9AQ2Z6Ng9uWY/MhtX1APJa8EI2+vf1hPZuDy1npmL5ip/aaJo+pvc4fR1MtGDhZvf7KboxKet+2jYjIHtNSsCcOKugkYL2+SkxN2Y0xSMPwhA3aclN10dBFaZgbcRLLxryGfbJCqz/HoH9PM3xKsnD60DYs3XQIcomK1J9PPmyG2VCArHO5yHjvNVWu1GVm5Mjzb+QATZcXOWUx4v2/wpozkUgc3Q/ByMOJfak3yhDG/rGYNm40Hgn3R8UFVYe/vwhrpL5VZb0rv/D2Rcg0T8Sjsj33GD5ZuwjbTtpeK+c4ErZ6+OayCnDqcCqWrd6PQtvu9QSNewPz+5zGsgVbkKOticXclBgY/nsFFn5sW2Oe8Abm9snBmjfeh6ccPzQHG17dgJDG3ptvbn++jal9/2y/f8aO9/H2zkxtm/b7mXPxufrseHT6EITl77R9dtz43AuCZ/FJfLXzY6zbfuzGeyrbpyaOxsB/CkOANQ+nMnZgy7vqs1DtcOPf1U99ZN7yc+zmc7F9jvUDMuQzNQ5jBxpw9G3bZ2prOWyMTvPnzZFw5WF72kpStpxDq4Wq/7Dem4OYoEJk7N+Pw+f8EKPC1so4W7dYcM8w9B81Bc/eZ9t+9Ae18vE3sHn5eIRZM3Fg9yFkGfph0vJkJIZrL4FxQjI+mjcCwZZMbP/jDmSiF8bPW4Gp0sRXkIOszAuQtrCSH04iMytPe03DY2Zae2HCWxsx/3HbZvibVTiKwrMJ0fDMPoT0gyf0DUREraHquo6A9VqJbfE29Vs9xnF4531Vf/YoReYnqdiuPowfGDcHq6bYWofysk4iR6r9sgvIzMzCD/L9UavLwmFW3ys1t6n7/ELCERY1HnNHmZD15X4cOGdCf1XG0gn60AV1DkuXzMCjpmxsX7cRBwu6I0bq2zrnax4xAxHFx9TxD+K8bxSmvrkYQ/VtUseH9QzWnteUtWBsd+Sosj7PKETwiDlYvyim0XE1efkGBEcPxsiajXGPYnDvMAx+tGZ/E0Y+Gg2zV4n6HNCP38cMuZSm0fdG19T5NmQcsRib35qIwdq4KQP8Q/ohZuYKvKv/G2i/n3x2/DYWEX4GmfwOCFefe+rfbfQAswo56jMoSL0mYSXWzda70fR/1zGDIlR4VUHGYEakOqfFK+MhRw0IMiOoszqOKs+vuwo8QQG2l9WcS3gQcMUCn5pzmaZ3jGr/9rbP1KmP2c7X0DaRwDFBx82tgwobzR2fU47Pfv8yZr4088bj9wfPo1I2XTmBjxbY15ojpGw5h9Ya+KxKuJZDWPj8K3g7ZS3WLJiCtz/NgWfPwfoe6p+y+CDmTXlNbX8f6WdNmDQ6CoZv38e02clYo16zLOF5pJ4KwrCJsbYXHNiGzSnLte2pH2/B20nbcPSa+scdrradTVfbsnBZRZ28v6ry0uQ3NmHqmGgYT6XdOObbsxOwOcOAweNmaP9h2RhwavsUvLi05nVERC3n11t9EE15E8N6WZH1lXwjt6N+q+cQ/rRJ7TNV1Z+qrktdlYStGUBY/xht6+G0tThwXn2tu5KljiX1p7a6DjvrPkMuPvl3Wx0t23dkGxD2iH4+g/riPkMOPn9lOVI/Tcf62a9j2epUfGZrUNEU/OVNTJd6MyUZr7y2D3m+4RhW8yWyIV8rvno9ActUWWtWvYJpm47BMCgOkxsbi7L3K5wqVXX7c7bQNbRfL1RmZ6FUBRrbOBwVLkKsOPHXNG2prqbeG/vPtx9mPhelgpMFh1fFYdToWIxKSkee+qwIe2x8nXFHBlze9wqeGqW2J2zA+OmxCDPYXjP2hSkYO3YRDuarvPOz8Rgvu/e1IufrTBz+OEltT8ALY5NxWIUyg/rvZaTavDkpFm8flhYzdYzVUqb0LtQ5l+RxGPvs83gqaSdyrOpcYqdgUp2kaKjKxprxI9T5jsPCvfrKVnJI0GkbkXg8KgQeRUdVyEnBoXJ9tRM9+oA/8o5/gsP6sti3OgkvrkrXl5Ry9W1FfwqMQHioASXWYExOmIFE7TFRJXaVZoPCtD/M0pxD2HboAiLj4pE4azHeSRmN3nJlmfrW1LgR6HUPkKMql9oZiSzYlpEDa1Av1EYuKyoL9K4sIqIWCcOYPbuxRz22pqzEy2PNuLx9OeZ9LHXL7eu3ekpzcDDtEPJ+GoepCUlYkpyCJx9Q3/RvWdc1ZGfdZ7Wi4MYOFpy+aIHB4GNb/PIEfrCaMfqDjVgyaxxiHgSO7j6EnNoDwmKprcFxtlQdoQmF2fiqTjdRaZoKM+VBCIvWV9SzE4dPW2GOkNDVD4/cr76M7knHqUoVfmRAcVykerezkHFzzmmS/ef7CMzd1Y/ik/h8t77XyWQ8J+Ov6o07ykPGezXdUkPQ9x71b3RNBZvRK/BuSgreXTkeZncVugxm9JVAdTgNb69JwYHKoUictxLvbnwe/X21FzehsXNZi8MS4NRxwwbZVonS7/ZhhwpWbckhQaf5LSpeiJ78Bha/NBJB+hoZjLxh2SIsXLSx2SGnZS1KNzNJAClvrPf1VgLg42WFZ7dwRETUPoKsOcj6e6naCkRMS8Gu1BTMejoKET3UH3FGBn5ockiUHNMivVr1XSpFpcEA/c+ZiKgN1A5Gfur9TPX1yYKcb2rGu9y+fqtHukB2bMG7SaMxMELFoHPHkHGmyRjRQBvUfaVb8OLE5dj8TSGC+o9B4qqN2J76BmIa62uyR3mJPt6mRgEqrQbU5KqGtmVkAaGRGDNgJCL8JNRI+AGC+/TTWniQfQyf6Pu2HyusdYKf5lr9i4ms+erf+NRJ5BRIF9Qb2PphCl6eGIuYAd1hsOShoIUNEZfLpBwDPOoGpWsV+pO245CgU1VVqcKGvYdWIWf6fDwbFYTOnRpcKVWUh7wWvIFStpxDa53Os8K/59B6/a/aPBG9azqQGzqBvEIDKjJXYHpCQv3HqxtUdOuHJweHofSL1/DUs1MwPek1vL0xBxXSnXlLXyHnggnmh/vpyzbmiBAYCy+oEomI2l7pxxux78cgDH7eNvbi9vVbfZFPR2td/68+9TxeSEjCq6s24IeqJiu7Btqm7jOWHUHq0lfwwrNxGBWnztMUjQkv1j+m3fyCMVB/qgntD7NvAfJuNRj448PI6tgLA8epQJh7Ugs1En78+/wKw+43ISdzW53WqrZ2GSXy+ellxH03PsSGIDE5Be8uib/FJfMFsMj0dwYLMt6q/fed984GbHjnd9oA8SdHRcGvoxVHN6r3c4z6t03ajZz6uagRjZ1LFPr2kP8eClB4xrbGURwSdCoqrPDwsGcUkR5yftIZqL6E739wx2PPPINn9Efcz5pxTXkdUracQ2t98sVJVIaPwLxYPdiEx2H+75Ixd6xK4o06hD99mYegx2cjsb8+GC4wFku27sbWBUPUQjakd8ngaxtwJn3Qg5Ni0PemSRENMAXWhCmV+L9Wx4yOv3FMY/8ZmPt4EPIyPsNBbQ0RUVvLxLodx1DZawRmaBdg3K5+q++UVHbeKqjoE9wZo5MwMqKRoOPlj8hGW1haX/cFTUvB9q0ral//QDACOgKWgmxtudm8+mHsklhb/W3sh8Q5QxF04Rg+u+WVQTuRmWtCZH91zt+l20LN9pPI6R6Fgd1zkJl+mxauW7439khD+jcF6uMkAmPWr8TLCeq9S5mB0Q+GIdj9/C0umT+Gj7/IglVF25jFKzH1CRmntRKrk1diZfLrGK/OJa/I9tka3HMwIgdEY/yicTd1XVmrZR8T+o6Zo88FVP9cEqfE4+Xk32Cw+m/DeuoQPtavsHMUhwSdsrIyuLvbk9yfwGMScoRbV/T52WP4+c9rH4+PerxFEzVJ2XIOrVWatgirPi1A34Qt2JO+G3tWx6P3pXT1j37rwb6ZySuw/msTYt5Ks70mdQb6luzHprf2q60WfPTn/SjpE4+t6TuxKz0Nc8PUN5N6XVep+OSQBRGTVZkfzdF+/4bH3P5WLAKOb8CypRx0TESOU5q2Fp9lGxD59AytJaPp+q2+0g93Yl9xOKam7sauXaremh2GvMz6H+z7tuxGlt8QrNy+E+9M0FfW0dq6L29dijZYerR6/a4d+utPbcGadc3pQquj+BhOd5H6W/3u21didNcspC5ZXm8cZ32qzpfuK+Qh8wu906s0HVkX1M8fM/FJEzOg3O69sce+BW8i9XgBDN1VYHkqFkN7m1Casx/rFtku925MzsbZWLM/B5Vd+2FMkozT6oegyhzsW/06UlVS27dFhbdigwq8MsHkG5hw30lkNPg9Dv5xP7LUvsZeQzD66WHa51jdcxk9Ng4xD/pr57LmlQ0NugPbnkPm0ZF5bEJDe+Ly5fzbzo58//AXMfWXfdC5+hKObPkYhy7rG5TKwhx838y+qw7qF1G/kzaHTlt0X9nI1NshQO4xZNk7SMpoRkQfP1gbfY36lvNgL5iuZCMzpxl/cNoxTbB8l1lvMB0RkVM1Wb/VJ939vTtbcOp4Tsu7aVpb98ntLUIMuNyKurPuHEFfye/UKQ9HT9W57vtO1ox/r1q2zz3DpcY/p+SqvFDkNvkeGM1mGHJy6s8z1KJzaR2HBB3Ro8e9qK6uQnn57YPKjbBTcAS/f3UzvtPXt4Tc58rNzR3nzv1dX0NERNQ6N02GSHcNh3RdiaKiQnRqOLj4Fr7f8w6WbPochw5ntLoJS8qUsomIiNqK9aoF1lL10Jfp7uGwFh0hrTrXr1ejrMw5/Sze3kb1e7ixNYeIiIg0DmvREfn5+TCZTNqYHUez3d/KpJVJREREJBwadKzWCly4cBE+Pr7NmFen+eTYUoaUJWUSERERCYcGHVFcXISSkisOCzs1IUfKkLKIiIiIajg86IhLly6htNQCX1+/Nu3GkmPJMeXYUgYRERFRXU4JOkKCSEFBAfz9A7RBw60lx5BjyTEZcoiIiKgxTgs6QrqWzp79Qbsyys8vQJvzRib4s5fsK6+R18ox5FjsriIiIqJbcejl5U0xGo3o0sVPCy4VFRWoqrKisrIS1dXVN+48LnchlzE4cu8qua2Dp6enNgGhzJNTWsqpgYmIiKhp7RZ0ari7e2ihx9vbWwUZg7YsAUdI4JHbOMgNOuXeVTIWp6qqSttGREREdDvtHnSIiIiIHMWpY3SIiIiInIlBh4iIiFwWgw4RERG5LAYdIiIiclkMOkREROSyGHSIiIjIZTHoEBERkcti0CEiIiKXxaBDRERELotBh4iIiFwWgw4RERG5LAYdIiIiclkMOkREROSyGHSIiIjIZTHoEBERkcti0CEiIiKXxaBDRERELotBh4iIiFxWh4CAwOvakw7AdfUsOLiHtoGIiIjobtdo0CkqKtY2EhEREd3N2HVFRERELotBh4iIiFwWgw4RERG5LAYdIiIiclkMOkREROSyGHSIiIjIZTHoEBERkcti0CEiIiKXxaBDRERELotBh4iIiFwWgw4RERG5LAYdIiIiclkMOkREROSyGHSIiIjIZTHoEBERkcti0CEiIiKXxaBDRERELotBh4iIiFxWh4CAwOvakw7AdfUsOLgHioqKtY3O4O7uDqPRBG9vb3h6GtSyB9zc1Mko1dXXUVVViYoKK8rKylBaWqotExEREdmj3YKO0WhEly5+8PLyUkGmQgUYKyorK1W4qdYCjpDA4+bmBg8PDxWADCoIeaK8vFydX6EWeoiIiIia4vSgYzB4IjAwUP004OrVMvW4qsq1BZvb6aBOslOnTurhDavVivz8fPWzQt9KREREVJ9Tx+j4+nZBaOh9KthUo7DwstY6Y2/IEbKvvEZeK8eQY8kxiYiIiBrjtKDTtWtX+Pv7o6DgMsrKWt/tJMeQY8kx5dhEREREDTkl6EgQkQHHxcWFqKqq0te2nhxLjinHZtghIiKihhwedKRrycenM0pKirWBxm1NjinHljLYjUVERER1OTToyMDj7t27OSzk1KgJO1KWlElEREQkHBp05Ooqi8XSpt1VtyJlSFlSJhEREZFwWNCReXLkEvK2GHhsLylLypSyiYiIiBwWdGQyQJknx9mkTCmbiIiIyCFBR27jIDMey2SArdIlCEFe+nM7SZlSttxaorWM5ghEPmiG1j5kjMakWRMxWG8s8uvdD5G9/W0LRER3u8AwRA5Q9dqNRwTMzWwcr1dntkSDetax/BGmfs+wJkY7RMTOQOLYCH3JsYzRE/Hy5Ogm3rvbn29D2ufUgDBoX/2NMXg5OQXvzIrRytD+rVrwb3w3ckjQka4jua1DcyYDvFkk4ue+gfkLXsTjPfVVdpAypWy55Ly1Hvlfb2Llgng8Igujx2DMiDj8arS2CWN/sxIrfzPGtkBEdLeLS8LKFapeu/FIxnvbd2PrijjY+1Ffr860g3nERCTGRelLSoN61rHG4GX1e74cpy/epB+efCYWo0ePVp9GjvfkmDjExI3Bk/ryTe/Nbc/3Ztrn1IokjJWFnw7EIw+GIWLgQO330f6tVryJqYNko2tzSNCRG3TKvata5yj2HslFZec+iJvWvLAjZcs5tKktSRg1PBYvbtGXiYhcTha2DR+B4fpj7NL9qHhQfeBOM+vb21ZYtAoSw+vEiDuqnj2GZc+q9+HZ5erTyPFSk2IxfFQSUvXlm96b1vrid5iV9ApenPU7HNRX/aNwSNCRu5DLDTqbJwgjX1qO1b9ffePx0uBgeMgmLexMQd1s2xQpW86hTQ2Ix5KUxZg6QF9uwBg9AytTVNoeEWRbETgEiSs24sNtafhw40okDqnbzWVC5FPq29N7W7Br2wd4b8UMJzXVEhHZr3D/chw8a0DYQzH6GlXX9R+H+ckbsXXHFryX/AbG92+i9VyrB1Pw3tad2PpeMpbU6ZoZPTsFE/5J1dNB0Xi3pm5tpJ5tqrzIKYvx7uxYRIx9A+9+lIbtH6XUK0MY+8fiZVUXb92h18XRDc63Y7RWV2vbU97AmHB9vSLnKMcXN5e1EStnDrF1CzUiaJzab8E41EbEWMxNScH8CbVrzBPUPosmai1m2vGXxGutLY2+NzWaON+mDcGE6fFIHDdEX24gfKJ679Xv+1YSYu6xrap976UsdR4NP8fU7/jOxg+wXfu3abj9zuGwMTrNnzdHbiSqxZpWk7LlHNqUvxl9e4fD3Mi/o7H/DKyaNwI+mR9j3e48IDQe7743B8NM2Ti8fz8yCrojZrb6o4iz/YEZJ7yJxQmD4ZO9A2s2HcLlHiMw9+14u5uHiYicQ9VZHQHrtRLb4uNvYPPy8QizZuLA7kPIMvTDpOXJSGzsw9Y4Du+8PwcxPUqR+Ukqtp8EHhg3B6um2D7o87JOIkeq/bILyMzMwg8F6nnDerZBeZnWXpjw1kbMf9y22S8kHGFR4zF3lAlZX+7HgXMm9FdlLJ2ghxl1DkuXzMCjqi7evm4jDkpdPG8FptY5X/OIGYgoPqaOfxDnfaMw9c3FGKpvC+4ZhrCewdrzmrIWjO2OHFXW5xmFCB4xB+sX2ca8NJSXb0Bw9GCMrNkY9ygG9w7D4Edr9jdh5KPRMHuVIFMtacfvY9aCU6Pvja6p821aMMyq/Jrfpx4Vct5ZNg4De/ujYO9GpP+o3roRi7H5rYkYHO6PinwLfHpFYcy8D/CO/t5GJKVgpQqVEYHA5VwLAsJlezLm3oFdYQ4JOm5uHVTYaO74nHJ89vuXMfOlmTcevz94Hlq70JUT+GjBRhzR9rs9KVvOwRm0kLNkBAx7l2NWyjHIxfQDnx2CsMJ0zEtYjjUpa/H27Oex8KAVkU9M1NL9I+o/ZsPZ/Zi1dAvSP92AV15T+32Yjh+0IxIRtT8ZyBoz5U0M62VF1lc71RoTJo2OguHb9zFtdrJWty1LeB6pp4IwbKKt1aO+Q/jTJrXP1Ffw9sdbkLoqCVszgLD+ttahw2lrceC8VdXvWepY7yP9rLa6DhOmjomG8VTajfLenp2AzRkGDB43o7alxJCLT/5dlaFv35FtQNgj+vkM6ov7DDn4/JXlSP00Hetnv45lq1PxWY5tsyj4y5uYvnStOn6yqov3Ic83HMP0IHUTXyu+ej0By1RZa1a9gmmbjsEwKA6TQ/Xtde39CqdKw9D/OVswGNqvFyqzs1CqAo1tHE4sIkKsOPHXNG2prqbem2adrz06xmDJwnGIMKp/57Q38epui1rZDzOfi4KfNQc7kuLw3AvP46nntiDLakDEyBlaq9OjfaT3woLDa5/HCwlTMCE5XX2xP4IfOum9GncQhwSdthGJx6NC4FF0VIWcFBwq11ffSbz6qZATi+DjGzAz+ZAWclTexqMP+KPU4olhCTOQqD8e8VWbAs0YqH589V0OrKGx+HjjYrw8IQYR1ceQfihHfz0RUXsJw5g9u7FHPbZKV/xYMy5vX455H8uH3wiEhxpQYg3G5Bt1m/ry5qW+8AWF1emi0ZXm4GDaIeT9NA5TE5KwJDkFTz5g0FqI7DMCve4BclSwqq0bLdiWoerPoF4YrK+B1YqCGztYcPqiBQaDj23xyxP4wWrG6A82YsmscYh5EDi6+xBy6lS2Fou0p+jOlqojNKEwG1+d1J8rpWkqzJQHISxaX1HPThw+bYU5QkJXPzxyvwGn9qTjVKUKPzKgOC5SvdtZyLg55zSpWed7Wwb0nZ6AgX5A3u7ZmL6u5tiPwNxd/bhmQsSMFLwrXVoLomCSlofuIdrn2Ok8aWYyYeAsW7fVtK4nsXnjWqTuz1Pr7ywOCTrNb1HxQvTkN7D4pZGozYJHsWHZIixctLHZIadlLUotcE8QDD8WwPhgDJ690RQaApNcEu8bgoiI8NqHdwGycgsgQ7RLP07Cs0vfx1cF3dH/6QS8814ati5ovPmTiMh5agcjP/V+pqqvLMj5puZLXAB8vKzw7FanXlOPIPWtP+vvpWprA+HxeHfHFrybNBoDI1QMOncMGWea87Es5VlQUKf1RXOpFJUGA/Qo07TSLXhx4nJs/qYQQf3HIHHVRmxPfQMxLa1sy0tQ/3QKUGk1oCZXNbQtIwsIjcSYASMR4SehRsIPENynn9bCg+xj+ETft30YYOxkG88aNHD8ze9Ldf2LiiznspB1Khfn1fN9CxKwbOcx5FwxISg8CjETk/Duh1swf4TebXgHcUjQqaqqVGHD3kOrkDN9Pp6NCkLnTg2ulCrKQ14LWnKkbDkHh8vejRemvIltuWaMWbhY/49EfYPJBzzO78P0hIQGj+XYob3QBOvhLVg2ewqeGxOLpzYegzF6HGbeYqAzEZGzlX68Eft+DMLg5+P11poTyCs0oCJzxc1126sbbroyKfLpaIRZDuHVp6RrIwmvrtqAH6qac5HIV8i5YIL54X76so05IgTGwgvqbOxjLDuC1KWv4IVn4zAqTp2nKRoTXqx/TLv5BWutGTeE9ofZtwB5dVp56vn4MLI69sLAcSoQ5p7UQo2EH/8+v8Kw+03IydzWzi35VhzdNA7rM1QA9YvCtAVx+hfuEmkoUy7gsxv/zrOx7N0NWLNirfY55tc7BIX71mLm2FiMionDKztzYO3oj8Gjx8sL7ygOCToVFVZ4eNgzGFgPOT/prJLjJXz/gzsee+YZPKM/4n7WjGvK65Cy5RycIxPrl+9EljEKk2fbWmU+2ncMlerbw5JYfUSdsR8S1+3EnnXxCFL/m7ouDVvfnoFI7b8oE3oHyfAz9c3lO1kmIroTZGLdDlWX9RqBGdqFFIfwpy/zEPT4bCTWXPkUGIslW3dj64Kbr+Q5VaA+PL1VUNEnuDNGJ2FkRCNBx8tfrwsbOoZPvlblRcffKE/GRM59PAh5GZ/ZdYl00LQUbN+6ovb1DwQjoKOqbQuyteVm8+qHsUti9Qn4VL0+ZyiCLhzDZ19oWxuxE5m5JkT2V+f8Xbot1Gw/iZzuURjYPQeZ6bdp4brle9NWrKgsKMC2BRtxuFDe34n6YPEt+ORIgfY7Tk5JwpjHojFm1gqsTl6Jd5bOUGGvH6a9sRIrk1OwelYMIgcMxsAwf8i/buF5Z1yM3zwOCTplZWVwd7cnuT+BxyTkCLeu6POzx/Dzn9c+Hh/1eIsmapKy5Ryc5uwGzFp9BBiUgFUJ6ptC2iKs2l6AvglbsCd9N/ZsX4nR/llIfWcD8tT/1r+zBVldY7EybSd2padh5RP+yPo4BevbN9oTEdVTmrYWn2UbEPm0fLip6JO8Auu/NiHmrTRb3ZY6A31L9mPTW/ttL6ij9MOd2Fccjqmpu7Fr125snx2GvMz6H+z7tuxGlt8QrNy+E+9M0FfW0bC87W/FIuD4Bixbat+lKXnrUrTB0qPV63ft0F9/agvWrGtOF1odxcdwuks8ttbU611Vvb5kOQ7rm29mwUfSfaXq/cwv9E6v0nRkXVA/f8zEJzcNwK51u/emTalzWvreERSqqBL21GztqrR9C95E6vECGHvHYOprb2DqiDAYCzP13/cYli3ZgsxCA8wjZKJJFYbCTSg8tVOFIXsvG3KeDgEBgdpglg4dZFZhIDi4B4qK5Lq2lpPbL4SG9sTly/m3nR35/uEvYuov+6Bz9SUc2fIxDl3WNyiVhTn4vpl9Vx3UL6J+J5w9e9Y53VdNkim7Q2C4lI3MnJv/sOSqhlBDIU4d50BkIrqLGM2I6OMHa+4xZOXr625BbjXQu7OldfWcVp4Jlu8y6w0ktpvc3iLEgMstfb0ydFEa5kacxLIxr+Er+Z065eHoqTrXfbuq2/xba/++XdGq99bRHBJ0RI8e96K6ugrl5bcPKjfCTsER/P7VzWhND47c58rNzR3nzv1dX0NERNQ6dYPOPn0d3R0c0nUliooK0anh4OJb+H7PO1iy6XMcOpzRYER780mZUjYREVFbsV61wFqqHvoy3T0c1qIjpFXn+vVqlJU5pz3L29uofg83tuYQERGRxmEtOiI/Px8mk0kbs+NoUoaUJWUSERERCYcGHau1AhcuXISPj28z5tVpPjm2lCFlSZlEREREwqFBRxQXF6Gk5IrDwk5NyJEypCwiIiKiGg4POuLSpUsoLbXA19evTbux5FhyTDm2lEFERERUl1OCjpAgUlBQAH//AG3QcGvJMeRYckyGHCIiImqM04KOkK6ls2d/0K6M8vML0Oa8kQn+7CX7ymvktXIMORa7q4iIiOhWHHp5eVOMRiO6dPHTgktFRQWqqqyorKxEdXX1jTuPy13IZQyO3LtKbuvg6empTUAo8+SUlt6hUzASERHRHaPdgk4Nd3cPLfR4e3urIGPQliXgCAk8chsHuUGn3LtKxuJUVVVp24iIiIhup92DDhEREZGjOHWMDhEREZEzMegQERGRy2LQISIiIpfFoENEREQui0GHiIiIXBaDDhEREbksBh0iIiJyWQw6RERE5LIYdIiIiMhlMegQERGRy2LQISIiIpfFoENEREQui0GHiIiIXBaDDhEREbksBh0iIiJyWQw6RERE5LIYdIiIiMhlMegQERGRy+oQEBB4XXvSAbiungUH99A2EBEREd3tGg06RUXF2kYiIiKiuxm7roiIiMhlMegQERGRy2LQISIiIpfFoENEREQui0GHiIiIXBaDDhEREbksBh0iIiJyWQw6RERE5LIYdIiIiMhlMegQERGRy2LQISIiIpfFoENEREQui0GHiIiIXBaDDhEREbksBh0iIiJyWQw6RERE5LIYdIiIiMhlMegQERGRy+oQEBB4XXvSAbiungUH90BRUbG20Rnc3d1hNJrg7e0NT0+DWvaAm5s6GaW6+jqqqipRUWFFWVkZSktLtWUiIiIie7Rb0DEajejSxQ9eXl4qyFSoAGNFZWWlCjfVWsAREnjc3Nzg4eGhApBBBSFPlJeXq/Mr1EIPERERUVOcHnQMBk8EBgaqnwZcvVqmHldVubZgczsd1El26tRJPbxhtVqRn5+vflboW4mIiIjqc+oYHV/fLggNvU8Fm2oUFl7WWmfsDTlC9pXXyGvlGHIsOSYRERFRY5wWdLp27Qp/f38UFFxGWVnru53kGHIsOaYcm4iIiKghpwQdCSIy4Li4uBBVVVX62taTY8kx5dgMO0RERNSQw4OOdC35+HRGSUmxNtC4rckx5dhSBruxiIiIqC6HBh0ZeNy9ezeHhZwaNWFHypIyiYiIiIRDg45cXWWxWNq0u+pWpAwpS8okIiIiEg4LOjJPjlxC3hYDj+0lZUmZUjYRERGRw4KOTAYo8+Q4m5QpZRMRERE5JOjIbRxkxmOZDNDZpEwpW24tcVcyRmPSrIkYzEYpImoPgWEYHBePxAkxiDCb9JXNxHqM7iAOmRlZrn7q3Nl2pVXTvBAUZoavh77YlMpi5GTloVxfbIqPjy+uXLmC4uIifc2dyzxiIp40ncCatCO2FeOSsWtyGLI2xeLFLbZVRESOZ0LMvBQkDgkCyq3aGoOXAYXfbMCC2WnI1NaYETN5NEzH12LbYW1F41iP0R3EIUEnOPge9f/V2izGTYtCwluT8KA9XxosJ7DptynQ40CTpEVHGqvOn//RtuIONnRRGuZ2243h0zboa4iI2kHsSmyfGYITqxPw6s4CbZUxOgnr5g1FwZ/G4cX3LWrNECzZNgf+e0dg+jptF6I7Xkdvb+MCeSJBR8h8NFevtu7+UV27BqhjlNtxSXkPDPzXSHQzqKcVVai8Vo2O7rW9aZVqXfU1N7VOLVjzcXTPEdgbXeRu6EVFbdCiEzgEifNfReK0ifjl8J/iXsvXOHy2JsCZEDluDua+OBnTnn8awx/uCZz7K767ZNs6enYKfh2RD+uglzD/tzPxbMxARBjz8D/HL0DuwS7bf/UTf/j6BuJfHlXHztuHr4PjseS1p/GAPD9vO46x/zjMm/0iEhLGI2ZgX5gufI1v82zfuCKnLMb84Uac6fFvWDR3Jqb88jE81KUYXx3N1cogIrJHUMxYPBOUiz8s3oUz+rrK3L/iXEUAqgtykJH9M8xNGYO+gb7o0m0QHnv4Xvy472sEa3WQH4r7T9LquWE+W5DeoW49Fqte92v0LazAvyS+gVkzVT3W31yvrhR+Q2Zg0asJSFB16WO9O+KM75NY9HyEVkaevg9RSzhsjI598+Zc0VtIL+HI+pmY+dKHOC5fGoTlBD58Sa1bfwSXZdlapva2j5Qt59BqofF49705iAkqRMb+/Th8zg8xszdiZZytCWrgvBSsnNwPhjOHsPXPh5DTdSgSF76BodpWILhnGPoP/w1mDQIyv9iNA9kGRE5ejFXTIrTteVknkSONZ2UXkJmZhR/kS5S/GX17h8Psr+0CPP4GNi8fjzBrJg7sPoRMay9MeGsj5j9u2+wXEo6wqPGYO8qErC/348A5E/qr8LV0Qgv71onoH1LemUKU+objySlRqHs5x+G0tdi8O0c9y8PpzFyUXFPV8fmTyMzO0epmrQ4aNB4zoz2QJfXccbWyXj0WDHPvfhiWOAMRxcdUPXYM1j4xSHx1DgbKZsU4YjHWzxuB4IIMfL7/CHKCx2PBc1EI62Oudy5ELeGQoOPm1kGFDXtu1vkdNi1ehKULl2HTSX1VQyc3Y4navnDxZrW3faRsOYfWGvjsEIRZDmHh86/g7ZS1WLNgCt7+NAeePQdr209v24L1q1/H9KUbkPrxBix8cx/y/MLx6GPaZo3BkIuPpuqvX5qAeZ8WICxmIkarbVKBHDivkt6VLKxJeR/pZ22vqWXC1DHRMJ5Kw7TZyWqftXh7dgI2ZxgweNwMqO9ENqqMT/7dVoZs36ECVdgjsfpGIiI77FyEVdvzcF/cYmxN34mt763E3AlD6gSNI9iWcgDSmHw5W9Vnm9Ih8Ufjlo2tU5KwTNVBjY/dMaDimzdVXalel7Ic09ceQWn3cAwbINvMmDw2CoaM92/Uc8sSknCghF/WqG047PJyu5XnITev6bE85Xm5uM0uDvHoA/7IO/4J6v7d7ludhBdXpWvPC0+l47NjQMyEGUictxLvvjoQ/uoP2lC3MelcFrbVmUoo888ZyDN2R1/tD/x2RqDXPUDOt++j9hAWbMvIgTWoF2xxS7FaUXBjBwtOX7SogOWjLxMR2cOCgykJeCpmHKavTsXRS36IfG4Otm5LxqRwfZdbqVcHNc5isQ1n1uzNwXn1Rc6ktfhEISTQih8y0urUczn45Dg7rKhtOCTotFWLSkvZ36LUNJOMaS4vtC3cxISYBVuw/b1kTB4ajgjfAmT+18mb+pKtZVrHW62zpao6qfkDv50A+HhZUHDja5PuUikqDQYwyhBR2ytA1qdbsGz2FIyNS1Zf9CLw5ERHthBLPQdUNJiN5LIKT0RtwSFBp6qqUoWN9msskrLlHFrrdJ4V/j2Hou5UEEZzBCJ7S0qJxcgoEzI/jsPYFxIwffZyrDlUAhlXXZehm7m2i0nEhanlPOTs1Zeb9BVyLphgfrifvmxjjgiBsfACTujLREStJRdHvDNziL6kK03HiR+tMJqC9RWOIPWcAaHhUfqyMGFsnyD9OVHrOCSNVFRY4eHRBoOBW0jKlnNorU++OInK8BGYF6s3v4THYf7vkjF3bC+1kAdLuQH+XXvpQSgCYxIG4qY/zXuGYm5CP9s+gbFY8owKLScP4iNto87LH5GNTqx1DJ98nYeg6Hgk9rf1Vxv7z8Dcx4OQl/EZDmpriIhaL0PVZxGx8Vg5Tq+v4I+BE1biqXAg61tbd30Nk2/NPm3hGD7+IgvGx36Dd6bEIHJAP8TMSsaTUs0StQGHBJ2ysjK4uzds22iaV/+ReOaZ/uhak488AhD5zDMY2V/6j5pHypZzaK3StEVY9WkB+iZswZ703dizOh69L6VjdbLM5rMfH/9nJnweX4nt6TuxZ08yxpZm1w7Oq3H2GPKiZR/1+tQZ6F++H2vmbrnRF71vy25k+Q3Byu078c4EfWUdmckrsP5rE2LeStPOYftbsQg4vgHLltozoxARkX1yVidj/ZcW9H5e1Vd7VH21ZwuWPNcLJV9swLx1NTWbqvf2ZsFf6r1dyRivr22tnI2z8dqWXPiPSMDiBYsxuecxVffeVJsStYhDJgyU2y+EhvbE5cv56pj2jJWJRPyKKYjsrC/WdeUoNszeiKP64u10UL+I+p1w9uzZNum+svFH2IAQIPcYsvL1VTfcetvUdbsxBmnaZIB+vfsh+Go2MnNqrp9vJqMZEX1MsHyXiZzbDPojImo5W53mYy3EqeM5dQYIO5IJRqMFpXUKMyd9gPcGZWPh2EVsvaZWcdAYnSptVuROnTrpa27nKPbuPYrvf8hFbr3HGRzdu9fukCOkTCm77UKOKEDWN42FHNHUtlqFp461POSI0hxkfsOQQ0SOZqvTjjot5ACD523E9s0rMX6gDBMwwRwdj5cfC0LpmaMMOdRqDmnREUajEd26dUdhYYOrjhzMzy8AFy9eUN8M2j8RTEreqbXojEp6X19DREQ3MUYjcXE8hoUHwdhRLV+zIO/YTvxu0fs4yi931EoOCzqiR4971TGrUVbmnP9Svb2N6vdww7lzf9fXEBER0T8yh14Dnp+fD5PJpI3ZcTQpQ8qSMomIiIiEQ4OO1VqBCxcuwsfH16Hz6sixpQwpS8okIiIiEg4NOqK4uAglJVccFnZqQo6UIWURERER1XB40BGXLl1CaakFvr5+bdqNJceSY8qxpQwiIiKiupwSdIQEkYKCAvj7B2iDhltLjiHHkmMy5BAREVFjnBZ0hHQtnT37g3ZllFwG7uXlpU3wZy/ZV14jr5VjyLHYXUVERES34tDLy5si8+x06eKnBZeKigpUVVlRWVmJ6urqG3cel7uQyxgcuXeV3NbB09NTmwywqKjwjpgnh4iIiO5s7RZ0ari7e2ihx9vbWwUZg7YsAUdI4JEZjuUGnXLvKhmLI7MuExEREdmj3YMOERERkaM4dYwOERERkTMx6BAREZHLYtAhIiIil8WgQ0RERC6LQYeIiIhcFoMOERERuSwGHSIiInJZDDpERETkshh0iIiIyGUx6BAREZHLYtAhIiIil8WgQ0RERC6LQYeIiIhcFoMOERERuSwGHSIiInJZDDpERETkshh0iIiIyGUx6BAREZHL6hAQEHhde9IBuK6eBQf30DYQERER3e0aDTpFRcXaRiIiIqK7GbuuiIiIyGUx6BAREZHLYtAhIiIil8WgQ0RERC6LQYeIiIhcFoMOERERuSwGHSIiInJZDDpERETkshh0iIiIyGUx6BAREZHLYtAhIiIil8WgQ0RERC6LQYeIiIhcFoMOERERuSwGHSIiInJZDDpERETkshh0iIiIyGUx6BAREZHL6hAQEHhde9IBuK6eBQf3QFFRsbbRGdzd3WE0muDt7Q1PT4Na9oCbmzoZpbr6OqqqKlFRYUVZWRlKS0u1ZSIiIiJ7tFvQMRqN6NLFD15eXirIVKgAY0VlZaUKN9VawBESeNzc3ODh4aECkEEFIU+Ul5er8yvUQg8RERFRU5wedAwGTwQGBqqfBly9WqYeV1W5tmBzOx3USXbq1Ek9vGG1WpGfn69+VuhbiYiIiOpz6hgdX98uCA29TwWbahQWXtZaZ+wNOUL2ldfIa+UYciw5JhEREVFjnBZ0unbtCn9/fxQUXEZZWeu7neQYciw5phybiIiIqCGnBB0JIjLguLi4EFVVVfra1pNjyTHl2Aw7RERE1JDDg450Lfn4dEZJSbE20LityTHl2FIGu7GIiIioLocGHRl43L17N4eFnBo1YUfKkjKJiIiIhEODjlxdZbFY2rS76lakDClLyiQiIiISDgs6Mk+OXELeFgOP7SVlSZlSNhEREZHDgo5MBijz5DiblCllExERETlkwkC5jUNoaCguX85v1jw5bUEmFVS/E86ePeOULjMiIpcSGIbBPxuKyE45+PzAQWTmWPQNzWCMxqTpD+D0u+/joIMa9SOnLEZ8f9uX2oKMDfjKPx4jzdoictITsGyn7TlRR29v4wJ5IkFHyNVLV6+2brZhOYbcw6qi4qq+5la8EBTWCz26d0XXwNs8unigrMACe6JLx47uWsC6ffm3Y0bM5OfQ3+MwMs/pq4iIXJIJMfM24p1Zz+DRvmEIe3AgfhE3HrEPluPE3pPI1/axs04c8xss+dVgBJdtQfpxfV0bi3gqAU/2uICD32Qj78wxnLEEwLO8Gj0G9IfpwkfY9T/6jvQPzyEtOsHB96j/r9ZmMW5aFBLemoQHTfpiUywnsOm3KTiiLzZF7p8lvXLnz/9oW9FiQ7Bk2xz47x2B6ev0VURErih2JbbPDMGJ1Ql4dWeBtsoYnYR184ai4E/j8OL70rJz59SJQxelYW633Rg+bYO+RrDOpps5ZIyO3IVcbtDZLBVVqFSPumS5sgWNS1K2nENrzU0ZjwdUZgoenIJ3l8QjUl/vN2QGVqZsxNYdW/Be8mJMiq6f1Iz9x2F+sr59xQwMHhSPJSlzMFrfjsAhmLooBR9u24mt7yVj/tgIfQMRUfsI6ukHY3E2PtdDjig9lIw1m3Yj47y/WopttE6ULqR3Z8dhcMJKvLd1J96ZrFYOkDpvMaYOkKPI69TzQdFIXFFTLyZhdLhsq6XVqxs/wPZtH+Dd1+IQETunXr1L1FIOCToyRse+eXOuoNwqPy/hyPqZmPnShzhe0x1sOYEPX1Lr1h/BZVm2lqm97SNlyzm01unMXJRcU0WfP4nM7BztPIwTkvHRvBEItmRi+x93IBO9MH7eCkwNtb0G4fFYtWQiIg3ZOLD7kNoehVlJQ9C/dwiCtR2iMDdZhZ77S3F4Swq2njQgcvLrWDLCnmYtIiLHyDtTiFLfcDw5JQp1L+c4nLYWm3fnqGd5jdaJfiHhCBs0HjOjPZD1xW4ckK4qfzP69g6HWfKRqvnMvfthWOIMRBQfU/XiMVj7xCDx1TkYKJsV44jFWC/1akEGPt9/BDnB47HguSiE9THXOxeilnBI0HFz66DChj2DkL/DpsWLsHThMmw6qa9q6ORmLFHbFy7erPa2j5Qt59Ba21IOIE8FscvZa9W3mnTInzoObMPmlOWYNjsZqR9vwdtJ23D0Whj6D9degtETRyDsUjrmJSzHmpS1eHv289h0xoDa9qVImLtbkPHhK1iTlo5tqxKwdMUH2PxNCwb8ERG1lZ2LsGp7Hu6LW4yt6dLavBJzJwypEzSONF4nCrdsbJ2ShGWqztt2WF9XjwEV37yJ6UvV61T9OX3tEZR2D8cwrcXHjMljo2DIeF+rV6XeXJaQhAMl/PJHbcNhl5fbrTwPuXlNj+Upz8vFbXZxmtKcQ9h26AIi4+KROGsx3kkZjd4yJKijbDXjgSAT8r7bh0xZ1O04nA2t4UpzFDkXTBiYsAXvzIvHmMfCcHp/OrJsI/2IiNqJBQdTEvBUzDhMX52Ko5f8EPncHGzdloxJDbqZbmK1ouA2V1dZLHVqxb05OA8TTFqLTxRCAq34ISMNtYfIwSfH8/TnRK3jkKDTVi0qLWV/i1LzRUxLwa7UFMx6OgoRPdSfY0YGfrgxdjsEJgk95YW2xRoWK2pHLB3BsqmvYM3ebKDXEEyam4KtO1Iw9XYVCRGRUxQg69MtWDZ7CsbGJeMwIvDkxFh9myMEwEfVmw0vkr2swhNRW3BI0KmqqlRho/0ai6RsOYe21w9PDg5D6Rev4alnp2B60mt4e2MOKm70Sx3C6Twr/HsORd25mQdG9aq3DGTj89Wv4cUXxmFUTBLSC8Mwevo4fRsRkfONnp2Cd2YO0Zd0pek48aMVRpNthKFjfIWcCwaEhkfpy8KEsX2C9OdEreOQNFJRYYWHR+sHA7eUlC3n0FZMvv30oJKNAgtg8K0ZIGfC4KQY9JVWHF3qjiMoDY/D6nlxGDygHwZPWIlZA021XVePL8b27RsxL1ZrswUCe6G7OnhlEZtpiaj9ZJQbEBEbj5Xjauo7fwxU9ddT4UDWt+namhq1dWJbOIaPv8iC8bHf4J0pMYhU9WbMrGQ82UvfTNRKDgk6ZWVlcHdv3uXdXv1H4pln+qNrTT7yCEDkM89gZP86KcJOUracQ+vtx8d7s+D/+Eps35WM8bDgoz/vR0mfeG2w3q70NMwNu4ATdacd2rsIU1fvA/pPxNwFizFrqBVbPzpW23W1dznW7bei/8wt2LNjJ/akzkDf0v1Yt2K/vgMRkfPlrE7G+i8t6P28qu/27MaePVuw5LleKPliA+atqxl23LBObBs5G2fjtS258B+RgMWq3pzc8xhWfXpjqDNRqzjoFhDuCA3t2YxbQEQifsUURHbWF+u6chQbZm/EUX3xdmpvAXHWQd1XwgTzg71gupLd6PToRqMJpaV11setxK5pRuwYnoD1+ioYzYjo4wdr7jEORCaiO4g/wgaEwMdaiFPHc+oMEHYkk6o3Lare1BcVc9IHeG9QNhaOXYSD+rq6OGEg2ctBY3SqtFmRO3XqpK+5naPYu/covv8hF7n1HmdwdO9eu0OOkDKlbMeFHGFBzvFjjYacoAnJ2Lo1GS+PMGtNu3694zD/6XAYck7iM9suNqU5yPyGIYeI7jQFyFJ101GnhRxg8LyN2L55JcYPlC599UUyOh4vPxaE0jNHGw05N/SKw549u7F90RBMXSetUHMw0FffRqRzSIuOMBqN6NatOwoLten+nMbPLwAXL15Q3wyc9SfaUATGvJaEsYPN8JNLzq9ZUZi7Dx/NS8YOhhoiopsZo5G4OB7DwoNg1OpNC/KO7cTvFr2Po+1VlZPLcFjQET163KuOWY2yMuf8l+rtbVS/hxvOnfu7voaIiIj+kTn0GvD8/HyYTCZtzI6jSRlSlpRJREREJBwadKzWCly4cBE+Pr4OnVdHji1lSFlSJhEREZFwaNARxcVFKCm54rCwUxNypAwpi4iIiKiGw4OOuHTpkna5ta+vX5t2Y8mx5JhybCmDiIiIqC6nBB0hQaSgoAD+/gHaoOHWkmPIseSYDDlERETUGKcFHSFdS2fP/qBdGSWXgXt5eann9t/8U/aV18hr5RhyLHZXERER0a049PLypsg8O126+GnBpaKiAlVVVlRWVqK6uvrGncflLuQyBkfuXSW3dfD09NQmAywqKmzHeXKIiIjobtFuQaeGu7uHFnq8vb1VkDFoyxJwhAQemeFYbtAp966SsTgy6zIRERGRPdo96BARERE5ilPH6BARERE5E4MOERERuSwGHSIiInJZDDpERETkshh0iIiIyGUx6BAREZHLYtAhIiIil8WgQ0RERC6LQYeIiIhcFoMOERERuSwGHSIiInJZDDpERETkshh0iIiIyGUx6BAREZHLYtAhIiIil8WgQ0RERC6LQYeIiIhcFoMOERERuawOAQGB17UnHYDr6llwcA9tAxEREdHdrtGgU1RUrG0kIiIiupux64qIiIhcFoMOERERuSwGHSIiInJZDDpERETkshh0iIiIyGUx6BAREZHLYtAhIiIil8WgQ0RERC6LQYeIiIhcFoMOERERuSwGHSIiInJZDDpERETkshh0iIiIyGUx6BAREZHLYtAhIiIil8WgQ0RERC6LQYeIiIhcFoMOERERuawOAQGB17UnHYDr6llwcA8UFRVrG53B3d0dRqMJ3t7e8PQ0qGUPuLmpk1Gqq6+jqqoSFRVWlJWVobS0VFsmIiIiske7BR2j0YguXfzg5eWlgkyFCjBWVFZWqnBTrQUcIYHHzc0NHh4eKgAZVBDyRHl5uTq/Qi30ENGdTf5+TSaT9mWmU6dO6NjRXatrOsj/uZjrqgKVOvTatSpcvXpV1VEWWCwWrU4jovbj9KBjMHgiMDBQ/TSoyqBMqxCkgrCHVI5SWXbq5A2r1Yr8/Hz1s0LfSkR3CvlS4u8foIUc+fuWwKNqGPVwvYBzM9vvKQFH6iwJOwUFl7UvdETkfE4NOr6+XdC9ezftD7+srHUtMt7eRq0SvXDhIoqLi/S1RNTeunULVH/rfi7ZatNSEvaKiwtx8WK+voaInMVpQadr167w8emMkpJiVFVV6WtbR8b3+Pj4qmNewaVLl/S1RNQepBXnnnt6oGPHjnoLDtUlLTzXrl3Djz+eY+sOkRM5pTaSkCN99PKNpq1CjpBjyTHl2FIGEbUPGWsXEnKfNp6OIadxNeMN5X2S94uInMPhNZJ0V9W05DhiUJ4cU44tZUhZRORc0pLTo0eI+iBnV5U95H2S90veNyJyPIcGHRl4LGNyHBVyatSEHSlLyiQi55HuKoac5pH3S943InI8hwYdubpKBh63ZXfVrUgZUpaUSUTOIQOPZUwONZ+8b/L+EZFjOSzoyDw5cgl5a6+uag4pS8qUsonIsaTrRa6u4piclpH3Td4/dmEROZbDaiiZDFDmyXE2KVPKJiLHknlyeAl568j7J+8jETmOQ4KO3MZBriqQyQBbpzNCwnsiqBkXKEiZUrZcet5axuiJeHlyNO7Y9qHAMEQOCENjsc5ojkBkb399qXF+vfvddh+ixkhrhMxj1TwmBPUKRc86j5BA57dmhESNxKjoe/WltuKJruZQBHXWF5tB3sc7olWsVfWJP8IG9EMYe+LoDtTR29u4QJ7UfDGTq5euXm3dHA9yDAkaFRUtDzr3D0/AyzPHY0R0NH4+YhSG/ZMbTn95CoX69qbINPMyQVdryhe/+s2b+NWjQShP3Y1v9XV3lF+/iQ9nDkKHDz/F1/qqGo++vA6LHvfEh//ZcEut55f8AS8O6tDkPkSN8fHx0bqIm9ei8xiee+kXGNyvH/rrjwEDB2PIw/fB+vdjyL2i7+ZQoRj+zBMY0MMdP/z1/6HtphqNwNPT/g39DV/gf7L0VXaSukpuf9Puc+u0qj55Dkv+8CL+BR9h1//oq4juEA75GiE36JR7V7XU/bG/xYxf9kWA2yV89+V/47uLVfAKG4nJk/vqezRNypZzaK3UpFgMH5WEVH2ZiGxk7qqWtkLkfbkI8+frj7f/jL9V3otho4bDOTNhnUVasio3+c84o69pb/I+yvtJRI7hkKAjdyGXbygtE4t/i+kJryvfqQrpDfz+Dx/h9/M/wXfqy05An39BpL5XU6RsOYfWipyyGO8uibeVOSAeS1LmYEz/cZi/cQt2bd2IlQnRqoKKxqRFKfhw2xa8t2IGhtZtujX2w/jXkvHeR2nY/pHaf1as+t5Xlz+Gzlypb0/B/LERGD07BUum9NO3K4FDkLhiozp+Gj7cuBKJQ1rS1RSLuSmLMXVEHOanfIDtH8zBYH0LUUvIPeds93RqpSvfIu3/XYJ7cE88rK9C54cw6tf/jqTZs5H077/GqIcahIBOoRj41K+R+Nt5+O0MtT08DCOejUdclG3zwF/GY/ov9QVN6K239xqOCfFP41/CR2LijN/g9ReG2NbDhJ/8QpWRNBtzk/4dE3/xkFpTx03n0Jqu8uv6+3m3YH1CdxeHjdFp+bw5O5H85jIsXPAO9tZ85WrmJKJStpxDa/mFhCOsj9nWZ+1vRt/eURibNBTIOIT0TKDvU7/B5o0zMPDqSRzefwzWPrF4+c14mLVXR2Hu+pWY9FMDsr7Yhq1f5CJgyAwsWFBbkcaogDR3RHdcztiPz7/MRdDY1/FsVBj6huhhJjQe7743B8NM2er4+5FR0B0xs1Vgimvut79gmHv3w8gp42G+nIHPv8hAjr6FqCWkexhtdIPOTlILVVWhXBa6D8f0xKfxk07ncerbv+F7iy8G/DIBEwfVjOW5FyMmjlfBohN+PHEUmX8Heo8ejZ/cF4Ru+phev25BCOpWd/JQH3TtcYvtpkCYe/TGY0+Ewz3vJL7JzFUru2JE/EzEPaTK+O5v+NsZC/z6PY3EXw+CLY40dg5DcE+Ls04H/f28W7A+obuLQ4KOTIZVXd28b3v3D38RK1L+A++++x/43fy5eOXfY3G/tqUn4pKeRB9Vz13+7r9xVFvXNCnbMROYGXB2xxQsTFmLNQuSkH7WBOOlHZi+VC2nLMf0XVkw3BOGgdq+2fhT6gasmZuAZRu3IHXjIizcmwe/iEdt335CJ+JXgww4uikBr6zSXz/rEEp8tRdrBj47BGGF6ZiXsFxtX4u3Zz+PhQetiHxioh6mmsOAkr++jhfeSMaaTemsmKhV2uRiq85B6PnwcDz7UBCqzp/GYbWq92MPIajkKD7a8Gfs+vQzfPKHNfjjyUq131Bb11bUUAwILsE3H21Amtq+a/sf8O5fLsG9VQ24HXH+ryn439vU8b7MAvoMwU961C8jedtJVPWKxLDuancHnMPdd/Ea6xO6ezgk6DTX/WPm4qVf9kHna1fw/ZEj+L6gHF73RyLqHhVy5iXh8RB3VP7wOTZtOqG/or1YUXnjfqcWWK8BlUV5+rJyphClXkbYvjgWIOvT3cjoGIPxCTMwd0UK5kf5q3fcoKoI5WEzgqw5yEizaHtrzu5A5o/6cxVlHn3AH6UWTwxTr0/UH49IEAo062GqeSyWTP0ZUfsJGvQGFi5Uj5fjMXH0IAQWH0HaRwdwVUWZ8CATrl51x0+eGIlR+uMBGW7nG4je6kfXYF90Kvo7/iYNL7qrX57G+ZYPCVSuodJSOxC4a58gmMoq4P5Q7TmM6iXNyl0QqL59OeYc7j6sT+hu4ZCg05wWFS3kDAuBR/kZfJayA+f9uqL40CbMfvUzeEypDTm/X56G7/XX3E5LWpTanDEG81PT8N6q5zEsIhx+xSfx+ak6ocjfCMO1ShWd6iqA9caKEJikbvUNQYR6/Y2HtwpQuWo/20635O/V+jFKRLdyvRV/XjcGIy/bj9wqFRIKTiNTu0AyEJ2kh8oYCPO9IbUPgwV5+SWQ+dW7eXuoXFKFEtn9hquobMPJ17Uy3DzRre453NsJlnOXUKLKccQ5tOb9dAbWJ3Q3c0jQqaqq1K4kuB2vQQmYWhNy1ryFHSXBMN/XE5GxCVixbBKig9xRfuazZoUcIWXLObSrp0ZgoG8mUuPG4YWEBLyydC0OFtepLL7ORZ5XCPoO0peFcQzC7tGf45Cq3AGP8/swXb2+/mM5dsguJy+gEEHoFau9oI4o9O1hQOnF0/oyUdu6pj7oWz0Y+eoB7D5WiC7hQzFCuoRwEkXFgHvht3h3w4YGjz9rXVuZBRatdafeoP7u96rwoT9XSq42TBzNG/+ileFWjGM3ncMGpB2x7xya57r+frYz1ifkohwSdCoqrPDwuN1g4CDExfRF58o8/JeEHBl4/GMalr6RgrS/nMD3J49g7x/fwasrdzYr5AgpW86hXV0oRaXBH/4P6AOHw+MwY1CQ7bn4JhUHT5kwOCkZU5/oh8gBMXh5dSzC9M3io33HUNl/DJbE6oOTjf2QuG4n9qyLV++e8sU2fPWjCZEvqGMM1PcJjML4t36DwYF5+Oqz/bZ1RG3MNhlo6weW5P7f/8GZqiAMGGkb6PvFt2dR1XMQJkTpfzedQjFq2jwsnDYc2vDhv5xELu7FI89G2a6Cku1PP2Tbpjt1qUj9HfwT4uRqrc5h+NnEIejdnBDyl29xpjoU0TVlwBM9n4jH6/PjMUL6pe04h+bp0AaTq7YB1ifkohwSdMrKyuB+25F5IfCVyqfiMr6/MaFFZ/z8V3F4oncZPlu9GWn/9Z3tSoxmkrLlHNrV3lR8ctyEmLfSsGfXbuxJHoPS03WH7OVg/SuvIfWMP0ZOW4zFC55H2De/Q3qdfv/StEVYtb0AfRO2YE+6Osb2lRjtn4XUdzbA1gmWibf/fRF2nDNjzBK1zx61T+piTHrAgoOrk7DsS20nojZXWmrRrm5statf4j+P5sG9508xqo8s/hGffGWB+YnfYOH8N7Bw7q8x0CcPf9m1xza539UD+Og/v0XVfSPxW317RNFRnKrz535p75f4W7EPfjJGHePl8Xjk6sl6229LndP/2X4Elh6qDBlLNH82Jqrgdf4vn2L3Zdl++3NoDnkf5f1sf6xPyDV1CAgI1NqfZdS/9BMHB/dAkbQft4LMihwa2hOXL+drs342zgujX1mBkT3Vt7q/rMfaz7zVB/6/4ef3eWndVWtb0JIjZKZW9Tvh7Fn1zbC9u6+ETKseApz9JuvmWZ2NJhhVBVd721MzXv5gIx45swhjFxzS1wmZXj0EhkvZyMy5RYVoNCOij5+q5ZvYh6iNSPdwr15h2t+bY8jtIrrC48p55OY3NmOw3HIhGF7lsr03Jsx+Gp2PLcK76frmNmLqEYrAjhacz7mEm9tc6p5Dy2c1ljoyOzurbYJjW2F9Qi7EIbeAkD9YLy9vdOwoY2Vu1fdche9+9Ea/n4YhpNdADH88EqFdPFoVcoTc5+ratWoUF7fd5O6tUlaAvPMFjVSS0Zj7wX9g2j9fww8Zx3GugxmDJyZh3D97IXv7Kuw5pe+mKUfB+QvIL26iO66yGPm324eojciHs9x123F33rbCUliEK2XX9OWGrqFM/Y3btnfHTwaHw/NC82+/cDvWkiIUFZdpA6FvVvccWs5isaCkxCn3v7Af6xNyIQ4JOqK6+hp8feUO5k10PhWdxIG/nkWFwYhOZT/g633bsP7j/0a+vrklfHx8cfnypVbMzOwsuTia1wWPDBmFf3v+Bfz630bj56HXcCJtORb+8QLu9LMnqqy0qr9xXwe26tgrAL0f7gND3gF8c6fc18FOEhjz8s6rL2etC0tEdGsO6bqq0aPHveqY1Sgrq+2ccSQV2tTv4YZz5/6uryEiR+rWLRCdO3ex6ypLqk9avq9cKcLFi635akdEt+PQ2ik/Px8mk0kbs+NoUoaUJWUSkXPIhzRbI1pG3jeGHCLHc2jQsVorcOHCRa07yZHf+OTYUoaUJWUSkfP8+OM5tPsEnXcZeb/kfSMix3N4e7MMCpaBdo4KOzUhR8q4YwYgE/0DqaiowLlzuQw7dpL3Sd4ved+IyPEcHnTEpUuXtHkiZHByW3ZjybHkmHJsKYOI2kd5eTlyc3/QLgK4oy6TvoPI+yLvj7xP8n4RkXM4JegICSIFBQXw9w/QBg23lhxDjiXHZMghan/SQnHmzPfaANtbz5/1j0neD3lf5P1hSw6Rczn0qqvGGAyeCAwMVD8NuHq1TJv63N5KUS5j7dSpk3p4w2q1agOPOSaH6M4j8+vIFxG5QED+vm3d1vJ33t6XojuD7feUFhyps2SenIKCyww4RO3E6UGnhtFoRJcuftoEf1IBVFVZbzR71/T1y13IpYKUe1fJbR2k8pQm36KiQpSWOueSdSJqOfn7lbBjNJq0LykdO7prdU37z73T9iTQSR0qN+iUL3DSpS4hh115RO2r3YJODXd3Dy30eHt7qyBj0JYl4AgJPHIbB7lBp9y7SiqOW8+0TERERFRfuwcdIiIiIkdx2mBkIiIiImdj0CEiIiKXxaBDRERELotBh4iIiFwWgw4RERG5LAYdIiIiclkMOkREROSyGHSIiIjIZTHoEBERkcti0CEiIiKXxaBDRERELotBh4iIiFwWgw4RERG5LAYdIiIiclkMOkREROSyGHSIiIjIZTHoEBERkcti0CEiIiKX1SEgIPC69qQDcF09Cw7uoW0gIiIiuts1GnSKioq1jURERER3M3ZdERERkcti0CEiIiKXxaBDRERELotBh4iIiFwWgw4RERG5LAYdIiIiclkMOkREROSyGHSIiIjIZTHoEBERkcti0CEiIiKXxaBDRERELotBh4iIiFwWgw4RERG5LAYdIiIiclkMOkREROSyGHSIiIjIZTHoEBERkcti0CEiIiKX1SEgIPC69qQDcF09Cw7ugaKiYm2jM7i7u8NoNMHb2xuenga17AE3N3UySnX1dVRVVaKiwoqysjKUlpZqy0RERET2aLegYzQa0aWLH7y8vFSQqVABxorKykoVbqq1gCMk8Li5ucHDw0MFIIMKQp4oLy9X51eohR4iurPJ36/JZNK+zHTq1AkdO7prdU0H+T8Xc11VoFKHXrtWhatXr6o6ygKLxaLVaUTUfpwedAwGTwQGBqqfBlUZlGkVglQQ9pDKUSrLTp28YbVakZ+fr35W6FuJ6E4hX0r8/QO0kCN/3xJ4VA2jHq4XcG5m+z0l4EidJWGnoOCy9oWOiJzPqUHH17cLunfvpv3hl5W1rkXG29uoVaIXLlxEcXGRvpaI2lu3boHqb93PJVttWkrCXnFxIS5ezNfXEJGzOC3odO3aFT4+nVFSUoyqqip9bevI+B4fH191zCu4dOmSvpaI2oO04txzTw907NhRb8GhuqSF59q1a/jxx3Ns3SFyIqfURhJypI9evtG0VcgRciw5phxbyiCi9iFj7UJC7tPG0zHkNK5mvKG8T/J+EZFzOLxGku6qmpYcRwzKk2PKsaUMKYuInEtacnr0CFEf5Oyqsoe8T/J+yftGRI7n0KAjA49lTI6jQk6NmrAjZUmZROQ80l3FkNM88n7J+0ZEjufQoCNXV8nA47bsrroVKUPKkjKJyDlk4LGMyaHmk/dN3j8iciyHBR2ZJ0cuIW/t1VXNIWVJmVI2ETmWdL3I1VUck9My8r7J+8cuLCLHclgNJZMByjw5ziZlStlE5FgyTw4vIW8def/kfSQix3FI0JHbOMhVBTIZoLNJmVK2XHreWsboiXh5cjTu2PahwDBEDghDk7FO9nnQfOf+DnRXktYImceqeUwI6hWKnnUeIYHOb80IiRqJUdH36kttxRNdzaEI6qwvNoO8j3dUq5iqMwbHxSNxQgwizM39N9YZozFp1kQMZsVDdwCHzKMjVz917my70qppXggKM8PXQ19sSmUxcrLyUK4vNkXm1rly5UqrJxIcn7wTk3pnYfOoJKTq6+4o01KwJw7YNjwB6/VVN5F9Hi/EsjGvYZ++iqi15O+7W7fuzfyAHo7pCwchSF+64cpZ7N76B/x3rr7sUKGIS/o1foJv8X7yn3FGX9t6D2HC7KfR+dgivJuur7KTXExx8eIFrc5qXybEzEtB4hD1L1Ru1dYYvAwo/GYDFsxOQ6a2xoyYyaNhOr4W2w5rKxo3Lhm7Jocha1MsXtyiryNqJw4JOsHB96j/r9buS9W0KCS8NQkP2vOlwXICm36bgiP6YlNsc1S44fz5H20rXBWDDrUT+Rv38fHRl+xlCzr4sk4Y6PwQ4ibGIsJ6BO+u24O7d9rPlgcdUVJS0v71VexKbJ8ZghOrE/DqzgJtlTE6CevmDUXBn8bhxfctas0QLNk2B/57R2D6Om0XojteR29v4wJ5UtPVLvPRXL3aulk7u3YNUMcot+OS8h4Y+K+R6GZQTyuqUHmtGh3da78hVqp11dfc1Dq1YM3H0T1HYG9VIHdDLypqXYtO5JTFmB8Xhh/3fY28AfFY8tpw+P8Ygl+9+SpeeS4G/bsV4L8zzXj29Tl4OeE5/OLhYFiOHcaZmqFJxn4YP3sOXoqPx+RfDseA+4Fz/30KtZPA+2PozIV4LXGa2v4Y+rifhe8vFuDXEeew75sLtl0ChyBx/qtInDYRvxz+U9xr+RqHz+oB8qej1L5A5oef4mvbGvgNicfrv52JmZOfxmO9O6pz6YmR91/Fwa372vDbK/2jk6sbO3aUv9XmjNHphaghIcDfv8D/ZOmrKi7ipG84hkX44dp/fY1sWafCz6hnxuAXMUMxqF8vBFzNxumLthYGTadQDPzFaPwydhQeG9ATfiWluD9mDPp7fo2TqoIY+Mt4jA53w//IgiYUI54d2/j2XsMx4Vf94KP+Tob922jEPtQJfzl6Vr3GhJ/84t8wdlQMhg3qh7CuV5F16iJunMVN53AJnfr0geeFOr+b3Wz3ApObFbenoJixeCYoF39YvOtGXVGZ+1ecqwhAdUEOMrJ/hrkpY9A30Bddug3CYw/fq9WNwVJPDvdDcf9JmK/qnmE+W5DeQerLp/FA3j58fT5Wve7X6FtYgX9JfAOzZo5HTH+zqgz/iu/qJFu/ITOw6NUEJDyv112+T2LR8xG2+lffh6glHDZGx755c67oLaSXcGS9+nB+6UMcly8NwnICH76k1q0/gsuybC1Te9tHypZzaC2/kHCE9THbxsD4m9G3dxTGJg0FMg4hPRPo+9RvsHnjDAy8ehKH9x+DtU8sXn4zHupPWInC3PUrMemnBmR9sQ1bv8hFgPpDXrBgiLZVayZelIK5I7rjcsZ+fP5lLoLGvo5no8LQN8TftktoPN59bw6GmbLV8fcjo6A7YmZvxMq4xpvAjCMWY/28WJgtGfh8/xHkBI/HgqE3dRQQtZrchbx5IefWOkktVFVl65buPhzTE5/GTzqdx6lv/4bvLb4Y8MsETBxUM5bnXoyYOB6jwjvhxxNHkfl3oPfo0fjJfUHopo/p9esWhKBudScP9UHXHrfYbgqEuUdvPPZEONzzTuKbTOk/64oR8TMRp0LPj9/9DX87Y4Ffv6eR+OtB6KS9qLFzGIJ7WjwssIP+fravvDOFKFWh88kpUfXG/R1OW4vNu3PUszycVu9PyTVVHZ8/iczsHK1u1urJQeMxM9pD1XW7ceC4WqnVl+Ewa1VZMMy9+2FY4gxEFB/Dgd1SV8Yg8dU5GCibFVvdNQLBBXXqrueiautfolZwSNCRybCqq7Uesdv4DpsWL8LShcuw6aS+qqGTm7FEbV+4eLPa2z5StmMmMDPg7I4pWJiyFmsWJCH9rAnGSzswfalaTlmO6buyYLgnTP/jzcafUjdgzdwELNu4BakbF2Hh3jz4RTyKwbI5dCJ+NciAo5sS8Moq/fWzDqHEV3uxZuCzQxBWmI55CcvV9rV4e/bzWHjQisgnJuphqi4zJo+NgiHjfUybnaztvyzhdXxV3sLBhERNaJOLrToHoefDw/HsQ0GoOn8aMuSj92MPIajkKD7a8Gfs+vQzfPKHNfjjyUq131AVP5SooRgQXIJvPtqANLV91/Y/4N2/XIK7tAq3WEec/2sK/vc2dbwvs4A+Q/CTHvXLSN52ElW9IjGsu9rdAefQJu9na+1chFXb83Bf3GJsTd+Jre+txNwJQ+oEjSPYlnIAeerL6eVsVWdtSofEH41bNrZOScIyVe80PnbHgIpv3qytK9ceQWn3cAwbINsaq7uScKCEdRe1DYcEnWYpz0NuXtNjecrzcnGbXZzEKmOidRZY1TebyqI6jaryjcjLCNsXxwJkfbobGR1jMD5hBuauSMH8KPX1xs2g/uSVh80IsuYgI62mCUs5uwOZN/rmzHj0AX+UWjwxTL0+UX88IkEo0Hzjm1CtKIQEWvFDRhpqZy7KxJ8y2OhLd5agQW9g4UL1eDkeE0cPQmDxEaR9dABXVZQJDzLh6lV3/OSJkRilPx7wVi/yDURv9aNrsC86Ff0df6szcPnql6dxvk7PVvNdQ6Wltru+a58gmMoq4P5Q7TmM6iXj/rog8H5HncOdwIKDKQl4KmYcpq9OxdFLfoh8bg62bkvGpHB9l1uxWlFwmynTLBbbcGbN3hychwkmrcWnsborB58cZ91FbcMhQcdxLSr2sb9FyYGMMZifmob3Vj2PYRHh8Cs+ic9P1fnD9TfCcK2yts9fUyD1hS4EJqlbfUMQoV5/4+GtAlSu2s+2Ux0B8FH7VzS4ov9y7QGJ2oxcuNBSeV8uwvz56rFsP3KrVEgoOI1M7b/bQHSSHipjIMz3htQ+DBbk5ZdA5lfv5u2hckkVSmT3G66isg0nX9fKcPNEt7rncG8nWM5dQokqxxHn0Jr3s+3Jl7QtWDZ7CsbGJeMwIvDkxFh9myOw7iLHckjQqaqq1AbXtRcpW86hXT01AgN9M5EaNw4vJCTglaVrcbC4Ttv217nI8wpB30H6sjCOQZhcsKY5pCp3wOP8PkxXr6//WI4d+l61TiCv0IDgPv30ZZuRoRyjQ23vmvqgl0G0rXL1AHYfK0SX8KEYIV1COAm54NO98Fu8u2FDg8efta6tzAKL1roTIbvX6H6vCh/6c6XkasPE0bzxL1oZbsU4dtM5bEDaEfvOoXmu6+9n+xo9OwXvzKwZQ6grTceJH60wmoL1FY7wFXIuGBAaHqUvCxPG9mHdRW3DIWmkosIKD4/WDwZuKSlbzqFdXShFpcEf/g/o/czhcZgxqM4f7jepOHjKhMFJyZj6RD9EDojBy6tjEaZvFh/tO4bK/mOwJFYfnGzsh8R1O7FnXfzNc5GoYPRZRh6CouOR2N9Wpl/sYox9qFWDF4gaZZsMtPWttrn/939wpioIA0baBvp+8e1ZVPUchAlR+t9Np1CMmjYPC6cNhzZ8+C8nkYt78cizUeqjUN/+9EO2bbpTl4qAwH9C3ENqj85h+NnEIejdnBDyl29xpjoU0TVlwBM9n4jH6/PjMUL6pe04h+bpoL+f7Suj3ICI2HisHNdPn2DUHwMnrMRT4UDWt/WvmTf51uzTFo7h4y+yYHzsN3hnSoyqC/shZlYynuylbyZqJYcEnbKyMrg3c2SeV/+ReOaZ/uhak488AhD5zDMY2V/6b5pHypZzaFd7U/HJcRNi3krDnl27sSd5DEpP3xi6p+Rg/SuvIfWMP0ZOW4zFC55H2De/Q3qdfv/SNBkcWIC+CVuwJ10dY/tKjPbPQuo7Gxq93PLw0hVIPRWE0VKm2n/rFD98vrfZ17oS3VZpqUW7urHVrn6J/zyaB/eeP8WoPrL4R3zylQXmJ36DhfPfwMK5v8ZAnzz8ZdceaJNFXD2Aj/7zW1TdNxK/1bdHFB3FqTp/7pf2fom/FfvgJ2PUMV4ej0eunqy3/bbUOf2f7Udg6aHKkLFE82djogpe5//yKXbLZUZ2nENzyPso72d7y1mdjPVfWtD7+ZXYvkfVN3u2YMlzvVDyxQbMW1dTd+3Hx6pO8X9c7bMrGeP1ta2Vs3E2XtuSC/8RCaouXIzJPY9h1ad160uilnPIhIFy+4XQ0J64fDlfHdOe5u1IxK+YgsjGpk+/chQbZm/EUX3xduTeMep3wtmz6pthe3dfCbkFQwhw9pss3DRLhtEEo6rgagfgmfHyBxvxyJlFGLvgkL5O+CNsQAgMl7KRmWNHhdhUmURtQLqHe/UK0/7eHENuF9EVHlfOIze/sXm95JYLwfAql+29WzVZX1NMPUIR2NGC8zmXcHObS91zaPncY1JHZmdntU1wbBO2+sbHWohTx3Pq1E+OpOpCo6oL6xRmTvoA7w3KxsKxi3BQX0fUEg6ZMFD+YL28vLUJxaqq7Ol7zkNhh3sQ7F0FS/EVXLnxKMD3h/4Tu763f+I/mRX52rXqVt/+oc2UFSDvfEEjlWQ05n7wH5j2z9fwQ8ZxnOtgxuCJSRj3z17I3r4Ke07pu2nKUXD+AvKL7eyOu2WZRG1DPpzlrtuOu/O2FZbCIlwpu6YvN3QNZepv3La9O34yOLyFk/U1zVpShKLiMm0g9M3qnkPLWSwWlJS09+0f6rLVN3kXi+Gsr4qD532AddMewbUfvsa35zrCLPcZHD8Q3lk7sHJvvcqQqNkc0qIjjEajdi+cwkJtuj+n8fML0O4bU1r3q8Edyhg9A0unD0FEd308Qmkeju74HRZuOuakb1FELSchx2y+z4GtOvYKR9zMp+F3Yin+9+f6qruEBMacnB9QUdG6L5d3PWM0EhfHY1h4EIwd1fI1C/KO7cTvFr2Po6wMqZUcFnREjx73qmNWo6zMOf+lensb1e/hhnPn/q6vISJH6tYtEJ07d2nXqyzvVtLyfeVKkfpiVntTGCJqew6tnfLz82EymbQxO44mZUhZUiYROYd8SF+71rqum39U8r4x5BA5nkODjtVagQsXLsLHx9eh3/jk2FKGlCVlEpHz/PjjObT7BJ13GXm/5H0jIsdzeHuzDAqWgXaOCjs1IUfKuGMGIBP9A5HxJefO5TLs2EneJ3m//uHH5RA5icODjrh06ZI2T4Svr1+bdmPJseSYcmwpg4jaR3l5OXJzf0BlZaU29oRuJu+LvD/yPsn7RUTO4ZSgIySIFBQUwN8/QBs03FpyDDmWHJMhh6j9SQvFmTPfawNs7Zs/6x+HvB/yvsj7w5YcIudy6FVXjTEYPBEYGKh+GnD1apk29bm9laJcxtqpUyf18IbVatUGHnNMDtGdRy49ly8icoGA/H3buq3l77y9L0V3BtvvKS04UmfJPDkFBZcZcIjaidODTg2ZZ6dLFz9tgj+pAKqqrDeavWv6+uUu5FJByr2r5LYOUnlKk29RUeFdMU8O0T86+fuVsGM0mrQvKR07umt1TfvPvdP2JNBJHSo36JQvcNKlLiGHXXlE7avdgk4Nd3cPLfR4e3urIGPQliXgCAk8chsHuUGn3LtKKg77ZlomIiIiugOCDhEREZGjOG0wMhEREZGzMegQERGRy2LQISIiIpfFoENEREQui0GHiIiIXBaDDhEREbksBh0iIiJyWQw6RERE5LIYdIiIiMhlMegQERGRy2LQISIiIpfFoENEREQui0GHiIiIXBaDDhEREbksBh0iIiJyWQw6RERE5LIYdIiIiMhlMegQERGRy+oQEBB4XXvSAbiungUH99A2EBEREd3tGg06RUXF2kYiIiKiuxm7roiIiMhlMegQERGRy2LQISIiIpfFoENEREQui0GHiIiIXBaDDhEREbksBh0iIiJyWQw6RERE5LIYdIiIiMhlMegQERGRy2LQISIiIpfFoENEREQui0GHiIiIXBaDDhEREbksBh0iIiJyWQw6RERE5LIYdIiIiMhlMegQERGRy+oQEBB4XXvSAbiungUH90BRUbG20Rnc3d1hNJrg7e0NT0+DWvaAm5s6GaW6+jqqqipRUWFFWVkZSktLtWUiIiIie7Rb0DEajejSxQ9eXl4qyFSoAGNFZWWlCjfVWsAREnjc3Nzg4eGhApBBBSFPlJeXq/Mr1EIPERERUVOcHnQMBk8EBgaqnwZcvVqmHldVubZgczsd1El26tRJPbxhtVqRn5+vflboW4mIiIjqc+oYHV/fLggNvU8Fm2oUFl7WWmfsDTlC9pXXyGvlGHIsOSYRERFRY5wWdLp27Qp/f38UFFxGWVnru53kGHIsOaYcm4iIiKghpwQdCSIy4Li4uBBVVVX62taTY8kx5dgMO0RERNSQw4OOdC35+HRGSUmxNtC4rckx5dhSBruxiIiIqC6HBh0ZeNy9ezeHhZwaNWFHypIyiYiIiIRDg45cXWWxWNq0u+pWpAwpS8okIiIiEg4LOjJPjlxC3hYDj+0lZUmZUjYRERGRw4KOTAYo8+Q4m5QpZRMRERE5JOjIbRxkxmOZDNDZpEwpW24t0VpGcwQiHzSj/dqHIjB65gyMCdcXiYgcLTAMg+PikTghBhFmk76ymYzRmDRrIgazcZ3uAA6ZGVmufurc2XalVdO8EBRmhq+HvtiUymLkZOWhXF9sio+PL65cuYLi4iJ9TcsMXZSGuREnsWzMa9inr3OogXFIfLAUn2xKR44sD5iDD1cMAfa+gudWHNN2ISJyDBNi5qUgcUgQUG7V1hi8DCj8ZgMWzE5DprbGjJjJo2E6vhbbDmsrGjcuGbsmhyFrUyxe3KKvI2onDgk6wcH3qP+v1mYxbloUEt6ahAft+dJgOYFNv03BEX2xKdKiI41V58//aFvRQk4POtNSsOfxQueVR0RUI3Ylts8MwYnVCXh1Z4G2yhidhHXzhqLgT+Pw4vsWtWYIlmybA/+9IzB9nbYL0R2vo7e3cYE8kaAjZD6aq1dbd/+orl0D1DHK7bikvAcG/mskuhnU04oqVF6rRkf32t60SrWu+pqbWqcWrPk4uucI7I0ucjf0oqLWtej0HPIMHg28hINb9+GMtsYfQ2cuxGuJ0zD5l8Mx4F4L/uers6jbQWfsPw7zZr+IhITxiBnYF6YLX+PbPNu3Ixj7YfzsOXgpPt72+vuBc/99CvlqU+SUxZj/s57w9/HFfdFD0bfjpzh4KhZzU17Eo9pz/RBNHX9APJa8NhymM93xbwvnIGny03jswS4oPpyBHN70nYiaEBQzFs8E5eIPi3fp9Z2qg3P/inMVAaguyEFG9s9UfTQGfQN90aXbIDz28L34cd/XCJa6a7gfivtPwvzfzsQwny1I7yB10dN4IG8fvj4v9div0bewAv+S+AZmzVR1V3+zqvz+iu8u6QUpfkNmYNGrCUh4XtVbvTvijO+TWPR8hFZGnr4PUUs4bIyOffPmXNFbSC/hyPqZmPnShzguXxqE5QQ+fEmtW38El2XZWqb2to+ULefQtsyYmvIB5g41IuvL/fj8y2z4DJ2Dj1Li1Rbd429g8/KJiDRk48DuQ8hEOCYtT0aiNsYmCnPXr8SknxqQ9cU2bP0iFwHqD3vBgiHaSy/nZCHzvHozrlmQk3kSpy/I2mCYe4fB3EPbRT/+eIRZM23Ht/bChLc2Yv7j+nZ/M/r2jsKzc0bDeOYIPv/rBZgeHoe5y8a14zgjIrob5J0pRKlvOJ6cEoW6l3McTluLzbulMz0PpzNzUXJNVcfnTyIzO0erm/1CwhE2aDxmRnuoum03DhxXK7W6KBxmfzmC1GP9MCxxBiKKj6m66xisfWKQ+OocDJTNinHEYqyfNwLBBRn4fP8R5ASPx4LnohDWx1zvXIhawiFBx82tgwob9tys8ztsWrwISxcuw6aT+qqGTm7GErV94eLNam/7SNlyDm3q8XiM7G3BwRUJWJayFmtSlmP63HQU9B6BGbGygwmTRkfBeGoLJiQsV9vX4u2k2dj8VyuCBkWo7dn4U+oGrJmrXr9xC1I3LsLCvXnwi3gUg9XWnN3vY012gapBLuCAeu3N/d8mTB0TrY6fhmmzk23Hn52AzRkGDB43ozZswYCzuxLwyip1jqtewbSdWTD0Gogn9a1ERI3auQirtufhvrjF2Jq+E1vfW4m5E4bUCRpHsC3lAKQB+XK2ql9qxhIKt2xsnZKk1Y2Nj90xoOKbNzF9qV53rj2C0u7hGDZAtpkxeWwUDBnv36jbliUk4UBJCwdCEzXgsMvL7Vaeh9y8psfylOfl4ja7OJz5oRAYC0/i8y/1FeLkPmReMCH4oX5qYQTCQ4Gsr95H7cxBOUhdkIBXN8kwvgJkfbobGR1jMD5hBuauSMH8KPV1x82gqgB7jECve9QRv617fAu2ZeTAGtRLC0s2VlQW1DSLAaVZ6luawQAffZmIqHHqi1xKAp6KGYfpq1Nx9JIfIp+bg63bkjHpdld+Wq0ouM2UaRaLbTizZm8OzqsvbyatxScKIYFW/JCRVq/u/OQ4O6yobTgk6DikRaUZ7G9Rsp/ZV8WR4gIc1ZdtsmFRAcynk/y1BsDHC6i41RX1xhjMT03De6uex7CIcPgVq9B0qjl/yHJ8CwpufIXSXSpFJYMMEbUZ+VK2BctmT8HYuGQcRgSenKg1WztI43XnZRWeiNqCQ4JOVVWlChvt11gkZcs5tKWDp/NgvadXgy6gEQjpDpzP3a+ef4WcCwaEhkfZNun8evezzUXx1AgM9M1Eatw4vJCQgFeWrsXBYvvacmzk+CaYH5bWo1rmCGlpuoAT+jIRUUuMnp2Cd2baxgzeUJqOEz9aYTQF6yscobG604SxfYL050St45A0UlFhhYdHWw8Gtp+ULefQprYfxInKCDy1JFbvs/bH6CVjENkxEwdSZfkYPvk6D36DJiKxv61vWS7NXJ28GFOHqoUL0vLiD/8H9H7n8DjMGNTIH7LBiKBGb9dlO35QdHzt8fvPwNzHg5CX8RkOamuIiFomo9yAiNh4rBzXT794wR8DJ6zEU+FA1rfp2poaJt+afdrCMXz8RRaMj/0G70yJQeSAfoiZlYwne+mbiVpJDzodtDl02kpZWRnc3ZvTWgF49R+JZ57pj641+cgjAJHPPIOR/WVOnOaRsuUc2lRpGha+tROX+8zA1j27sWfPFiT2LUD60teRqncsZyavwPrjKgC9lYY96buxfUEMPI+/j/Uy/8TeVHxy3IQY2bZLvT55DEpPN+iH+nAnDloiMCl1Nz6cV7/lRmjH/1o/hhz/rVgEHN+AZUvtmV2IiOjWclYnY/2XFvR+fiW263Xckud6oeSLDZi3rqau2o+P92bB/3G1z65kjNfXtlbOxtl4bUsu/EckYPGCxZjc8xhWfdqwn56oZfQJA2U8zXVtLp2goNZPGCi3XwgN7YnLl/NVgLInQUUifsUURHbWF+u6chQbZm9sMDbm1jqoX0L9Tjh79mybd1/VkO6oUOTi6CnbpFo3MZoR0ccEy3eZyGk4QC8wDJEhwNlvslCor2q2po5PRNQq/ggbEAIfayFOHc+pM0DYkUwwGi0orVOYOekDvDcoGwvHLmKLNbWKPmGgbeCwBB2TqfUTBso8Nl5e3ujYUcbKVOlrm5KHwg73INi7CpbiK7hy41GA7w/9J3Z9b//EfzIr8rVr1a2+/UNTrl6+gLzLTVwGVlmM/PP5KG4sZ5UVIO98Qb1JBputqeMTEbVKOQrOqzruYjGcVcUMnvcB1k17BNd++BrfnusIc/REvDx+ILyzdmDlXn22VKIWckiLjjAajejWrTsKC7Xp/pzGzy8AFy9eUN8M2NRBRHRXMEYjcXE8hoUHwdhRLV+zIO/YTvxu0fs4yqqcWslhQUf06HEvrl+vRlmZc/5L9fY2qt/BDefO/V1fQ0RERP/IHHoNeH5+PkwmkzZmx9GkDClLyiQiIiISDg06VmsFLly4CB8fX4fOqyPHljKkLCmTiIiISDg06AgZFFxScsVhYacm5EgZjhyATERERHcfhwcdcenSJZSWWuDr69em3VhyLDmmHFvKICIiIqrLKUFHSBApKCiAv3+ANmi4teQYciw5JkMOERERNcZpQUdI19LZsz9oV0bJZeAy541M8Gcv2VdeI6+VY8ix2F1FREREt+LQy8ubIvPsdOnipwWXiooKVFVZUVlZqU02WHPncbkLuYzBkXtXyW0dPD09UV5ers6vkPPkEBER0W21W9Cp4e7uoYUeb29vFWQM2rIEHCGBR27jIDfolHtXyVgc+2ZaJiIiIroDgg4RERGRozh1jA4RERGRM+lBxzYmhoiIiMiVsEWHiIiIXNZNQUeuemrOJd9EREREd6o6QacDrl+XoHPNIbdqICIiInK2mxKNzGXTsWNHfYmIiIjo7nVT0LFarW16PyoiIiKi9tJI0LkKDw8GHSIiIrr71Qk6tkvMr127hoqKqzAYDNoyERER0d3KrbELrMrKSrX7ShERERHdzRp0XdmuvLJaK1BZWcGwQ0RERHc1Nwk2jSkpKYGXVydegUVERER3rZsGI9eQu4YXFRVpdxXnBIJERER0N9KCTm2OkeYdW/eVrCsvL1WPMphMRoYdIiIiuuvcskWnRknJFT3smNiNRURERHcVFXRsLTi3dl0bryOBx8fHxAHKREREdNe40aJzq+6rGtKNlZ9/Ua27rgKPD+fZISIiojteh4CAQK09R0JNbcuOJJzrt1xnMHjC29vWulNZWYWqqiptokG58/n1ppuHiIiIiJzmRtARzQk7wrbetk57pq8X16/XWdC3i7r72NhW3D4f3XYHIiIionrqBJ3awFLLtq427NTu05qwU+NWoafG7cMPERER0a0A/z/eDy8GgG8YFwAAAABJRU5ErkJggg==;" vertex="1" parent="1">
          <mxGeometry x="331" y="640" width="239.17" height="240" as="geometry" />
        </mxCell>
        <mxCell id="Z8TzTKAZUmlHIoP4XjIV-20" value="" style="shape=image;verticalLabelPosition=bottom;labelBackgroundColor=default;verticalAlign=top;aspect=fixed;imageAspect=0;image=data:image/png,iVBORw0KGgoAAAANSUhEUgAAAm4AAAMUCAYAAAAFZqsAAAAAAXNSR0IArs4c6QAAAARnQU1BAACxjwv8YQUAAAAJcEhZcwAAEnQAABJ0Ad5mH3gAAKuNSURBVHhe7N0LfBXVvS/wX147j71DXgSCyDZIxCbaQuhJPDQoBaUJekLpCWIBW4IeQA6PNopAEPFRHvJqyiNF4CIgAreU3FJy0XBQqApFwy2BVkLFUDAR2Qh57yRk53XXmpmQBwnksXeSCb/v5zO6Z83as1aGZM1/Zq1Z4xQQEFgDhZP6P2irRERERNSlOKv/k0GbDNgYtBERERF1VfXuuLWPs7MznJxkHNgRwV/t3UEiIiKiu0ebAjcnJye4u3uIxR1ubm5wdXVT0oiIiIjIcVoVuLm6usJoNMHT0wvV1dWorKwUS7X4XCmWGtTUsKuViIiIyFFaFLjJblBv7x7w8jLCZrOhvNyGqqoqbSsRERERdYQ7Bm4eHp7w8fERgVoNbtwoE/+v1rYQERERUUfSniptmsnkDT8/f+UOW0lJCYM2IiIiok7UbODm7e0jAjcTioutSuBGRERERJ2rycBN3mkzGr1gtcq7bBzLRkRERNQV3BK4yTFt8kEEq7WUXaNEREREXUiDwE0+PSofRCgrkw8h8E4bERERUVfSIHCTd9rk06Mc00ZERETU9dwM3OTbD+Q8bXLKDyIiIiLqerTAzQlGozq5Lse1EREREXVNInBzgnzNqHyNFbtIiYiIiLouEbjVKC+Ml+8e5QMJRERERF2Xs7zb5u7urrwwnoiIiIi6LueaGsDNzU0EbhzbRkRERNSVKQ8nyCdKq6t5x42IiIioK3OWk+46OTmJwK1GSyIiIiKirsjZyUmdEaRG9pkSERERUZelPFVKRERERF2feruNiIiIiLo8Bm5EREREOiECNyftIxERERF1ZU69egXViAUFBYVaUnv5Ivj798BoK8TFLy+jVEuFV18MHOADN1Qg/8JX+FZuuJl2q4q8Szh/WWS6macU3/zjEhrWUiuryW1ERNSd+dwfhnuN2koTbp5H/IPxUF8voPF5Sao9x9Tb5tX3AfT3b3hmKrmciUt52kqtlpzDiOzMAYHbJCzf8ySCi89gw7SVOK6kPYBnl7+Cp4JF2HbpfSxJ3IXzMvnRedj634Mg/pxuUfq3ZDy/+q/i0yDMWj8PUT0rcP6P/43X/k/dH8LAqUl4Y2QvZZ8LxD6/1dKJiKj7e3b5LnFe0VaacPM84jUWb7z9NAa6fYfjqxOw4W9aBnH2eWrRWjz7kFe9cw4QNXcLZv3w1jNT6b8OY9PS7UivPQ216BxGZF8dMMbNCyPm/loN2q7/Fdt+owVt9eVl4n8OHW64nPxa23gG73yQKa6C3DAwZhaitFT5hzjp0V7iw3dI38egjYjobnP207pzRnpOhZJWeLaJ80jpfuz69DvxoRcix03CPWoq8MMpiBZBGyq+Qurvbw2y6vb1V1wSwZrX/aMw/b9/pG2t57bnMCL7cnjgNvAXr2DKD33FX8AZbJufjKNN3TkuuoRt27c3WP7w8WVto/ibez8JqV+JP0rvQXhm6gNKWtR/PyWunuRVzR/rXT0REdHdIuP9unNG+ndq4Jb/ddPnkfNbtuP4dcAt+Md47kl5j6wvnh0XgUBU4NLhLdjfxLmpbl/JSHzrL7gm0rwGDqu7gVDrDucwIntyaOBmGD4PLz4ZDLeKSzi4ZmXTQVuLlGL/zuPKH03go5Mw9qGpeEbexm7mKomIiKih2t4bLzw0egoin4zHiGBx9X/9JPbubEGQ9VUpSrSPRJ3JcYGbxwN49vlB8BEfr322C+99pSY3qd8ovLtte70lCbP+XdtW66st+MPJAnG59AD+c27Uba+SiIiIGit9fzuO/qsC6BmBWU+HiRCuFBl7k5Ghbr4NX/xk/o+gDKcr+g4XlbR6WnIOI7ITxwVubl7w0h61Cfz3eExRezibVp6Py99errdcQUETlzbH3z6IsyJQc/NoxVUSERGR4jLe2y57b9zEeUR22hzEhk+1TU0IfnIX9uyRSzKmDPYVX/gOx/+8/dYx1S08hxHZgwO7SgtwdtfrWPnX70Sk1Rc/mTMT4dqWW3z3/5D4yiv1lpV47x/atvpK38fRc+ottm//tq0FV0lERET1fLUF6Zfkh1J88dF+8d/mlV6/hEv/kstXyPhwF1b+OqHpQK+l5zAiOxCBm4Mm4C3+Gkf/r/hlX/97HLWI9Z4/wvQXm3gap41sVewjJSKidqjW/t+M79JrA7HXsXLr+8hoPI8bUSdw6MMJqq+w+ffv41IF4BMxCfOGNzHjTa9/w/KlSxss8yaFaRuJiIi6MJ7DqAOJwK1G++hAX+3CtsOXUAFfhE+ahRGNYzevXgi+P7jB8mAfX20jERFRF8ZzGHUgB7w5gYiIiIgcoQO6SomIiIjIHhi4EREREekEAzciIiIinWDgRkRERKQTDNyIiIiIdIKBGxEREZFOMHAjIiIi0gkGbkREREQ6wcCNiIiISCdE4Oagl8wTERERkV3xjhsRERGRTjBwIyIiItIJBm5EREREOiECtxrtIxERERF1ZbzjRkRERKQTDNyIiIiIdIKBGxEREZFOMHAjIiIi0gkGbkREREQ6wcCNiIiISCcYuBERERHpBAM3IiIiIp1w6tUrqEYs2ioRERERdVU3A7eCgkItiYiIiIi6InaVEhEREekEAzciIiIinWDgRkRERKQTDNyIiIiIdIKBGxEREZFOMHAjIiIi0gkGbkREREQ6wcCNiIiISCcYuBERERHpBAM3IiIiIp1g4EZERESkEwzciIiIiHSCgRsRERGRTjBwIyIiItIJBm5EREREOsHAjYiIiEgnGLgRERER6QQDNyIiIiKdYOBGREREpBMM3IiIiIh0goEbERERkU449eoVVCMWFBQUakkdz93dHV5eRnh6eorPBri4uMLZWY0pq6urUVVVifJyG8rKylBaWiI+lyvbiIiIiO4mnRa4OTs7wcfHD76+PnByckZFRblYKlBZWSUCtSrU1FQr+eQ2FxcXuLq6wM3NTSzuyjZZ38LCfBHY1Sj5iIiIiLq7Tgnc/Pz8ERAQgPLyG7hx44YI2GzalpZxczPAw8MD7u4eyM3NRX5+nraFiIiIqPvq0MBNdon27h0kPtWgtLQUlZUV6oY2cnV1g5eXl/jkhKtXLexCJSIiom6twx5O6NGjB+67L1i5u1ZUVNjuoE2S+5D7kvuU+5ZlEBEREXVXHRK4+fr6IjCwl9KlWVZWqqXaj9yn3LcsQ5ZFRERE1B05PHCTd8ECAnqisLCg1WPZWkPuW5Yhy+KdNyIiIuqOHBq4yTFtQUF97NY1eie1XaeyTFk2ERERUXfi0MBNPohQXFzk0DttjcmyZJnqQxBERERE3YfDAjc55Yd8etQRY9ruRC2zRqsDERERUffgkMBNTq4r52mTU350Flm2rIOsCxEREVF34JDATb4RQU6ua59xbf3xxC+nYMxgT229ZWTZsg6yLkRE1B0NwvSlydiY3HBZ++Yscc4waXlaSt3X0qmDtPW2m7gqFYfTduClIVpCh4lFovj5E2O11WZ0Wv2GJGBn2iEcXDVBS2ha+NQl2Lh0GsK1dWrIIYGbfI2VfCOCXYT+GD8eGoHRU1/DtKGtC95kHWRd9C0KiTtSsXNhlLZOREQqf5gfDEFI3/pBmgF9fhiL2av2YOMLYVpaS6j7eqhf64bYTElKxcGkeG1NZbluQUnRVVzp8Jf69IF5YAjMfbXVZnRa/fIsuFJkVcqv1dTx8+sXipAHzej6t13isfaAqP+BJEzRUjqC3QM3+TSn+u5ROz2QcG4b3vkoBxXOPRD+bOuCN1kHWRd9P2FqgMlogLeHQVsnIqIGLMcxY+ZMbZmK8U8l4MAlICQmHmO0LI5i8DQoS31HVkzF2PHzsFvUoSvqtPpd2oN54+Pw/IqjWkLTx08/1Lori5bSEez+yiv5QIDJ5IXi4mItpXUejl+MaYN7amuCmyvc6oeXFTn48K3lSPlWW78Db29vWK3qBL32Ie+ALUDYl7/Fby8+jllxgxAk/sVKrp7E3t++iX3ntGyKMIyZOxVP/3sI/GWea+fw6XtvYf3R+nXxx8g5r2LKY2qeiqIsfLTxVaw/bgWGL8DOl6IQJH+pq2ywiVg4a38sfvWO+JpxECYmzMLYyCAYxWrT5RMRdWcjsHTfAkReT8GoFzZraZoXknE4zh/HlkzAGx+rSWGxCZj+zDCE9BBt6g0LTqdtx7J3jqNE2aru66HMtzB2sRZYKO3sNIwebNba52xkHNyM1XvOiO/Iuy1xCDHIk7baPud99hZ+sew4hi3cgcQHz2H55LdwTN0TjFHxWBgfjcG9TYAtD9mn07A5aQ8y1MKB55JwcCywb/4xmF8ch0iZT9Qx/U8btPJUxsETMHfmGHU7rLCk78OaJSnIVLZOw8bDcUBKAj7qmYDxyvnBhrwLR7Fp0QYc03bSsH7qz4H9k/Fn02/wwhPmJr/TWJA4vluftOHAhARsqs0zYSX2TxiA83viMG+PlmachrV7YmF4fypmvB2jlSXPY80fv5FvpiAx7BzWJFkwesaIm/9e6fuS8MZe9Se9lbY/ZGHfhH0wrZyFmH5NH0PJb8QsJD4bhYcCteN47jh2rd6AI9fU7VLDPOKY5JzBB1t+i92nxflZ+fcKuRl02srED5B/XD2mjX5vZB3OHtuN5euOIl/J3T52v+Pm6emJioq2j20rtVagUvusqKhERXmDlFaRdZF1sh/1Dpj/g/FInNAPuZ8dQtonZ1DsF4Xpq5MxPVTLJoK26W+vwGzxR2A9JfIcOoJLrqEYszAZS6PlL4FkQsybyUh8sjbPIXxeaMaY15PxktzP16dx5NBJZJeJX4qck8r2T7+Q3xP7XrMEUyINuPSJtm/PCExfvhLjZBRHRHSXM7rIM6YICLR7CGEi0Fg1Jwb3Fapt6ZGLBgyesBjb3oxRLn5vpbWzw4Ngyzyitc9BGPbcYrwWJ9vws/hUpJ2V1+F559R9/i1H+abBwwSDUSzKmqhL9BJse30CBhtyRJsu2uxTVvQZFo8la6aJUjQygPE0Y/SrE2G+kq6062dtWnm1Y9ZCp2H10nhE1u7nkxwYhk7DslVxDX6GgGHz8ewD+fhc1ul0HrwfjkXi8gk38zSsn3rHqM/wJLz0GJAh9/tZNtwHxOK1bUsQ08w5xZKWhTzPEISJYLPWuCGhMHqa8NAQEZzVGhuKEM88ZKXJ7lG1LPGjCs0fP4WhHyYljIAh86jYdhxZleJYTJ2PxKHa9lto+/b0R+SaBRgzQPwbid8Bg59ZHMMlWF2v29w8NRnvLYxFuNlfPQYGf5iHiGO0ve4cLv/NNml5cCMPedUmBA2MwpSlKzA9WM3TtNrfmxAEmUSwVySCvB5mhMcuwKbXR2h52scBXaUGVFZWaWut9699y/Hir+dgTr3ld8euQAkFKyw4/s7vWny3TZJ1kXWyN8M9wOfzJ2OeiNDXr16E5ydvRkZFCEbHq39hxvip4hfHhowtkzFjmciTnIR5k+fjwCUTIie/iEglVwQeDfNHSfoGLc8GLJ/5FnaLYO0ruflSGrYlfwqLCOQrrnyqbN+XLjcMw+ABBmS9r5Uv9z19Ow6kZ6Bu5AAR0V0qMBYLh5uBaxfw0SmxbpyA6bEhKDmRhEmijZVt6RrRfr/8vgV+Q+PwXFMnYqMbrmSdw5G3J+P5xUk32+dj10Rg8u/RIsNJ7BNpF4rEx6IsZfu2Q9nKVxuKwNzJEfD7Ng0vT56HNSLf+mUzMSnpJCpEcDQ9vvZCXjKg+PirWnlqu55RJsp7TAuEhg9CiCELB2r3s3oeXngnFZ+fatjyG8tOYqGWZ83iqVj2cR4MocPwrLa9KX4+V7Ft8kwsV+qXgPHz02Dxi8DTz4vj2JRLR5B51YCQR2ofNBiB8P4G5F8TZfUPx0gtdeIjITBcFcfxlm7ZOxw/EQBm3zx/voVfTU1Bpghkw6PvNN47CGaXQ5gXF4unnorDmhMyMhT1jJ2Kicr2WMx6StRJBPXZqfMwdozIF5OAfRfEidYQgjEz4pUA95GoUGWMXUl6Ep4aPxm/GBuHTel5yBeHOmhoEPBOAp4ak4osZZ/i30TuR7mDqZ6fgWwciIvDL56dgKcSRL5CC4qND4mt7Wf3wM3FxRVVVW0P3G4ROgXPPd4PbkrQtgrvnS7TNrSMrIusk91dOom363dLlqTgyFkrjAMeUX5hRz8kfjEKxVVEioi2b8rE+r9kwRYYitHD5XoerDfEH9kPxmH2kyHaQMyT2CaCsQO37fIsVm4rm4ctwcQoeVtbEOWvX7an2dvaRETdVnAsDiqDxNXl8O5ZiDRacGTHb6Fc68aEi4DHgs/fSWvQXZb5p9PiYjcIIU3FAiVncEAERsu1NtxoDkP48BAYxTnZ4B2gpLVI8DCEBIpT+4ktWnemquTQH/G5CHzCItRwQpWHzIP1col2/cK39cortIlww4xhb07AMLMa8JWkiIByT213ryov80CDstKv33moUMnZI9hXfyfntiBdBFvmsBgtobEz+OifIkgLDsc4uTrkEZh9LMjYcwYWn354RHliNQ6Dg0Uw98+PkCFXW6PsAjIO1Tt/lnwNqzj9G5zvdCPGhrNpG7QuaCvSFotjIc6XMJjxkIy3ox/BQHnSLDuHD9bVdp9mYtOf1M+GAYPwU/F/W7X8kvh3fygWiZNiED7QgH2vTMD452fijT0tuUUShMjFszBueBjM2RswY5y4AHh5w82u8/awe+Dm7OyMmppqba2VfCPwxI8fRIOOzXN/wV9O/BUHklsftEmyLrJO9lZy5WyDPxTp02/FH4ePHx4QnwO8xS/X9WwcUTfVuVqCCnlL102unMHypXvEL5WI8hOSsffwIRzcuwWvTRjU4Lb3rfZg4bqjsJgiMOX1Ldiflor97yVh9ghOOExEdyGtq03pbrskT7h5OLZyMpbXnvgDjaLVDULMlkM4LNrZm8uWGJEq2mNvNVtjYeMXY+teEQiKvPu3JmFl4jgMbO3Im5AAeIsAIi+r/kW8dAZ5MslFXVNZYb3dAwN7XsX6oxZ4R8bjta0pOHwwBTuTZmGkCAzrs5Y1defv9q7kpGmfalnx1Xeigj3NN++eNZb+2QWUeA5A+BMiwBseiiB5hzP1I2RdC0KYvOP5RLg4XmI/n53UvtEKNpv4V2yLPFxtMAzOogR8cmiSf3/xv/5+6vm18f4PZeOK/L/BIP69gGOrduCYHO9mDMHI+ASsTN6Dw2kp2PpmXF33dpM2Y31KFkqqxG/ckFhMX5SErfvluT0Zs6Pq311tO/tHNG3VPxYvL56CuGem4Bc/0NIUF/Hhu+/hgy9bH7Q5kpvvra/UeqS3CJwK8/G1XJE3HT2N4tqokQZ/pMK57fjV+GiMmiii+LdTcbrQX+mPXzbp9v/AJYfewvNjozH2+QSs2XkcXzuL4G9h0m36/4mIuimtq03pAk3cJy6G/RE5YVpd+6t0AmXjgGgzR426dZnxtpKroaGL8frUKARcO4JNS2ZivMwbE4cP6g3DapEKeZfMALdbZqYywdD4fHBHVqQtm4qxoh7PJyRh2/FsuA+MRWLSAm34TduZ/G+dv+6+AHEeyrfgc239Fh9+jvMlJpgjIzD6wSCUZH2KdJzEpyJIDXowBpGR/WAsuYDPP9TydwgRoDWYDqV2VgltvGOx/PdQNbh3NzwIDe6jlqThjYnRGD9THOf9R5FxKQ82F/GzDp2GxIURWqamZb49E2PjpopzegrSTmQiu1CU5SfP0b/BxNvflWkRuwdu1dXVkFNwtIoM2maPxv3iSqbo7wew8+9auh3Iusg62ZvBHN7oQYAIPBoifsmvZ+NTsfZBlgW4Jww/bTR2IjJiAIy2bJyVv8hGM8KejEWMzHMtC8dSNuCVqVuQXmjAfQ/e5hcjMATD4mKVP9SS7Eyk7ZL9/4dEsxQEc/vnjiQi0q+SPdj0oQWGAdGYpTxEIPwtR+0SfbrRBXFwFGJqh5s0Nqg3/JCFD8SJe9/HWdrTgCNgrjfpQYt8fBaXygwYGNloVlzjOITcA1iymw2LbuE3MArjYuW5wYrsL9Kwe1kCpryfDfTu1+7JaoMeHNnwTpIxHmH9mu5dqpOK9K9s4rvxGNzPhvNn1Kdxj5y5AFu/QZgigjnbV5/jgJLaUUx4aETdAyfGuJF4SAmaLcg6Lv53/II6FtwnFI/efFBQnJsfVce04WqOCD7NiHluFhJXJOFZszjOyW9h3tQJWJ+u3jUNEuf/hgww1BYYGYfZc5dg7ctRyE7ZjDWLE/D85FRxfhZkd60dbq7YPXCrqqqEi0srLiM8f4SZL6hBm7L64M+x4nfrsE5Z1mDJq4mYGSvvb7aNrIusk73Z3ELx7PJpiJS3qAMjMHHVixgWaEXG4d3KL3n25jRx1Sf+8ZcsxhhlLIK4Apy0EnOH+yP/5AHsljvBSEyfOQuzF8xS96PkUX/Jcq9fUHLI277KOLjvPY5xQwYpYyUQMhFzXpiFuUtjYZa/LCIAjJkVIZolK4ovK18iIrprZSbtQ0aJCeE/E22rTDi1AR+cA8KeTsbSSRHKCdpojsFLry7ASwsT8NOmIrfLJaItNyNy7gj1hK6086LNb3TnrFgOOBZByuzhgxCmjTtrKAX7PrPAOCQea6fWK3ud7HITF+y7z6jZWuCB8bMwfc6LWDpWDTblfuZEBonoqkTt5msHW89hSFyknlNu1s9gwad76uZca8q+01mw3ROiTMNxOkVLTMkQayLtHhuybiY27c7Hr/WMkQnYtVW+RWMLdk1Vhx7Zzh3BO7Ib+tJ2/FF5YMGEyIQd2LpiCZYm78Fr4tws78plfrABGSLMMjw4AiOHhGHMrC1YOlecpxcm4TntbRzZmbXdyup4c8hAb8sWbJwvgvPv+mBwdATCoiZiddICzJ6ZgKW/EwG/zGanu492D9zKy21wdW1F4Bb6EMw9tM+Cm7trvcUTAff0w4D7mnmqpQVkXWSd7K3ib9vxgUsslu4+hMO7l2DK9w3I3PMm3qh9GEFc9S18ZQ+yPKIwW45FOLwHS+NDUX5iM15/XftDKNmOTTtOIu8ebT9anmKRZ8262jEKZ7Bu51FYPCIwfcVKvPasOBYnfot1+7Ng+OEspe/88P4teGmECdn7f4s3UrWvERHdtVKxIU0EFL2jxMWxvI9kxe7ERdh93oDI+CXKeOL9WxMQ45ONA8texe6mbimlvom3j+YhKHqBkl+28+O9jiKt9ppas3tjCjLLQjBm0Uqsmi1Hv98qfVkC1n9sRcj4xmXPx6ZWTIKbnrQBB+TPMHML9mv7GWkU+1n1ZrvvamW/vwVZYeo5RalfYB6OrUvAmjvNDborHVnyFJtzDn9WU4RUZMouZVsWPt+lpjSnJcevdaxI338UxYEicBwoAlwRjpRcSMPyxD3anUP5wMJvsOmERe36HBKByIH+MFTlIXPXfPxql3oOP/Dmb8WxFgGeUQTv0bEYMyIMfi5WZH+8AXNvnp/3YNMfM1FSBRgCzQj5YTiGXdqANVtOIrvEAL+HR2DM2BhEBouALz8Tu19v/7+T1CUm4L0/9mXMerI/PFGEL959A8kn7Deezf4T8DacpNFv4CAEm0pw6VTtrfRbqXkqkPtlpvjH1BIbEL88Dw9AgOF2ecR+zGbYsrPr3bb2R8iQfvAWKbcrn4iINHKIyoN+cLfmIEOemO9EBADh/Ywov34BmdnahXkTjKJ9Noj2+bbtcGvLbo5WJ7R3P4raSXvlWD/tXCR+ivNf1D/XOF6Ljt9tqT9HiAzcVsThlQ/V8yNyziCr3qS6DWnn0NseRy2P7XbHRB63IBR/0fA8LJ9EHtjTDcW3rUPr2T1wk6+X6tv3XuTlXddSWuZm8NbKNyPcib9/T1y+/A3Ky8u1lPZqYnZtIiIiXaofuGlJutQ4cNOSuyEHdJWWK1NwuLndaa6Vhv6Vugob/s9Z5HybA4udbh3JOsi62C9oIyIiIuo8dr/jJqndpUYUF8spkTuPt3cPWK0lduwmldRbyaai2982JyIi6vpa0qWoB7VDh24/5Kg7cEjg5uzshPvvDxH7zEdlZdvfW9oerq5u8PX1w7/+lYXq6hotlYiIiEi/7N5VKslAKTc3F15eXlpKx5NlyzowaCMiIqLuwiGBm6R2TzrB07Pjgze1TCc7d5ESERERdS6HBW7S1asWZZxZax9UaA9ZlixTlk1ERETUnTg0cJNPc1osV9Cjh48y5szRZBmyLFkmnyQlIiKi7sahgZtUVFSE3Nzr8PHxdeidN7lvWYYsS5ZJRERE1N04PHCTCgoKcO3ad8o0IY4Y8yb3Kfcty5BlEREREXVHHRK4SfIu2NdfX1LujNmr67S2a1TuU+6bd9qIiIioO+uwwE2S486ys79GcbFVmWOtrQ8uyO/I78p9yH3JfXJMGxEREXV3DpmAtyXkJL0+Pn4i+PKBk5MzKirKxVKBysoqVFVVKa+qkuQ2FxcXuLq6iIDNTSzuyjZZ38LCfM7TRkRERHeNTgvc6pMvpvfyMsLT01N8NohAzVUEdurNwOrqahHIVaK83IaysjKUlpbw7hoRERHdlbpE4EZEREREd9ahY9yIiIiIqO0YuBERERHpBAM3IiIiIp1g4EZERESkEwzciIiIiHSCgRsRERGRTjBwIyIiItIJBm5EREREOsHAjYiIiEgnGLgRERER6QQDNyIiIiKdYOBGREREpBMM3IiIiIh0goEbERERkU4wcCMiIiLSCQZuRERERDrBwI2IiIhIJxi4EREREekEAzciIiIinWDgRkRERKQTTr16BdWIRVslIiIioq7qZuBWUFCoJRERERFRV8SuUiIiIiKdYOBGREREpBMM3IiIiIh0goEbERERkU4wcCMiIiLSCQZuRERERDrBwI2IiIhIJxi4EREREekEAzciIiIinWDgRkRERKQTDNyIiIiIdIKBGxEREZFOMHAjIiIi0gkGbkREREQ6wcCNiIiISCcYuBERERHpBAM3IiIiIp1g4EZERESkEwzciIiIiHSCgRsRERGRTjBwIyIiItIJp169gmrEgoKCQi2p47m7u8PLywhPT0/x2QAXF1c4O6sxZXV1NaqqKlFebkNZWRlKS0vE53JlGxEREdHdpNMCN2dnJ/j4+MHX1wdOTs6oqCgXSwUqK6tEoFaFmppqJZ/c5uLiAldXF7i5uYnFXdkm61tYmC8CuxolHxEREVF31ymBm5+fPwICAlBefgM3btwQAZtN29Iybm4GeHh4wN3dA7m5ucjPz9O2EBEREXVfHRq4yS7R3r2DxKcalJaWorKyQt3QRq6ubvDy8hKfnHD1qoVdqERERNStddjDCT169MB99wUrd9eKigrbHbRJch9yX3Kfct+yDCIiIqLuqkMCN19fXwQG9lK6NMvKSrVU+5H7lPuWZciyiIiIiLojhwdu8i5YQEBPFBYWtHosW2vIfcsyZFm880ZERETdkUMDNzmmLSioj926Ru+ktutUlinLJiIiIupOHBq4yQcRiouLHHqnrTFZlixTfQiCiIiIqPtwWOAmp/yQT486Ykzbnahl1mh1ICIiIuoeHBK4ycl15TxtcsqPziLLlnWQdSEiIqK7jT9ChoTAT1vrLhwSuMk3IsjJde0zrq0/nvjlFIwZ7Kmtt4wsW9ZB1sW+BmH60mQsnTpIXR2SgJ1ph3Bw1QR1PXYBNiYvwBh1zc5ikZicjMRYbZWI6K6mtscbRbtYf1n75ixxzjBpeVqqUdveDhNXpeJw2g68NERL6DAtO0d0Wv0any+bET51CTYunYZwbb1l1J99Y/ISTFd+LjOmJ+/AxhXJ2LZUPSBj5qu/H/b4N75V3e+io8/RDgnc5Gus5BsR7CL0x/jx0AiMnvoapg1tXfAm6yDrYl/+MD8Ygof6ad2weRZcKbLCct2irvfth5CB/dBHXbOzPjAPDIG5r7ZKRHRXU9vjkL71gzQD+vwwFrNX7cHGF8K0tJZo1La30JSkVBxMitfWVPJ8UFJ0FVc6/KU+LTtHdFr9Gp8vhaaOn1+/UIQ8aG7lnTL1Zw8ZGAqz8k+Yh2JteH1xkVpen/5ye+v/jVtG+13sgHO03QM3+TSn+u5ROz2QcG4b3vkoBxXOPRD+bOuCN1kHWReHPmF6aQ/mjY/D8yuOaglERNShLMcxY+ZMbZmK8U8l4MAlICQm3kG9H3UMngZlqe/IiqkYO34edos6dEWdVr8mzpdNHT/7sGJ3QixGjYrGL1ac1NK6B7sHbl5eRhEwtf3VUw/HL8a6362rW5J/j5cf7wc3uVEGbxN+jbh7lKwtIusi6+Q48Vh7IBVrn9NWm2CMXoydB1KwNSFCSwHCYhOw9r0UHBTfPbh3C5Y+F4WGtTSJn3Uxtu4V20WevVsWY1yotomIiG4jE+v/li0a334IH64lCXdudxsxDsLERcnYuU9th/e/l4zXJgzSvqO2/WOCxcfgWGX7zoVRypZhC3fg4I4FGKasqYxR8Vi6ZY9a9r4d2LhoAsLrF/5cktiWhCmhcXitNp+oY115KuPgCXXbD+zB1kVxuPW+YhjGLdqCvUqeFOxMmoVh9XbSsH615zB/jJyT3Ox3Ggt6IVnkS8L0+nkmrMR+8d2V9XtCjdOU/W98Qc70UP982fzxq2WImtXg3+u18a25g6rdzWtiv3VMiHldHAuRZ/+OxRijxRZ+I2Zh5dZ6x/jNaRgZqG6r1eDfYW8yZkd13BRkdg/cPD09RbDU9rFtpdYKVGqfFRWVqChvkNIqsi6yTo6jXi0YmrlgMEYvwba5UXA/vQVzktSoP0z8wq+aE4P7Ck8i7dAhHLlowGARpG17M+bmH2jYCyuwRDQqAdeOK3kyrKGY8sYIB3XBEhF1L0YX2SjbYCtW11vS7jYUhulrlmDK8CDYMo8o3/m8MAjDnluM1+Jk1+xZfCrSzsruxrxz6j7/lqN80+BhgsEoFmVNOw+8PgGDDTk4IvKlnbKiz7B4LFkzrS7oEicRg6cZo1+dCPOVdLG/Izhr08qrHTMVOg2rl8YjsnY/n+TAMHQalq2Ka/AzBAybj2cfyMfnsk6n8+D9cCwSl0+4madh/dRzWJ/hSXjpMSBD7vezbLgPiMVr25YgpumDA0taFvI8QxA2VksQxg0JhdHThIeGxGkpwthQhHjmIStNdlfWP182f/wUhn6YlDAChsyjYttxZFWKYzF1PhKHattboPZunrdH0ydoeZ6dHRUEg0s2PnjrTRz4FjBPTcZ7C2MRrva3Ai7+MA+NQ2JyvWMROgvr3orHsGB/9WcxhmDMwsl4oOli7M4BXaUGVFZWaWut9699y/Hir+dgTr3ld8euQAkFKyw4/s7vkCIObkvJusg6dQY1aIsAToirqMVpKFESJ2B6bAhKRNqkmW9hffIGrJk/GS+/b4Gf+OV4Tl59GOOVPBXpdXmWJ0zAG38Xm+Q+iIioeYGxWDjcDFy7gI9OifWWtLuNGd1wJescjrw9Gc8vTlLbYfHdY9dEYPLv0SLDSewTaReKxMeiLGX7tkPZylcbisDcyRHw+zYNL0+ehzUi3/plMzFJXMhXiOBoenzD8XnFx1/VykvCvOnbkVEmyntMC4SGD0KIIQsHavezeh5eeCcVn5+qGzMmGctOYqGWZ83iqVj2cR4MocPwrLa9KX4+V7Ft8kwsV+qXgPHz02Dxi8DTz4vj2JRLR5B51YCQR2pvr41AeH8D8q+JsvqHY6SWOvGREBiuiuN4S7fsHY6fCACzt0zGjGWiPslv4VdTU5ApAtnw6ObunrWOEsjHibohD+nr5mPTOZkai1lPyTQrMncl4KkxsXjqqQTsu2ATBygCzym9ZiZMmRENs4v4mH8Sa+JknjjMO2QVQavch+PZPXBzcXFFVVXbA7dbhE7Bc7KrVAnaVuG902XahpaRdZF16miGaHElJ/+R6wdtUky4+MOz4PN36qUJmX86DQuCECJ/J8fKP06RJ6VhnvT30kUeIiJqQOtqq10O756FSKMFR3b8Fulye0va3cZKzuCACIyWp1iVVaM5DOHDQ2A0iPbdO0BJa5HgYQgJBLJObEGmliSVHPojPheBT1jERC1FykPmwXq5SlJw4dt65RXaYIMZw96cgGFmNeArSREB5Z7jDX6uvMwDDcpKv37npxBKzh7Bvvo7ObcF6SLYMofFaAmNncFH/xRBWnA4xsnVIY/A7GNBxp4zsPj0wyPKk51xGBwsgrl/foQMudoaZReQIYKhm0q+hlWc/g3OdrgR02ccXr8ZtM3EK7XlRD+CgfLuSP45fPR3N4QPGSQWN6R/ek45vn73PQIjxL/nPbIONmT+eRHSlGNmRca6NJxtXXjSZnYP3JydnVFTU62ttZJvBJ748YNoELSe+wv+cuKvOJDc+qBNknWRdepYIRiTEAU/FxuKr2Y3+INCoFH8sgQhZsshHD5cb9kSI1IN4g9U5PEW/xe/CHnySrG+SyUilYiIGtC62pTutkvywbg8HFs5GctrT8gtaXebEDZeHWcs8+7fmoSVieMwsLV3VUIC4C3b86zGrfcZ5MkkeefmJiust3tgYM+rWH/UAu/IeLy2NQWHD6pj0RqPv7KWNXXn7/au5KRpn2pZ8dV3ooI9zTfvnjWW/tkFlHgOQPgTIsAbHoogeYcz9SNkXQtCmLzj+US4OF5iP5+14eEAm038KzqGMbh2bjdRRla9Uvr7qb1afhGYvWIlVtYu8do4Q78giPAU/spkFTZYr8r/1zqHq/naRwfr6Iimef1j8fLiKYh7Zgp+8QMtTXERH777Hj74soNCWbuwISt1EdafsMI89lUsja53K1y5GZmNA2OjladdGi8z3q7NY4Kp8e17canXOZ2+RERdmNbVpnSBJu5Dps0fkROmiVOspiXtbmNDF+P1qXKc8RFsWjIT42XemDh8UG8YVotUyLtkBrjdMjOVCYYGQVtLWJG2bCrGino8n5CEbcez4T4wFolJCxCp5Wgrk/+tc5vdFyDOXfkWfK6t3+LDz3G+xARzZARGPxiEkqxPkY6T+FQEqUEPxiAysh+MJRfw+Yda/q7Clo2sbBngi2D+jXpj14rlv5Vw9TiWz5+HeY2X1zeLY1EsY0pVg3+/3vDvoLFMdg/cqqurIafgaBUZtM0ejfvFlUzR3w9g59+1dDuQdZF16ljZOJ18EgcW/wb7LpgQOWcFptc+Efq3HPXW/NP1xzUIwVGIiTKrUb2WJ2xMw7EFxqcHiFQiImpWyR5s+tACw4BozFIeIhBa0u42Nqg3/JCFD2YmYd/HWVBvpoyAuafyoeU+PotLZQYMjGw0K6txHELuASzZzYZFt/AbGIVxsXKclRXZX6Rh97IETHk/W8QM/Vo5We2tgh4c2fDpVGM8wvqJw3nlbMNeowZSkf6VTXw3HoP72XD+jDrNx5EzF2DrNwhTRDBn++pzHFBSu46Sv+3GjDm7RYAvVuTYtfnaAyrHL6jDkXoPQHjZGWScUpfzgSMxLuZRDHuwtzgWx5GlZDLhoSfqHgoxRj+Oh+w9bWwz7B64VVVVwsWlFZcRnj/CzBfUoE1ZffDnWHFzOpA1WPJqImbG9lc3toGsi6xT58jEppfELwdCMK42qj+1AR+cA8KeTsbSSRHK7VqjOQYvvboALy1MwE+VPLtx7LwN5ujf4LWxslERVzTRCVj3HyFyp0REdBuZSfuQUWJC+M9mqXeiWtLuNna5RJykzYicO0LtVguMwMRV0xDZ6ORcLG+/iCBl9vBBCNPGnTWUgn2fWWAcEo+1U+uVvU5O45GFY7vPqNla4IHxszB9zotYqpwX1P3MiRSX8yUluKJmaTNbz2FIXBQLs9jxzfoZLPh0z+3nKN13Ogu2e0LEWS4Lp1O0xJQMsSbS7rEh62Zi0+58/BxEBPgL151Ux64Nnao+KXxpO/54QnadBiFmxR6sXTgLL725BbsSYhA5IhaD+8q+0Wy8cyRTuTNnHDwNu7bKtyXIPIPgVnsnzsHsHriVl9vg6tqKwC30IZh7aJ8FN3fXeosnAu7phwH3NfNUSwvIusg6dRrtlyNf9pkvjxd/tFbsTlyE3ecNiIxfgr3K2IkExPhk48CyV7FbubTJxqZ5byEtx4RhM7dg/2E5B9wwWP/vEbGFiIhuLxUb0kRA0TsK02fK+0gtaXcbSX0Tbx/NQ1D0AiX/4d1LMN7rKNIuaNs1uzemILMsBGMWrcSq2fJp01ulL0vA+o+tCBnfuOz52NSKSXDTkzbggPwZlPOCup+RRrGfVW+2+65W9vtbkBU2C1v3a/ULzMOxdQlYozxteRu70pElT7E55/BnNUVIRabsUrZl4fNdakpzWnL8HKXk0Ft4WwnURJD/nOwZsyJt8W+w6YQFNk9/hIlgLWaoDJKtyD6UhDnr1DNwya5Xsfz9LJRUySBXvi0hCMWfJItztrLZ4Zx69QqqEQsKCgq1pPbx8/OHyeSF4mJt8pwWuD/2Zcx6sj88UYQv3n0DySfsN57N29sbVmsp8vMdNcyxHYxmhD3oB3drDjLON10/+STTwJ5A7peZyG7+fjUREbVEC9rdBgJDEN7PiPLrF5CZ3fzjYUazGYbsbK1LtRmtLbs5Wp3Q3v0opmHj4TggRY71M8H88AAEiJ/i/BeNHqxzsBYdvw4lX1DfD9622x0LNQ9yziDrmpbUAeweuMnXS/Xtey/y8q5rKS1zM3iryMGHby1v1Vxtt+Pv3xOXL3+D8vK2v82BiIioe6ofuGlJ1KU5oKu0XJmCw82tdc8//it1FTb8n7PI+TYHFjuF3LIOsi4M2oiIiKg7sPsdN0ntLjWiuFhOidx5vL17wGot6ZrdpERERJ2uc7r7qO3sfsdNKizMh7u7B1xdlVfDdwpZtqyDrAsRERE1JQ9Zpxi06YlDArfq6hrk5ubCy8tLS+l4smxZB1kXIiIiou7AIYGbpHZPOsHTs+ODN7VMJ3aREhERUbfisMBNunrVoowza+2DCu0hy5JlyrKJiIiIuhOHBm7yaU6L5Qp69PDpkPFusgxZliyTT5ISERFRd+PQwE0qKipCbu51+Pj4OvTOm9y3LEOWJcskIiIi6m4cHrhJBQUFuHbtO2WaEEeMeZP7lPuWZciyiIiIiLqjDgncJHkX7OuvLyl3xuzVdVrbNSr3KffNO21ERETUnXVY4CbJcWfZ2V+juNgKX1+/Nj+4IL8jvyv3Ifcl98kxbURERNTdOeTNCS3h7OwEHx8/EXz5wMnJGRUV5WKpQGVlFaqqqpRXVUlym4uLC1xdXUTA5iYWd2WbrK+cXJfztBEREdHdotMCt/rki+m9vIzw9PQUnw0iUHMVgZ16M7C6uloEcpUoL7ehrKwMpaUlvLtGREREd6UuEbgRERER0Z116Bg3IiIiImo7Bm5EREREOsHAjYiIiEgnGLgRERER6QQDNyIiIiKdYOBGREREpBMM3IiIiIh0goEbERERkU4wcCMiIiLSCQZuRERERDrBwI2IiIhIJxi4EREREekEAzciIiIinWDgRkRERKQTDNyIiIiIdIKBGxEREZFOMHAjIiIi0gkGbkREREQ6wcCNiIiISCcYuBERERHphFOvXkE1YtFWiYiIiKiruhm4FRQUaklERERE1BWxq5SIiIhIJxi4EREREekEAzciIiIinWDgRkRERKQTDNyIiIiIdIKBGxEREZFOMHAjIiIi0gkGbkREREQ6wcCNiIiISCcYuBERERHpBAM3IiIiIp1g4EZERESkEwzciIiIiHSCgRsRERGRTjBwIyIiItIJBm5EREREOsHAjYiIiEgnGLgRERER6QQDNyIiIiKdYOBGREREpBMM3IiIiIh0wqlXr6AasaCgoFBL6nju7u7w8jLC09NTfDbAxcUVzs5qTFldXY2qqkqUl9tQVlaG0tIS8blc2UZERER0N+m0wM3Z2Qk+Pn7w9fWBk5MzKirKxVKBysoqEahVoaamWsknt7m4uMDV1QVubm5icVe2yfoWFuaLwK5GyUdERETU3XVK4Obn54+AgACUl9/AjRs3RMBm07a0jJubAR4eHnB390Bubi7y8/O0LURERETdV4cGbrJLtHfvIPGpBqWlpaisrFA3tJGrqxu8vLzEJydcvWphFyoRERF1ax32cEKPHj1w333Byt21oqLCdgdtktyH3Jfcp9y3LIOIiIiou+qQwM3X1xeBgb2ULs2yslIt1X7kPuW+ZRmyLCIiIqLuyOGBm7wLFhDQE4WFBa0ey9Yact+yDFkW77wRERFRd+TQwE2OaQsK6mO3rtE7qe06lWXKsomIiIi6E4cGbvJBhOLiIofeaWtMliXLVB+CICIiIuo+HBa4ySk/5NOjjhjTdidqmTVaHYiIiIi6B4cEbnJyXTlPm5zyo7PIsmUdZF2IiIiIugOHBG7yjQhyct2OGNfWHFm2rIOsCxERdV/GwbF4acUW7D2QioMHUrAzeTEmDjZpW1svfO4OHD6cipUTtASiLsQhE/D2798fVqu1hWPbHsITzzyMAG3tzq7j7B8+whfa2u3INyyYTCZcvHhRSyEiou7EGL0E2+ZGwK8wGxmnziAHZgweMghmHysytyfgV7uy1YzPJeHgWGDfmARsU1OaZZ60Eqt/5oeMt6di+YdaIlEXYffATT7N2bfvvcjLu66l3EkcFm58HP20tTvLwYczliNFW7sTf/+euHz5G75VgYio2xmExPdWYlhZKl6eugGZWioQhtlbVmCM3xksH7cIR2TSC8k4HCcCt1EzsUnJQ6RPdg/c5AMBJpMXiouLtZQ7qRe4lVdC6Vx1c4VbbSdutUhTEkWaMsNH6wI3b29vWK3qBL32EYXEHQsQ9uVvsalwDKaPCIG/wYa8C0exbdkGHLmmZRP8RsxC4rNReChQ3rK3wnLuOHatrs1Tfz/jMCfaDKPIk31oA+Ym52P0ogSMjwxS0iyf7Mbc1anIl1/ThMUmYPozwxDSwwDcsOB02nYse+c4SrTtRETdXzw2pk1An/S3MHbxUS1NZTSHYWBPGy6dysLYpFSMG2iAQTSXtjIbkH8cyye/hWPaXbgDi89gwNxYPNTDimNrJmP5gPp351re5iNwBGYvjMfjA/zhZstD1tHN+LPPNLz04Dm1PC0bUXvYfYybp6enCLRaM7atVAvMipDx7hzM+fUc7PyiTNkilX2xU0mb826GyCFUVIpvtJysi6yT/RhgMhrgP3ga5kYBmUcPIe0zC7wfjkXiW7Ng1nLJ2/ebFoqGwNOCY4dEnk9yYAgVeVYniGtBqW4/cyJL8LnIcyzHgJCxL2LdllfxbJ8L+FRLM0fPwuo5tXsWQZu4clw1Jwb3FZ5Emshz5KIBgycsxrY3Y0SgR0R0tziCzMuivf3BGExpNKatJDsTGSJokxe8Z4+JNjhTXrzn4axsjz8+DaUDVURyBk+zuFCOQ/A12Z6exFfynoOSLhaZp4VtPowTsHbrAowZAJz/RObJgWnUArww2B8Go0nbF1H7uRiNptfFghs37NOV2LNnT7GvG6iurtZS7iQLGf+ywnr+IP7vSSsqRUrfiGiE93ZTtlZePY1D/+9b4Mo5fJFnxdVPUvBhrszVUk7Ki+gLCgq09fbqj8fHD4PZ6Qusf24+th9PR/qn7+PvvUdh9A/7wv3T/TghijKZQ/A913PYNGsZ/nBS5PnrYfyP+w/xn1H94ark0fZTcQpLfrEI+0SeY+9fw/d+OhJhLqfwxvNL8Scl7TP0emIMftijAjvf/5vSOCxaNBLu6Un45cvbcUzkOfHhfpzuOQo/G/kgvD5NRbq9flQioi6tEOlfueLffjwSI2Ofwc9jh2PwAya4XP0WWbl1NwAunxNt8ICR+GVYGY7Pfh2/z8gS3xT+7SmR5g9L2nz84jd/QrpoTzOv1KaLIG3n+/hbC9v8yPmv4Ofmazgw7zksPSDb/CM4kAoMm/RDBFZ+i2N7j4Cjrcke7H7HzcXFFVVVVdpay5R9+TE+PGFB3Z9ZU8pgOfER/vLl7XM1Jusi62RvtosZSKvXL5l5OgclMME/RF3PP7oZryzejHRlzR8hQwbh0d5yXrm6PFLJRfEHrn0GjiJbDg0sstRLy4ZV/sgu6hpiwhFisODzd9IadItm/uk0LAhCiLgiJCK6a5zbjl+Nm4BX3k7D2UIDBj4Wj5eS9+DgjiUYF6rluS0LTm+vGx3XnNu3+YPw+Pf8YbtwBOvPKZtVJXvwaWbHTUBPdwe7B27Ozs6oqWnp3TbHk3WRdbK3irI7jJkzRmF20g7sP3gIhw/vwcYVKzF7aBMTAle18k5noBEGEaDFbJH7rbdsiRGpBhi8tXxERHeNPKSnJGHe1MkYGxOH51enItsnAtPfWIyRWo7m2WBrweDg27f5/jB5iDwFFm29Tp4cU0dkR/aPaEgwYcryBRgzEDi/Pwm/ej4Oo0ZF46kNZ9SHL9pDuZmZjQNjo5V9Nl5mvK3kIiK6S6kPec34YyZsfqF4dLiW7FAi+KsG3DxvvTj39+ToNrIvuwducmybk1PXiQdlXVo+3s5eIhByjwElf9uOeVvSkJltVVKNIX7tf3jgbzlql+jTjSaXDI5CTJR8MpWI6C7xxBLsP5yKtfG3TrZrDpAPBNhg/VpLcKjjyLhohSFsGCbWb4SNcYh8gIEb2ZfdI6yqqkq4uNQOyOp8si6yTh3rAiyF4m/2e6O12btNMEcnYN2T9Qa3tdWpDfjgHBD2dDKWToqAfC+E0RyDl15dgJcWJuCnjNyI6G7x4Z/x+VWD1h5GISRQtodhiJmTjHWxZtjOH8cfL2l5i20ijDNj8JwohD9s/4vcA9sPIQthmLIrGYkzZ2H2zAXYuGMigm3sKiX7snvgVl5ug6tr2wI3z6HP4uUFiXgyWH2iVHINHo2FC17Gs0PbNqWHrIusU8fKxvrVe5DpPAhTVqXg8OEUbE2IRPahk3aYZ82K3YmLsPu8AZHxS7D38CHs35qAGJ9sHFj2Kna3vwAiIp04ieUJG3DMYhLt4WJs3C3bwyS8FBsigrZULJ+3WZ32Q9q1Bfu+sCEkdjFWLpuF0Vqy3ZzbjBlzN+PYNX8Mi45GTPQg4Ohv8c4/GbiRfXWBCXjrxC38PZ5o7hUKOR9hxrKWTrtbx/4T8LaGCeaHByDAUKJMAll/Al27MJoR9qAf3K05yDjfGT8fEVEXUdseogK5X2Yiu7mLWJHP7JWN7PoT5zrQyDdTkBh2ru4NDkTtZPd53ORTnL6+/igra800uapLxSYEB7qgrLAIRQ0WCzI++N84a2l9l6fJ1AN5ebmtnqLEPmwo/O4qLFfycENLsauKQly7IvZfb74iIqK7Um17eOUaCm/3FJjIV9j609MdBcUuxsZlz+L+y0dxIke7yxYaj19P+iF8vvkEv/vgdPsfTiMSusBL5h2HL5knIqIOYYxB4qaZGNnboL5WS5BvX0BJJnYnJmBb/fndiNrBIYGb2l1qRHGx8pKqTuPt3UMEkCWd1E1KRER3F/kgWix+GhKgrNksn2Nvykn7D5Ohu5pDAjdnZyfcf3+I2Gc+Kis75+awq6sbfH398K9/ZaG6ukZLJSIiItIvh0y4JgOl3Nxc5R2hnUWWLevAoI2IiIi6C4fNlKt2TzrB07Pjgze1TCd2kRIREVG34tBXHFy9alHGmcmHBDqKLEuWKcsmIiIi6k4cGriVl5fDYrmCHj18lDFnjibLkGXJMmXZRERERN2JQwM3qaioCLm51+Hj4+vQO29y37IMWZYsk4iIiKi7cXjgJhUUFODate+UaUIcMeZN7lPuW5YhyyIiIiLqjjokcJPkXbCvv76k3BmzV9dpbdeo3KfcN++0ERERUXfWYYGbJMedZWd/jeJiqzLHWlsfXJDfkd+V+5D7kvvkmDYiIiLq7hwyAW9LyEl6fXz8RPDlAycnZ1RUlIulApWVVcp7ReU7TyW5zcXFBa6uLiJgcxOLu7JN1rewMJ/ztBEREdFdo9MCt/rc3d3h5WWEp6en+GwQgZqrCOzUm4HV1dUikKtEebkNZWVlKC0t4d01IiIiuit1icCNiIiIiO6sQ8e4EREREVHbMXAjIiIi0gkGbkREREQ6wcCNiIiISCcYuBERERHpBAM3IiIiIp1g4EZERESkEwzciIiIiHSCgRsRERGRTjBwIyIiItIJBm5EREREOsHAjYiIiEgnGLgRERER6QQDNyIiIiKdYOBGREREpBMM3IiIiIh0goEbERERkU4wcCMiIiLSCQZuRERERDrBwI2IiIhIJ5x69QqqEYu2SkRERERd1c3AraCgUEsiIiIioq6IXaVEREREOsHAjYiIiEgnGLgRERER6QQDNyIiIiKdYOBGREREpBMM3IiIiIh0goEbERERkU4wcCMiIiLSCQZuRERERDrBwI2IiIhIJxi4EREREekEAzciIiIinWDgRkRERKQTDNyIiIiIdIKBGxEREZFOMHAjIiIi0gkGbkREREQ6wcCNiIiISCcYuBERERHpBAM3IiIiIp1g4EZERESkE069egXViAUFBYVaUsdzd3eHl5cRnp6e4rMBLi6ucHZWY8rq6mpUVVWivNyGsrIylJaWiM/lyjYiIiKiu0mnBW7Ozk7w8fGDr68PnJycUVFRLpYKVFZWiUCtCjU11Uo+uc3FxQWuri5wc3MTi7uyTda3sDBfBHY1Sj4iIiKi7q5TAjc/P38EBASgvPwGbty4IQI2m7alZdzcDPDw8IC7uwdyc3ORn5+nbSEiIiLqvjo0cJNdor17B4lPNSgtLUVlZYW6oY1cXd3g5eUlPjnh6lULu1CJiIioW+uwhxN69OiB++4LVu6uFRUVtjtok+Q+5L7kPuW+ZRlERERE3VWHBG6+vr4IDOyldGmWlZVqqfYj9yn3LcuQZRERERF1Rw4P3ORdsICAnigsLGj1WLbWkPuWZciyeOeNiIiIuiOHBm5yTFtQUB+7dY3eSW3XqSxTlk1ERETUnTg0cJMPIhQXFzn0TltjsixZpvoQBBEREVH34bDATU75IZ8edcSYtjtRy6zR6kBERETUPTgkcJOT68p52uSUH51Fli3rIOtCRERE1B04JHCTb0SQk+t2xLi25siyZR1kXYiIqPsyDo7FSyu2YO+BVBw8kIKdyYsxcbBJ29p64XN34PDhVKycoCUQdSEOmYC3f//+sFqtLRzb9hCeeOZhBGhrd3YdZ//wEb7Q1m5HvmHBZDLh4sWLWgoREXUnxugl2DY3An6F2cg4dQY5MGPwkEEw+1iRuT0Bv9qVrWZ8LgkHxwL7xiRgm5rSLPOklVj9Mz9kvD0Vyz/UEom6CLsHbvJpzr5970Ve3nUt5U7isHDj4+inrd1ZDj6csRwp2tqd+Pv3xOXL3/CtCkRE3c4gJL63EsPKUvHy1A3I1FKBMMzesgJj/M5g+bhFOCKTXkjG4TgRuI2aiU1KHiJ9snvgJh8IMJm8UFxcrKXcSb3ArbwSSueqmyvcajtxq0WakijSlBk+Whe4eXt7w2pVJ+i1jygk7liAsC/fwi+WHdfShCau5vxGzMLrz49ASA8DYMtD1tHNWJh8HCXadtm4jJk7FU//ewj8RZaSq2fwwfa3sO24Vd2s7fPA4jMYMDcWD/Ww4tiayVg+QCtr/jGYXxyHyN4m4IYF6X/agNV7ztTt3zgIExOmYfRgs7L/iiJxRXpwc12e2jqL/YTMnYjBgQZUXDuD91Yvwgf+s7Bshlr3iqJz+PPqN7HttFYvyRiFKfPjxb6DYIQNeReO4Y+bk3DgnLadiMjh4rExbQL6pL+FsYuPamkqozkMA3vacOlUFsYmpWLcQAMMsikuswH5x7F88ls4dqc2VmnPa9v832JT4RhMHyHba9nmHcW2ZRtw5JpWoBQ4ArMXxuPxAf5w09r8P/tMw0sPnlPL07IRtYfdx7h5enqKQKs1Y9tKtcCsCBnvzsGcX8/Bzi/KlC1S2Rc7lbQ572aIHEJFpfhGy8m6yDrZjwEmowHeHqIFqE+0CAZPsWir8vb9poWxuK/wJNIOHULaKSvuG7sYbyeEaTnCMP3tFZj9hBnWU2L7oSO4ZBCB1utbsDRaG5uh7NOM0YviEHxN7uckvpLxcG36qxNhvpKufPesLQjDnluM12LVryr7X7MEU4YHwZZ5RKnD54VanrhG+391HPxFI5T2yTkUB0Vg+itbsC4hAuWntbQesl6LMUb9lvjhYrB0mxxDYsClT2TdT8LaLwazVydjeqiWh4jI4Y4g87Jokn4wBlMajWkryc5Ehgja8sXns8dEO5UpL97zcFa2xx+fhtKBets2Viwyj9bm+w+ehrlRQOZR8f3PLPB+OBaJb82CWckjGCdg7dYFGDMAOC/bxc9yYBq1AC8M9ofBaLp5biBqL7sHbu7uBlRWVmlrLfEBNiT/ASnv/g47T2lJTTn1HpLeTcEfkjeIb7ScrIusU0d7JCoUfiJoWzfzLawXdV6/bCaW7UpDepa63ThpqvgDtyI9aTJmiKu29clJmDd5PtK+9Ufk+Pi6xkD8uecenY/xCep+9t08RgYUH38Vzy9OUr87fTsyykx46LE4dbPRDVeyzuHI25O1PBuwXNTl2DWR59+j1TwKA678z1S1Dqvn4YVUUcHeQbD+35mYt1pN+8WOM7AZ+yF8uPqNyF9NQKQxC/vmT1bzJL+FGZM3I6MiBKPjb0aOREQOli3aqD3IrAzDxFUpOLh3C1YunICYgQ2ngkpPEe3UBTVwuyDb43fS1MBN0Vwb25DB+QLenpqA5Vp7vvCQBTBH4OlgdXtkwhiEuWTjQG27uHoRnp+0G1dE0EdkT3YP3FxcXFFV1ZrADSj78mN8eMKCuvtsTSmD5cRH+MuXt8/VmKyLrFNHyy+xAj6heHpODEIC1bT07SKASlVHYYweHALDt+nYdKhe9yMy8cfTojEIGoBhWgpgwentdSM36uQh82C99JIUXPhWNC7e2mMeJWdwQARdy1PU/ctug/DhIZBtyM08Cguy/lhXh5KsfJTABus39epVaEOFaNwMbnLFjEcfVO/ibarfLSrKT//KBmPfh7QEIqIOcG47fjVuAl55Ow1nCw0Y+Fg8Xkreg4M7lmBci3oAmmtjG7JdzEBa3TgXZJ7OEW2lCf4hcm0QHv+eP2wXjmB9g3ZxDz7N7LgJ6OnuYPfAzdnZGTU11dpa55N1kXXqaBkrVmD3FzaExCZg4+5DOHxgD7YumoBwo7o9wFtEUPfEYOthsa3esvXJIBFZGeCtZhNssNVrLOpYYb2kfWxG2PjF2Lo3Vdnv/q1JWJk4DgNv6TVubv/NGQB/8TMYBk9rUG+5TB8sfiaPtj+CT0TUNnlIT0nCvKmTMTYmDs+vTkW2TwSmv7EYI7UczWtZG1hRdrtx0v4weYg8BeLCu5E8OaaOyI46PqK5a2RiW8IEjBo1ATOWbMaB01YEDI/HkuUToMRu8qbkpVSMHRUt8jRe7PDU09DFeH1qFAKuHcGmJTMxXu5XNGgf5Gjb20w0ciIuL0lPaqLeYhm3SMtHRNQZrMg+tAEz/pgJm18oHtWGeDiW2i66ed76th5/T3aVkn3ZPXCrrq6Gk1PXiQdlXWSd7OckLPmAsc9DagCmiexZ/w/WBPPDMRgTLUeq5SHr4xSsXzwVb6dbYbjnITwiUtMviyuzewZgfP2dCOaoGAwz2+Gu1aDe8EMWPpiZhH0fqwN0gREw91Q+tMNxfGWxwdg/EpFaSq3IEXXdwkREDvfEEuw/nIq18be2meYA+UCADdavtQSHOo6Mi6J9DxuGifXbdGMcIh9g4Eb2ZfcIq6qqEi4uLtpa55N1kXWyHys+/zoPCI7GuoVxGDYkCuMWbsHCoQ0bjsenzcTsOfMxO1IN6PwiJ2DkgyJPoUWEU0DG2jRkIgzjNi3BRCWPCPaiE/DawgQkzo1tEBS2yeUSlMCMyLkjRAAnBEZg4qppiPRRtrbL7j3HYQmMwsLkWYhRgkx/RE5aibmi7q9NjVAzERE52od/xudXDQh7OhlLJ0UpF45yPG/MnGSsizXDdv44/lg7pKTYJsI4MwbPiUL4w+b2t7GNHNh+SLTtYZiyKxmJM2dh9swF2LhjIoJt7Col+7J74FZeboOra9sCN8+hz+LlBYl4MlgZBa9wDR6NhQtexrND2zalh6yLrJM9pSftwJFvxRXdiGl4bcViTH84H+8drXtGSQZ32zZuR/p1M8Ys3aOM/9q7NB4PlZzEptUb1KeZSvZg4St7kGWIwBQlTwq2zo1BwKVULE/cUzcXW1ulvom3j+YhKHoB9soxaLuXYLzXUaRd0La3x4m3MGfdceT2jcVLW1NE3fdgaXwoyk9sxvJlJ7VMRESOdhLLEzbgmMWEyPjFynhiOZ73pdgQEbSJtnTe5rqnR3dtwT5l3PFirFw2C6O1ZLs5txkz5m7GsWv+GBYdjZjoQcDR3+KdfzJwI/vqAhPw1olb+Hs80dwrFHI+woxlLZ12t479J+Ctx2iG2Ssb2fUnYGxEnQTSDeXXLyAzu/4TpHVq8xTnnEHWbfbVJoEhCO9nvG357eE3cBCCTRXI/TIT2e2ONomI2ki0x2EP+sEdd2iPWtBu29PIN1OQGHau7g0ORO3UBV55Vcdz8DOYHnM/vLT1OqW4kLYZfzjduqlAJL7yioiIHC0odjFWTe6H00kJWFP79pvQeKxdPgEh2Xswfs729vekEAld4CXzjsOXzBMRUYcwxiBx00yM7G1QX6slyLcvoCQTuxMTsI2vAyQ7cUjgpnaXGlFcrLykqtN4e/cQAWSJY7pJiYiIGpAPmcXipyHqJOc2y+fYm3JSe6qfyD4cErg5Ozvh/vtDxD7zUVnZmveW2o+rqxt8ff3wr39lobq6RkslIiIi0i+HTLgmA6Xc3Fx4ed06Wq2jyLJlHRi0ERERUXfhsJly1e5JJ3h6dnzwppbpxC5SIiIi6lYc+oqDq1ctyjgz+ZBAR5FlyTJl2URERETdiUMDNzkFh8VyBT16+ChjzhxNliHLkmVy+g8iIiLqbhwauElFRUXIzb0OHx9fh955k/uWZciyZJlERERE3Y3DAzepoKAA1659p0wT4ogxb3Kfct+yDFkWERERUXfUIYGbJO+Cff31JeXOmL26Tmu7RuU+5b55p42IiIi6sw4L3CQ57iw7+2sUF1uVOdba+uCC/I78rtyH3JfcJ8e0ERERUXfnkAl4W0JO0uvj4yeCLx84OTmjoqJcLBWorKxCVVUVamqqlXxym4uLC1xdXUTA5iYWd2WbrG9hYT7naSMiIqK7RqcFbvXJF9N7eRnh6ekpPhtEoOYqAjv1ZmB1dbUI5CpRXm5DWVkZSktLeHeNiIiI7kpdInAjIiIiojvr0DFuRERERNR2DNyIiIiIdIKBGxEREZFOMHAjIiIi0gkGbkREREQ6wcCNiIiISCcYuBERERHpBAM3IiIiIp1g4EZERESkEwzciIiIiHSCgRsRERGRTjBwIyIiItIJBm5EREREOsHAjYiIiEgnGLgRERER6QQDNyIiIiKdYOBGREREpBMM3IiIiIh0goEbERERkU4wcCMiIiLSCadevYJqxKKtEhEREVFXdTNwKygo1JKIiIiIqCtiVykRERGRTjBwIyIiItIJBm5EREREOsHAjYiIiEgnGLgRERER6QQDNyIiIiKdYOBGREREpBMM3IiIiIh0goEbERERkU4wcCMiIiLSCQZuRERERDrBwI2IiIhIJxi4EREREekEAzciIiIinWDgRkRERKQTDNyIiIiIdIKBGxEREZFOMHAjIiIi0gkGbkREREQ6wcCNiIiISCcYuBERERHphFOvXkE1YkFBQaGW1PHc3d3h5WWEp6en+GyAi4srnJ3VmLK6uhpVVZUoL7ehrKwMpaUl4nO5so2IiIjobtJpgZuzsxN8fPzg6+sDJydnVFSUi6UClZVVIlCrQk1NtZJPbnNxcYGrqwvc3NzE4q5sk/UtLMwXgV2Nko+IqCkGg0G5MDQavcRnd6UtcXJyElvkcreoEe1mjdK+2mzlKCkpVS6CbTabtp2I9KJTAjc/P38EBASgvPwGbty4IQK21jUebm4GeHh4wN3dA7m5ucjPz9O2EBGpevTwgb+/nwjU3ESgJi8C64I1EcMoaXeLhj+vGsTJtMrKCuTl5aOoqPN6XIiodTo0cJNdor17B4lPNeJqr1RpNNpDNsheXl7ikxOuXrWwC5WIYDKZEBjYC87OLnBx4TDeO6mqqkZ1dRWuXfsOVqtVSyWirqrDWrUePXrgvvuClbtr8uquvUGbJPch9yX3KfctyyCiu1dQUB9lkcMqGLS1jDxO8njVHjsi6to6pGXz9fVVroBll2ZZWamWaj9yn3LfsgxZFhHdXVxdXREcHAxvbxPkuFhqPXnc5PGTx1EeTyLqmhzewsm7YAEBPVFYWNDqsWytIfcty5Bl8c4b0d1DBhn9+pmVBw9k8HE3jV2zJ3UcoLNyHOXxZPBG1DU5NHCTY9rkrXd7dY3eSW3XqSxTlk1E3d+9996rdPWR/cjjKY8rEXU9Dg3c5IMIxcVFDr3T1pgsS5apPgRBRN1Z7Xg2sr/acW9E1LU4LHCTU37Ip0cdMabtTtQya7Q6EFF3JJ8elUsHDdW9CznXO8ZE1FU4pMWTk+vKedrklB+dRZYt6yDrQkTdjzrlB8e0OYo8rvL4yuNMRF2HQwI3+UYEObluR4xra44sW9ZB1oXaKXYBNiYvwfQh2nozwqcuwcal0xCurRM5ipxcV87TRo4nj7M83l2ZcXAsXlqxBXsPpOLggRTsTF6MiYPbfqcwfO4OHD6cipUTtASiLsQhE/D2799fmcixZWPbHsITzzyMAG3tzq7j7B8+whfa2u3INyzI2/wXL17UUuj2opC4YwHCvnwLv1h2XEsTXkjG4bggpK+IwysfamlNGPlmChLDzmH5uEU4oqUROYKcskI+/dhakf85DT/sqa3UunENZzMO45N/dNbks48i/pUR6F+cge3rUuGQ1iriZ5ghrqj+tvlPSNeSWkO+JuvSpUvaWtdijF6CbXMj4FeYjYxTZ5ADMwYPGQSzjxWZ2xPwq13ZasbnknBwLLBvTAK2qSnNMk9aidU/80PG21Ox/DZtHlFnsPsdN/k0p3ykvOUPJHwPkT8ejh+3eInEg9o370TWQdaFT5i2lAh0jQZ4exi0daKuR757VL41pS38xEVqUG8T6ia6cIVH3+/j8XEv4uWfh8NDS+1YBSguLIe1SPxfS7G7gEAE9Q1EW/sf5PGWx73rGYQ5v4iA8VIqfjVuKuYt24D1y+bh+XEJOHDJgLCfTcNILaf4AWDwFIu2ejvZu+ZhvNgfgzbqiuweuMmXOcsXxrdJeSUq5KK+X15VraW1cZeyLrJO9uWPkXNWYuteeVteLHu3YOWcEbc0isaoeCzdskfNs28H1s6NRZi2rVZYbALWvpdycz9Ln4tCw9qGYczcJOzcp5a1d+tKzB5R/6GLeKwV6Wuf01Y1wxbuwMEdCzBMWZN30lKxc+EIDJtZu68U7EyahZGBSgZg+ALsPPAiIn1EvSNfVMpqvM8GAkdgdtIO7K/92WZGtahBJGov+ffcrnFtNgs+3rwZG5Xl90havgJ//qocptCheLy3lqdD/QMpG1Zg1fZPcV1L6Wrk8bZ/O2oP4TD3FO38lbPI1FJUmXjnN/NFILcdGWJtSpJop2JDxKcQjJFtVm3bKO/CHUjC9MHxWKm0wzuQOLwufYrM05L2s1YT7eLIBm0xUfvZPXDz9PQUwVJrxraVivzy/0XIeHcO5vx6DnZ+UaZskcq+2KmkzXk3Q+QQKirFN1pO1kXWyX5MiHkzGYmxofC+fBxphw7hyEUDHopdgHUJdWGZcvv+9QkYbMjBEZEn7ZQV9z0xC6uSp8Gs5Ql7IRmr5sTgvsKTN/czeMJi8b0RtTkw/e0VmP2EGdZTYh+HjuCSayjGLEzG0uja8RvaVWSjqMngYYLBKBZ1TbmT5j94GuZGiSbtqNjXZxZ4PxyLxLdmqfX5+rSo50lki0Nvy1Hr82lz/dHGGCxNXoAxA4Dzn8h95cA0agGe+x5DN3I8o9FLBBL2fCKhHKf+kYMb6AnzIC1J8AgdgUn//SJefWUhXp0/G/81NgL9tG039fg+nnp+NhJr8zwZih+Mm41X5/xMu0gbgf8S2/7rcWXlprAGeUIRN2chEsaFKms3v/OTYDz+S3XfN7d5hOLxif+Nl2V5r8xHwvOxiGxcKY9gPDa+Ns+LmD1+6K31biV5vOVx73qOIPOy+J34wRhMaTSmrSQ7ExmnspAvPp89JtqpzDzxKQ9nZXv88WkoHajKXTgzRi+KQ/A12e6dxFfytmeDu3MtaD8l4wSs3Xpru/jCYP96bTFR+zmgq9SAysoqba0lPsCG5D8g5d3fYecpLakpp95D0rsp+EPyBvGNlpN1kXWyH4MIbC4gPeVNjE94C+tFfdbMn4l952wIGhyt/RFHKLfv/b5Nw8uT52GNyLN+2UxM2nkGFf0i8PTDIov4I58urgArTm/GpJm1+5mMNz7MhjHscYyTWeKnikbAhowtkzFDdgEkJ2He5Pk4cMmEyMkvIlIpq+UMzhfw9tQELNfqs/CQBTCL+gSLjZfSsC35U1hs8ur1U6U++5oZDBOZMBmRxmwcEPWdt1rsa/UiPD8pBVdE40bkaOrYNjs/Sqq0hJWoHeHhET4Rs3/+KO53vY6/Z2Tg1IVyBA4ajfgXRtUFQR7hmDT9Z4gMAq6cFXm+zIXnoJ8hur83XMXFotod6wo3g1ga9ey6Grwa5PHwFIvIp1K/E/jDZ/CjwBKcF+WfvyyuqGR5s5/GY/1dcE2Wl3EeN3qG46n4aYi+Wal7ER0/EY+HesP6pcxzEWX9RuDn32/vQ1pO2nHvarJF+7MHmZVhmLgqRe39WDgBMQMbTgWVniLaqQtq4HZBtn/vpKmBm8KA3KPzb7bn+5o5D922/RQiE8YgzKVxu7ib7SLZnd0DNxcXV1RVtSZwA8q+/BgfnrCg7j5bU8pgOfER/vLl7XM1Jusi62Q/eTiyZRFeefukuhoYgvAhwxAkH7oyBkDejEfwMIT1tiHzf5Ia3L4v2TUPY8dMxRp5JysmHCEGCz7fk4ISdbMifcVUPDV+EfaJz6MfCoGh8BzSUuoPms7E+r9kwRYYitHyln4r2C5mIK1eYZmnc0TZJvgrlW6pQXj8e/6wXTiC9ee0JKlkOz7N7LiJlunu5epq56dJPYLx1CPB8Ki04OJnMiEET/04BB5XTmD7unfx5/c/wMF9m5H0P5dQ2WcIHo9QvoWBY0ZgoMd1pL+7Htv3izz7d2N90gnke9invXEt/Du2r3kHKbL8E5cw8D+GifIs+Gttee//CRvXHsbFyiAMGaFWymPETxDZpwrnD/wOG/epef7Xmr3Irm5/0GX3424v57bjV+MmiDY5DWcLDRj4WDxeSt6DgzuW4OZNzNuy4PT2hh2tTbl9+9lcu7iH7SLZnd0DNznvT01N/UFqnUvWRdbJnoxRs9RxaWmHcHh3MlaKq69H6l/QhgTAGzZYr2rrTQk0ius8K/Juc5cxwFtcqV3PvvUJzaslqBDfNrRyfHZFmbzibC9/mDzEvgrE1WYjeWVsoMjxZLddTY220hZeIfip0o2oLfN/qQQ7Ocf+Bx/dENt7h8LsW4mcM4eRo35DcePEV7hic4ffffIWSzC+39eEyiv/wMEGmY4iM6dSW2mfgktH6pXfE6H3+KEy5x841LBSOH+lEh4B96K/WI0cEATXgvP4a0b9QcFZ+Ogr2WHYdvJ427d72t7ykJ6ShHlTJ2NsTByeX52KbJ8ITH9jcd3DCc2ywVb/6rkZt28/2S5Sx7F74NbtGeOxbGGsuCa/gAPrEvD82GiMionFutP1/jgrREMgAiu32019pNyUNMGk3WZvkszjaawbQ1GrUy98xc8m4nI3z1vfSmHgtFqkB7brSvfjKblcLFZaQcsnv8P/OvqNuj3IGx5wRf+YxXhDnPjrllHoL66lPAzeIpPIIz5Xlhao36nHamtdj0NzKqvrB199YPIEXPuPalSnxYju7yr++DxFjURzIV8MX2a9ZUqR67Y2Pt2lS1ZkH9qAGX/MhM0vFI+2smeibZpvF/092VVK9mX3wK26ulpcmXWdeFDWRdbJboaG4D6DFae3z8Om9zORrVypmfBAr3oDYz8+i0tlBgz897iGT4gOnYaVtRPZHs6CBUEY/LOGz5ka4+RktwswRnz+IEtcvd0Thp82Cu4iIwbAaMvGWeVR9WzkFYpmvV+Msk1lwn2+jmosjuMriwhLH3hEqWOdCDzSn6/GIcerqakRf9faSltUFuCc7H6Uy+4PkClir6B/i8MPtM2orEAlynF+/5t47bVbl+W7/yEzicBKBFKGW3/nXR3S/Knl3fgqtck6vbZiN/4us8mmzuCBxlPVeTi3r/tWHm953LucJ5Zg/+FUrI2/9d/BHCAfCLDB+rWW4FDHkXHRCkPYMEys3+gb4xD5AAM3si+7NzFVVZVwcek6t15kXWSd7EYEU7kyUIuegHD5B2o0I2ZukvIkUZ0U7PvMAuPgiVg9JwZmkc84eAJWJsQhvDfwlewevbQFH8gHGp6Yj6WTIpSpRPxGJGDdcyNgdsnDabGevTkNmTax/yWLMcYsGyZ/RE5aibnD/ZF/8gB2ixTgGLK+tcEYORlrp8YgfEgMpidtwbgG9WmpPFhviLp+73GMGzIIIY0fddfsPnAS+cZBeG7dNETKPIERmLhKTiXCLgFyvNY9/HQnWTj42SXc8ArB42PuVZPOWpBf6Y57Hmg8+DMEP/hhkPjrl87hSn4lXPs80OghoRA80Lv+eLLrKCoFfHvWf5+IOwK9WttGquV59A7BQC2l1sDvhyOoh/r5fF4+ENAPjzSY1sQdUff4ap/bzr7H3U4+/DM+v2pA2NPJoh2NUtosozkMMXOSsS7WDNv54/hj7bzBxbInxIzBc6IQ/rC50bRL7Xdg+yHx2xSGKbuSkThzFmbPFBfhOyYi2MZ2kezL7oFbebmtzYNYPYc+i5cXJOLJ4LrBW67Bo7Fwwct4dmjbpvSQdZF1sptLG7BmVyYM34/Hyv2HcHj/Frw0JAdp6Q1nXU9floD1H1thjk3AVpFv/6p4hDtnYveSt7Qxa1bsTlyE3edNiIxfgr2HD2HvwhgEXT+OTa9uVp94KtmDha/sQZZHFGZvTcHhw3uwND4U5Sc24/XXjyp7kfvZtjEFmYX+CBufgJUrEjDaMx376nfdttgZrNt5FBaPCExfsRKvPXtLJ63qwzfx+pYzsA2Mw9LdcpzfEkzqdQZpbSqTqHXkLP6A/e7+3DjxPv5+TQRXg36Cx5QZeD/FJ+fyYXooDjP+Ixw9ZVqPEDwWPwZxY55GtDYD+Ccnv4LVIxiP/9coDJSBk5ZnoFf9C8VMWHJFwPXACPzXT8LRf0A4op+fiR/10Ta3wiefnkNBj1DETRuNIYEyODRh4I9/iZ+Oi8WEn6hB5sVP/wlLZU8Mmfi0uKgSeTzE57HPI7IN5TVUox33ruYklidswDGLbEcXY6Noj/ZvTcJLsSEiaEvF8nlaWyrt2oJ9X9gQErsYK5fNwmgt2W7ObcaMuZtx7Jo/hkVHIyZ6EHD0t3jnn2wXyb7s/sorPz9/mExeKC5u/RzgcQt/jyeam3Ao5yPMWJairbSct7c3rNZS5OfbY2B+PUYzwh70g7s1Bxnnb7PvluSTT6b2M6L8+gVkZjf92h2/gYMQbKpA7pe13bNNCDTDXJrd/PZW8DOLq9Xs7AZPvN7KHyFD+sH7TseAyI58ff0QGNhTGQbRWtEvLMaPfLKQUtu1WGvQRCT+pwh+vkpF0nsZuCGCosjxv8TjoT3hUVuMLR/n//In7DqujYUT+kX9Ej9/IhgmLU9l7j9wKm8gIvvm1JXRTwRtEx9FP20atBtXMpBuDcNjN/N8H5Pm/wzmnD9p3bCjMOONocCJN7ExTf1OLVPE05jyRKgaTCoqUfDlUezbfeLmgwweobGYMjYcQbV5Sr/BJ1+64rFw4K+vbcYhLbk15ENe165dF+eJ9j3k4FC1bS3u0E6KfGYv0U6KYL0j8FWAZG92D9zk66X69r0XeXmtnwPcc/AzmB5zP26d5rEUF9I24w+nWzcViOTv3xOXL3+D8vK7aXAuUfclX71kNt9n96fFm2ZC0ICe8Kyw4kr2dRHQNUXLc+M6Ll624gcT5yOuX73ArVaPnuhpu47rTe+kVUx9gxHoUYli0bY1vT939DT3gbhsvU29W06OE87O/ho2dvs1Kyh2MVZN7ofTSQlYc1y7AA+Nx9rlExCSvQfj52y/w4UwUct0gZfMOw5fMk/UPbX1JfMdodnATce68kvmuwxjDBI3zcTI3gbYtClA5NsXUJKJ3YkJ2FZ/fjeidnAxGk2viwU3btjvjpTswvDy8ur0MRFGoxFFRcXiZ2v9nToi6rqqq2vg6ekFZ+euN7dY7+8PQ5hPEc4d/wduN5WjXlRVVSM3N5e9FndSkYVj/ycVH39XBtf8b5F14QL+8ZedeP21d3Ciq76ElnTJIXfcZGN6//0hyniIysrWvLfUflxd3ZSxMP/6V5bSyBNR99K///1wa/wuqS7AI/Be9PG8YZcuyq5Avu/54sV/aWtE1NkcMkhEBkryCk3edesssmxZBwZtRN3TtWvfKWOvutr0YjeufYOL3SBok8dVHl95nImo63DY6F71KU4npTujo6llOtn/SVIi6jLkOFq5qLPOkv1V1zvGRNRVOPSxrKtXLfD27qE8JNBRZFmyTFk2EXVvFssVpSuP7E8eV3l8iahrcWjgJgezyj/8Hj18lDFnjibLkGXJMjmQluju8M033zB4szN5POVxJaKux+ETIRUVFSE39zp8fHwdeudN7luWIcuSZRLR3aGyshI5OdnKU+xyotiu+EpNPZDHTR4/eRzl8ZTHlYi6HocHblJBQYEywFW+VcERY97kPuW+ZRmyLCK6u8ggQ84zVlxsVYIPaj153OTxk8eRQRtR1+WQ6UCaI9+q0Lt3kPhUg9LS0nZPFSK7RtUnV52UMW3sHiUiOel2YGAvODu7wMWlQ65NdU3O01ZdXaVc+PJBBKKur0MDt1ry7lhAQIAItG7gxo0baO0bFmS3qIeHhwgEPZQpP/j0KBE1Jse7+vv7KRd4Tk6isZP/ERd5kuwWVFbvEg1/3hqxLhd5p7ICeXn5KCrquPafiNqnUwI3SU7S6+PjB19fH9GgOIvgrVwZEFtZWSWuAKuU2/aS3Obi4iIaXxcRsLmJxV3ZJutbWJjPedqI6Lbku029vIwwGr2U12TJtqR+EHd3UIM12b7KMWwlJaUoLS0Rn/nuUSK96bTArT7ZhSobVk9PT/HZIAI115svkJYTQFZVVaK83IaysjKlsWGXKBEREd2NukTgRkRERER3xpG7RERERDrBwI2IiIhIJxi4EREREekEAzciIiIinWDgRkRERKQTDNyIiIiIdIKBGxEREZFOMHAjIiIi0gkGbkREREQ6wcCNiIiISCcYuBERERHpBAM3IiIiIp1g4EZERESkEwzciIiIiHSCgRsRERGRTjBwIyIiItIJBm5EREREOsHAjYiIiEgnGLgRERER6QQDNyIiIiKdcOrVK6hGLNoqEREREXVVNwO3goJCLYmIiIiIuiJ2lRIRERHpBAM3IiIiIp1g4EZERESkEwzciIiIiHSCgRsRERGRTjBwIyIiItIJBm5EREREOsHAjYiIiEgnGLgRERER6QQDNyIiIiKdYOBGREREpBMM3IiIiIh0goEbERERkU4wcCMiIiLSCQZuRERERDrBwI2IiIhIJxi4EREREekEAzciIiIinWDgRkRERKQTDNyIiIiIdIKBGxEREZFOOPXqFVQjFhQUFGpJHc/d3R1eXkZ4enqKzwa4uLjC2VmNKaurq1FVVYnychvKyspQWloiPpcr24iIiIjuJp0WuDk7O8HHxw++vj5wcnJGRUW5WCpQWVklArUq1NRUK/nkNhcXF7i6usDNzU0s7so2Wd/CwnwR2NUo+YiImmIwGJQLQ6PRS3x2V9oSJycnsUUud4sa0W7WKO2rzVaOkpJS5SLYZrNp24lILzolcPPz80dAQADKy2/gxo0bImBrXePh5maAh4cH3N09kJubi/z8PG0LEZGqRw8f+Pv7iUDNTQRq8iKwLlgTMYySdrdo+POqQZxMq6ysQF5ePoqKOq/HhYhap0MDN9kl2rt3kPhUI672SpVGoz1kg+zl5SU+OeHqVQu7UIkIJpMJgYG94OzsAhcXDuO9k6qqalRXV+Hate9gtVq1VCLqqjqsVevRowfuuy9Yubsmr+7aG7RJch9yX3Kfct+yDCK6ewUF9VEWOayCQVvLyOMkj1ftsSOirq1DWjZfX1/lClh2aZaVlWqp9iP3Kfcty5BlEdHdxdXVFcHBwfD2NkGOi6XWk8dNHj95HOXxJKKuyeEtnLwLFhDQE4WFBa0ey9Yact+yDFkW77wR3T1kkNGvn1l58EAGH3fT2DV7UscBOivHUR5PBm9EXZNDAzc5pk3eerdX1+id1HadyjJl2UTU/d17771KVx/Zjzye8rgSUdfj0MBNPohQXFzk0DttjcmyZJnqQxBE1J3Vjmcj+6sd90ZEXYvDAjc55Yd8etQRY9ruRC2zRqsDEXVH8ulRuXTQUN27kHO9Y0xEXYVDWjw5ua6cp01O+dFZZNmyDrIuRNT9qFN+cEybo8jjKo+vPM5E1HU4ZB43eafLZDIqXZadydu7B6zWku41Qe+QBOxcFgP/f2zHUy/vAWIXYGMM8MHMt3BAy0LU3cnJdWVAwSk/HE/O8ybneOuak/QOwvSl0zC4mckEstNmYnmqtuIIbI+pEzik1ZOvsZJvROhssg6yLt1KngVXiqywXLeo6337IWRgP3AkCt1N5BsR2hK0Rf7nNMyY1mj55c/w2Pc7szvwUcS/shhvzIlFfy3F7iJ+Jn7WnyFSW20NeZzl8e6a/GF+MAQhfTvp34/tMXUCu99xk09z9u17L/Lyrmspt3d/7Ez8/KEAeMlpPFo0xrgUOR9twqrUi9r67fn798Tly99037cqvJCMw3HAvlEzsUlLIurO5LtHzeb7lG681op+YTF+FGjF9atWVCoprvAQbY+vB2A9l4r1/zsDHX/J+X3EzXoS91v/im3bP0XLWs5WipmGN4YCf31tMw5pSa1RXV2N7Oyvu+C7TUdg6b4FiLyeglEvbNbSOhHbY+oAdr/jJl/mLF8Y3yIhz+K5Jx9Cv/uCEGByhZt7S5YeuP/JKXg2RNvHHci6yDrZmzEqHku37MHBA6k4uG8H1s6NRZi2TRq2cAcO7liAkVGzsHGvyCPy7U2ehWGiKmHjF2NrbdqWBIwJ1L4kGQdh4qJk7Nynbt//XjJemzAIdT9BPNaK9LXPaatEdxn599yucW02Cz7evBkbleX3SFq+An/+qhym0KF4vLeWp0P9AykbVmCVo4I2O5DH2xHtaEdhe0zdiYvRaHpdLLhxwz53pPz9/VFVVYnKSvV69rby/o7/d6kafcxm9DK17JH+MsuX+Hjv7/GHL1pWX3lVLieULC4u1lLazxi9BNsWRsNceh5HPjmFL/N9ED4iBjHDvHD6//4N10SekFG/wI/7B+LhfwvCd+mf4NQVAx74t6H40Y+G49EfeiLzL58h87pI+0Ekhj3ii48PpKNQhH7T1y/HpHBP5GV8jGNnzuNaj+9j+BPD8WDp+zh8Tl7tRuKnz30fLuffw8H/J1b/7Sn8UkSMmTvfx99k5Yi6OfnQkbzrJsIJNaEVQv5tOPp55OHc8X/gqpYGVOGK030YGnov3G0f4/9dUFM9QkfgmfH/ibE/GYHhPxqMgYE1uPbPb9Fg5K74+3zq2Wcw7sknMELm8SlG5aAJmPZEX1z//J+iLRiB/3plIoYYPsWpep0EYeNm44WbeUIRN2caYvpdx2eZMnTTvuOZA7+oX+Dn//EEInpr2zxC8fj48Rg3ZhQef+xH+OFAf1RfP4/L9SvlEYzH/nMixo+VeSIwqA9wpbw3hvQDcv7yN2g/XqvUBsr2bEfto784HsPQt/Qcdoq2tzlsj6k7sfsdN3d3gwjaqrS1Oys6+wGS33gJ89/5CF9+13ywV/Hdl/jwnQV48Y21SDnZ8oceZF1knewnAnN+EQHjhRS8PHke1iRvwPplMzFpyxlUDIhGfKyWTfIEziZNxrzVap51J6wwmk04u2Ymlmvfm3PIAphDMVrmN7rhStY5HHl7Mp5fnIT1Is/ymW/h2DUTHvr3aGWXRHc7eSHWlqDttpSWsBK1U056hE/E7J8/ivtdr+PvGRk4daEcgYNGI/6FURDxj8ojHJOm/wyRQSIwOivyfJkLz0E/Q3R/b7h6ekJ974Ar3AxiaXRd6mrwapDHw1MsIp9K/U7gD5/BjwJLcF6Uf/5ymVre7KfxWH8XXJPlZZzHjZ7heCp+GqJvVupeRMdPxOOh3rB+KfNcRFm/Efj599s7Rs1JO+5dVI8QzJ45q+HyXAzM2mYF22PqJuweuLm4uKKqqoWB2yNTsWT5y3hmaBAqTqbgd6/NuSWAqw3Y5rwmA7YKBA19Bi8vfxPTHtEy3IGsi6yT3QQPQ1hvG84e3oxMLUkqSfkc58tM6PP9QVqKUHgBn5/QPgtHvpUDWPNgqZeWXWbVPgklZ3Bg9TwsT1HTjOYwhA8PgVHEnQbvACWN6G7n6uqifbITj2A89UgwPCotuPiZTAjBUz8OgceVE9i+7l38+f0PcHDfZiT9zyVU9hmCxyOUb2HgmBEY6HEd6e+ux/b9Is/+3VifdAL5HvZpb1wL/47ta95Biiz/xCUM/I9hojwL/lpb3vt/wsa1h3GxMghDRqiV8hjxE0T2qcL5A7/Dxn1qnv+1Zi+yq9sfdNn9uNuTfyhioqMbLsMHNwzc2B5TN2H3wE12TdbUVGtrd2KAl29//PiXi/HbFYl49scP1gvgUnGgXsD24I+fxcIVa/DaL4fjfl8jWjpXuqxLWwYxNyskAN6i3uEvHMLhw/WXaQgXV3TeHg0n/W3tUN7a8RZyn/u3JmFl4jgMFPslIpWTk5P4u9ZW2sIrBD99ZSFerV3m/1IJdnKO/Q8+kk8m9A6F2bcSOWcOI0f9huLGia9wxeYOv/uCxVowvt/XhMor/8DBBpmOIjOnBcNEWqDg0pF65fdE6D1+qMz5Bw41rBTOX6mER8C9yhOpkQOC4FpwHn/NqD+UJAsffZWvfW4bebzlce+yLqXiqTGxDZfJb+GYtrkW22PqDuweuLVZj36IeuZX9QK4D/BBvYDt18/8CP26wrvjK2zij9+K9NXRGDXq1mXs4qNaxjYYuhivT41CwLUj2LRkJsbLfcbE4YP6DTURtY/tutL9eEouF4uVVtDyye/wv45+o24P8oYHXNE/ZjHeeKP+Mgr9DYCHwVtkEnnE58rSAvU79VhtLR8qcjuV1fWDrz4wiYDBtf+oRnVajOj+ruIa2FPUCPCUL4Yvs6LxM/fXbfYZw3xXYXtMXZTdAzf52LiTUzt2WxvA/fYtrPht+wM2WRdZJ7v5WF51m/BAhNZfclMERj4ZgnaNJBnUW3w/Cx/MTMK+j7OgXiOPgLmn8oGIhJqaGvF3ra20RWUBzsnuR7ns/gCZIvYK+rc4/EDbjMoKVKIc5/e/iddeu3VZvvsfMpMIrEQgZbh1/jBXh1wOq+Xd+Cq1yTq9tmI3/i6zyabO4IHGTYaHc/u6b+Xxlsf9rsL2mLoouzcx8olSFxc7jIXw7IEedrglLesi62Q/e7DruAV+wxdg45wYmOVz4YERmLjqRSQmvIoXhqq52uRyCUpgRuTcEWoAqOx3GiK72RzCRO3Rmoef7iwLBz+7hBteIXh8zL1q0lkL8ivdcc8DjeccCsEPfhgENVQ7hyv5lXDt80CjSW1D8EDv+uPJrqOoFPDtGa6tS+4I9GptG6mW59E7BAO1lFoDvx+OIO3i9nyeCC8C+uGRBtOauCPqnmZeLdAK9j3uduZmRPiQQbcsIfWn9mgttsfURdk9cCsvt7V8EGuFDRXax9apQEULvyjrIutkT+nLErD+4zz0eTIBW/cfwuHdSzDlQRvSt6zA8noDXVst9U28fTQPQdELsFeOmxP7He91FGlteX6fqJuyKd1+9rv7c+PE+/j7NRFcDfoJHvOQKZ/ik3P5MD0Uhxn/EY6eMq1HCB6LH4O4MU8j+kGZB/jk5FewegTj8f8ahYEycNLyDPSqf6GYCUuuCLgeGIH/+kk4+g8IR/TzM/GjNkyt/8mn51DQIxRx00ZjSKAMDk0Y+ONf4qfjYjHhJ2qQefHTf8JS2RNDJj6NSJnHQ3we+zwi2z2Vf4123LsocwxWrlh5y/JSnLa9LdgeUxdl9zcnqO8p9WrhfD+eiHouEc9E9GzxwwayyyD35P/G0nf+ijIt5Xa8vb1htZY66H2l/ggZ0g/etnyc/yJbXJ3ZSWAIwvsZUX79AjKz6z3lRETw9fVDYGDPNg3JUN6c4JOFlNquxVqDJiLxP0Xw81Uqkt6Tb08wIXL8L/F4aE941BYj/87/8ifsOq6NhRP6Rf0SP38iGCYtT2XuP3AqbyAi++bUldFPBG0TH0U/LyULblzJQLo1DI/dzPN9TJr/M5hz/qR1w47CDPmagxNvYmOa+p1apoinMeWJUDWYVFSi4Muj2Lf7xM0HGTxCYzFlbDiCavOUfoNPvnTFY+Ftf3OCfMjr2rXr4jzRvoccdIntMXUxnf7KK0fr9q+8IrrLtOeVV61nQtCAnvCssOJK9vVmXoel5blxHRcvW/GDifMR169e4FarR0/0tF3HdTu8U8vUNxiBHpUoFm1b0/tzR09zH4jL1tvUu+W67iuviO4+DugqLVeuztzc7DnpbdvIOsi6MGgj6j5k8FBZ2bZBFq1nheXCJVy8bfCj5RFB220V2Sdok6yXRXkXmgvapHJcz75TvVtOHm8GbURdg0MuWeXdOw+Pm/fyO42sg73uJBJR15GXl4+qKjs+LU7NksdZHm8i6hocErgVFubD3d0Drq4tH7lmb7JsWQdZFyLqXoqKClFd3TWfcjx/eBe27/kfnNfW9U4eZ3m8iahrcEjgVl1dg9zcXHh5aaNxO4EsW9ZB1oWIup9r175Txl51tenFblz7xm5dlJ1JHld5fOVxJqKuw2Gje9WnOJ3g6dnxwZtappODniQloq7AarUqizrrLNlfdb1jTERdhcMCN+nqVQu8vXt06IMKsixZpiybiLo3i+UKKlo6qSO1ijyu8vgSUdfi0MBNPs0p//B79PDpkPFusgxZliyTT5IS3R2++eYbBm92Jo+nPK5E1PU4NHCTioqKkJt7HT4+vg698yb3LcuQZckyiejuUFlZiZycbGVmfzn9z932Sk17kcdNHj95HOXxlMeViLoehwduUkFBgTLAVb5VwRFj3uQ+5b5lGbIsIrq7yCDj0qVLKC62KsEHtZ48bvL4yePIoI2o67L7mxNuR75VoXfvIPGpBqWlpcqkju0hu0bVJ1edlDFt7B4lIpPJhMDAXnB2doGLS4dcm+qanKdNTvkhL3z5IAJR19ehgVsteXcsICBABFo3cOPGDVRUtG5GbtktKifXlfO0ySk/+PQoETUmx7v6+/spF3hOTqKxk/8RF3mS7BZUVu8SDX/eGrEuF/WNCHJyXc7TRqQfnRK4Sc7OTvDx8YOvr49oUJxF8FauDIitrKwSV4BVym17SW5zcXERja+LCNjcxOKubJP1lZPrcp42Irod+W5TLy8jjEYv8dldaUvqB3F3BzVYk+2rHMNWUlKK0tISvsaKSIc6LXCrT3ahyobV09NTfDaIQM315guk5QSQVVWVKC+3oaysTGls2CVKREREd6MuEbgRERER0Z1x5C4RERGRTjBwIyIiItIJBm5EREREOsHAjYiIiEgnGLgRERER6QQDNyIiIiKdYOBGREREpBMM3IiIiIh0goEbERERkU4wcCMiIiLSCQZuRERERDrBwI2IiIhIJxi4EREREekEAzciIiIinWDgRkRERKQTDNyIiIiIdIKBGxEREZFOMHAjIiIi0gkGbkREREQ6wcCNiIiISCecevUKqhGLtkpEREREXdXNwK2goFBLIiIiIqKuiF2lRERERDrBwI2IiIhIJxi4EREREekEAzciIiIinWDgRkRERKQTDNyIiIiIdIKBGxEREZFOMHAjIiIi0gkGbkREREQ6wcCNiIiISCcYuBERERHpBAM3IiIiIp1g4EZERESkEwzciIiIiHSCgRsRERGRTjBwIyIiItIJBm5EREREOsHAjYiIiEgnGLgRERER6QQDNyIiIiKdYOBGREREpBNOvXoF1YgFBQWFWlLHc3d3h5eXEZ6enuKzAS4urnB2VmPK6upqVFVVorzchrKyMpSWlojP5co2IiIiortJpwVuzs5O8PHxg6+vD5ycnFFRUS6WClRWVolArQo1NdVKPrnNxcUFrq4ucHNzE4u7sk3Wt7AwXwR2NUo+IiIiou6uUwI3Pz9/BAQEoLz8Bm7cuCECNpu2pWXc3Azw8PCAu7sHcnNzkZ+fp20hIiIi6r46NHCTXaK9eweJTzUoLS1FZWWFuqGNXF3d4OXlJT454epVC7tQiYiIqFvrsIcTevTogfvuC1burhUVFbY7aJPkPuS+5D7lvmUZRERERN1VhwRuvr6+CAzspXRplpWVaqn2I/cp9y3LkGURERERdUcOD9zkXbCAgJ4oLCxo9Vi21pD7lmXIsnjnjYiIiLojhwZuckxbUFAfu3WN3klt16ksU5ZNRERE1J04NHCTDyIUFxc59E5bY7IsWab6EAQRERFR9+GwwE1O+SGfHnXEmLY7Ucus0epARERE1D04JHCTk+vKedrklB+dRZYt6yDrQkRERNQdOCRwk29EkJPrdsS4tubIsmUdZF3sbcz8ZGxcOg3h2nqThiRgZ9ohHFw1QUsgIiJHMA6OxUsrtmDvgVQcPJCCncmLMXGwSdvaeuFzd+Dw4VSsZPNNXZBDJuDt378/rFZrC8e2PYQnnnkYAdranV3H2T98hC+0tduRb1gwmUy4ePGilmIf098+hHE9T2L5uEU4oqXdIngCVq4ch4C/bcDzK45qiUREZE/G6CXYNjcCfoXZyDh1BjkwY/CQQTD7WJG5PQG/2pWtZnwuCQfHAvvGJGCbmtIs86SVWP0zP2S8PRXLP9QSiboIuwdu8mnOvn3vRV7edS3lTuKwcOPj6Ket3VkOPpyxHCna2p34+/fE5cvf2PWtCi0K3IiIyMEGIfG9lRhWloqXp25AppYKhGH2lhUY43emrp1+IRmH40TgNmomNil5iPTJ7l2lXl5GyBfGt0l5JSrkor5fXlWtpbVxl7Iusk6OYIiahY175a35VOx/LwmzR9R/GCIea0X62ue0VUUYxsxNws596nf2bl3Z6DtERNRy4TD3FO38lbP1gjYpE+/8Zj7mLduODLE2JUm0ubEh4lMIxsju1B0LMExmk3fhDiRh+uB4rHwvRXzegcThdelTZB5EIXFHKnYuHIFhM2vb7xTsTJqFkYFKhjqBIzA7aQf2yzL27cDamVEYuXBHXXlEdmD3wM3T01MES60Z21Yq8sv/FyHj3TmY8+s52PlFmbJFKvtip5I2590MkUOoqBTfaDlZF1knuzMMwHMvjwBOH0LaoSM4XyUahIXJWBpdO67CAIOnWAzaqgjapr+9ArOfMMN6Sv3OJdfQRt8hIqKWO4LMy4DxB2MwpdGYtpLsTGScykK++Hz2mGhzM/PEpzycPSQ+f3waSgeqaKANnmaMXhSH4GsnRbt8El8V16aLReYR/zUZDfAfPA1zo0RIeFR8/zMLvB+OReJbs2BW8gjGCVi7dQHGDADOfyLz5MA0agFeGOwPg9Gk7Yuo/eweuLm7G1BZWaWttcQH2JD8B6S8+zvsPKUlNeXUe0h6NwV/SN4gvtFysi6yTnYn/qgv7ZyMGcs2YH1yEuZNno+0b/0ROT6+7g+5HmP8VPEHbUPGlobfOXDJhMjJLyJSy0dERC2VjfWr9yCzMgwTV6Xg4N4tWLlwAmIGNuzJSE8Rbe4FNXC7IM4h699JUwM3hQG5R+djfMJbol3egH3NnIcMzhfw9tQELJffXzYTCw9ZAHMEng5Wt0cmjEGYSzYOzJ+MeatFntWL8Pyk3bgigj4ie7J74Obi4oqqqtYEbkDZlx/jwxMW1N1na0oZLCc+wl++vH2uxmRdZJ3srvAcjqRYtRUpE2+ni6bAHIrRWkp9ox8KgUF8J63Rd9b/JQu2QPEdeXueiIha59x2/GrcBLzydhrOFhow8LF4vJS8Bwd3LMG4UC3PbVlwenvDjtam2C5mIK1EWxEyT+egBCb4yx5YDMLj3/OH7cIRrD+nbFaV7MGnmR03AT3dHeweuDk7O6Ompv4gtc4l6yLrZHf5FnyqfaxVknVV/CEHwfyEllBPgLe46rqefevDDFdLUCG7Vd20dSIiaqU8pKckYd7UyRgbE4fnV6ci2ycC099YjJFajubZYKsXkDWnokzesWuOP0weIk+BRVuvk1fGwI3sywERzV3CLwiPaB9v6u8Ho2hALCe09frkTUhP463dqC7a/4mIyA6syD60ATP+mAmbXyge7ZDeDBH8VQNunrc+bObvya5Ssi+7B27V1dVwcuo68aCsi6yT3fn0Q3iD2/AmTAkTYVnhVZxt4urtgyxxJXZPGH6qjYeoFRkxAEZbNs5yriAiotZ5Ygn2H07F2vhbH/AyB8gHAmywfq0lONRxZFy0whA2DBPrT2JgjEPkAwzcyL7sHmFVVVXCxaXr3EaSdZF1sjubP0a+sVKdndtoRszcJIwLNcByfHeTc7tlb05Dpk3kW7IYY8yykfFH5KSVmDvcH/knD2C3mo2IiFrqwz/j86sGhD2djKWTohASKJvjMMTMSca6WDNs54/jj5e0vMU2EcaZMXhOFMIfNsPek0Qd2H4IWQjDlF3JSJw5C7NnLsDGHRMRbGNXKdmX3QO38nIbXF3bFrh5Dn0WLy9IxJPBdQO+XINHY+GCl/Hs0LZN6SHrIutkdzmHsD6zH6asSsHh/VvwUnQQ8k5sxvKkZga5luzBwlf2IMsjCrO3iu8c3oOl8aEoF995/XW+WYGIqPVOYnnCBhyzmBAZvxgbdx/C/q1JeCk2RARtqVg+b3Pd06O7tmDfFzaExC7GymWzmnyIrF3ObcaMuZtx7Jo/hkVHIyZ6EHD0t3jnnwzcyL7s/uYEPz9/mExeKC6Wk+G0TtzC3+OJ5l6hkPMRZixr6fsS6nh7e8NqLUV+/u0GlradvLob2BPI/TIT2S0Y4Cr5DRyEYFNFq75DRES3YTQj7EE/uOMObavIZ/bKRvY1bd3BRr6ZgsSwc3zTDtmNi9Foel0suHHDPq+Ekk9x+vr6o6ysNdPkqi4VmxAc6IKywiIUNVgsyPjgf+OspfVdniZTD+Tl5bZ6ipKWqii8BsuVayhsxZzDN3Kvtvo7RER0GxWFuHalBW2ryFfY+tPTHQXFLsbGZc/i/stHcSJHu8sWGo9fT/ohfL75BL/74LQIKYnarwu8ZN5xHPWSeSIiogaMMUjcNBMjextg06YAkW9fQEkmdicmYFv9+d2I2sEhgZvaXWpEcbHykqpO4+3dQwSQJQ7rJiUiIqpjgjk6Fj8NCVDWbJbPsTflpPLaLSJ7cUjg5uzshPvvDxH7zEdlZefcHHZ1dYOvrx/+9a8sVFfXaKlERERE+uWQCddkoJSbmwsvLy8tpePJsmUdGLQRERFRd+GwmXLV7kkneHp2fPCmlunELlIiIiLqVhz6ioOrVy3KODP5kEBHkWXJMmXZRERERN2JQwO38vJyWCxX0KOHjzLmzNFkGbIsWaYsm4iIiKg7cWjgJhUVFSE39zp8fHwdeudN7luWIcuSZRIRERF1Nw4P3KSCggJcu/adMk2II8a8yX3KfcsyZFlERERE3VGHBG6SvAv29deXlDtj9uo6re0alfuU++adNiIiIurOOixwk+S4s+zsr1FcbFXmWGvrgwvyO/K7ch9yX3KfHNNGRERE3Z1DJuBtCTlJr4+Pnwi+fODk5IyKinKxVKCyskp5r6h856kkt7m4uMDV1UUEbG5icVe2yfoWFuZznjYiIiK6a3Ra4Fafu7s7vLyM8PT0FJ8NIlBzFYGdejOwurpaBHKVKC+3oaysDKWlJby7RkRERHelLhG4EREREdGddegYNyIiIiJqOwZuRERERDrBwI2IiIhIJxi4EREREekEAzciIiIinWDgRkRERKQTDNyIiIiIdIKBGxEREZFOMHAjIiIi0gkGbkREREQ6wcCNiIiISCcYuBERERHpBAM3IiIiIp1g4EZERESkEwzciIiIiHSCgRsRERGRTjBwIyIiItIJBm5EREREOsHAjYiIiEgnGLgRERER6YRTr15BNWLRVomIiIioq7oZuBUUFGpJRERERNQVsauUiIiISCcYuBERERHpBAM3IiIiIp1g4EZERESkEwzciIiIiHSCgRsRERGRTjBwIyIiItIJBm5EREREOsHAjYiIiEgnGLgRERER6QQDNyIiIiKdYOBGREREpBMM3IiIiIh0goEbERERkU4wcCMiIiLSCQZuRERERDrBwI2IiIhIJxi4EREREekEAzciIiIinWDgRkRERKQTDNyIiIiIdMKpV6+gGrGgoKBQS+p47u7u8PIywtPTU3w2wMXFFc7OakxZXV2NqqpKlJfbUFZWhtLSEvG5XNlGREREdDfptMDN2dkJPj5+8PX1gZOTMyoqysVSgcrKKhGoVaGmplrJJ7e5uLjA1dUFbm5uYnFXtsn6Fhbmi8CuRslHRERE1N11SuDm5+ePgIAAlJffwI0bN0TAZtO2tIybmwEeHh5wd/dAbm4u8vPztC1ERERE3VeHBm6yS7R37yDxqQalpaWorKxQN7SRq6sbvLy8xCcnXL1qYRcqERERdWsd9nBCjx49cN99wcrdtaKiwnYHbZLch9yX3KfctyyDiIiIqLvqkMDN19cXgYG9lC7NsrJSLdV+5D7lvmUZsiwiIiKi7sjhgZu8CxYQ0BOFhQWtHsvWGnLfsgxZFu+8ERERUXfk0MBNjmkLCupjt67RO6ntOpVlyrKJiIiIuhOHBm7yQYTi4iKH3mlrTJYly1QfgiAiIiLqPhwWuMkpP+TTo44Y03Ynapk1Wh2IiIiIugeHBG5ycl05T5uc8qOzyLJlHWRdiIiIiLoDhwRu8o0IcnLdjhjX1hxZtqyDrIt9TcDKA4dweEcCwrUUPRgzPxkbl067Y53Dpy5pUT4ioq7CODgWL63Ygr0HUnHwQAp2Ji/GxMEmbWvrhc/dgcOHU7FygpZA1IU4JHCTr7GSb0RomYfwxDPP4JkWL4/jYe2bdyLrIOtiXxbkX7Mi/zsLcrUUPejTPwQhD5pxpzDWr19oi/IREXUFxugl2LZqFmIGAJc+O4S0zy7A1jsKU1btwNpJZi2X8FySCOqSMEVbvZ3cK1eRXyjbei2BqAux+5sT5NOcffvei7y861rKncRh4cbH0U9bu7McfDhjOVK0tTvx9++Jy5e/uevfqjD97UMY1/Mklo9bhCNaWlNGvpmCxLBzd8xHRNT5BiHxvZUYVpaKl6duQKaWCoRh9pYVGON3pq4teyEZh+OAfaNmYpOSh0if7H7HzcvLCPnC+DYpr0SFXNT3y6uqtbQ27lLWRdbJfqKQuCMVOxdGaevxWHsgFWufC8O4N7dgv7xVv28Llo4PE5eCUZidtENL24GVzw1C/ZoYB0/Aa8na9uZu7weOaLCPtTOjMHLhDhzcsQDDtCySMSoeS7fsEfvR8s2NFU3XHTSxb4O2iYio6wuHuado56+crRe0SZl45zfzMW/ZdmSItSlJoo2LDRGfQjBGtne17ad2F2764HisfC9FfN6BxOF16erdudo2fwSGzUzCzn3i+7K9TpqFkYFKhjotbK+J2sPugZunp6cIlloztq1U5Jf/L0LGu3Mw59dzsPOLMmWLVPbFTiVtzrsZIodQUSm+0XKyLrJO9mOAyWiAt0dtiGOAwdOA+2JexfiAC/jo0BGcvRGEyKnzsXXdi4i0nVbTSvwRPmExXovVvhY6DauXxmNYXxvOfnIIaYdOwipv77++GONqozvjBKzdugBjBgDnZZ7PcmAatQAvDPaHwWi6GWQpXQWvT8BgQw6OHBL5Tllx3xOzsOrtac0Hb8YYLE2+dd/PfY+hGxHpxRFkXhbN2Q/GYEqji96S7ExknMpCvvh89pho4zLzxKc8nJVt5MenkS0zGWT7bcboRXEIvnZSaYe/Kq5NF4vMo7X5/oOnYa64Xs88KttLC7wfjkXiW7NwszO2he01UXvZPXBzdzegsrJKW2uJD7Ah+Q9Iefd32HlKS2rKqfeQ9G4K/pC8QXyj5WRdZJ0czc1yCFNmvoX1yUmYNz0VWQhCUEkqXpifpKZNFld+ZSYE/1C9U2d0v4KsL45i06SpeGX1BpHnLcxYcxz5xlBExihZEJkwBmEu2TgwfzLmyTyrF+H5SbtxRTQidSIw5xcRMF5IwcuT52GNOD7rl83EpC1nUDEgGvG1gWIjkQmTEWlsvO+URvsmIurKskXbtQeZlWGYuCoFB/duwcqFExAzsOFUUOkpoo27oAZuF2Qb+U6aGrgpDMg9Oh/jE2T7vQH7mjkPGZwv4O2pCViutbELD1kAcwSeDla3t6y9Jmo/uwduLi6uqKpqTeAGlH35MT48YUHdfbamlMFy4iP85cvb52pM1kXWydEsX+5DifYZJV8hrxCoKPi6Lk00GHIeYoOz+kdccjoVa+a/hX1KBhPMDw/CsPvlVZkB3srt90F4/Hv+sF04gvXn5LqmZA8+zaw3oXHwMIT1tuHs4c0NugpKUj7HeREo9vn+IC2lvub2vb3hvomIurpz2/GrcRPwyttpOFtowMDH4vFS8h4c3LEE40K1PLdlwentDTtam2K7mIG0ugYdmadzRPtugr/sgW1pe01kB3YP3JydnVFTU3+QWueSdZF1cjRblVX71FJhGLdIPr5+CIcPp2Br0kq89vQAuGlbAX+YPGTwJ67qGskrq9cQhATAWwR74S/I/dRfpiHcE/D2aGoS4hbum4hIF/KQnpKEeVMnY2xMHJ5fnYpsnwhMf2MxRmo5mmeDrV5A1pyKMnnHrjlsU6njOD6ioSZFLnoV04f7I/eTzXhj5gSMGhWNUWMP1bt9LxoTEf+6ed4aePl71rv1XiHywYr01eL7ch+NlrGLj2oZ62t+3wYX7QMRkS5ZkX1oA2b8MRM2v1A8Kh82cLgWttdEdmD3wK26uhpOTl0nHpR1kXXqasLvFX/gFw5hxuoUHDuvXck9YUYf9ZNwHBkXrTCEDcPEBo+ixiHygXoNwcdf4YrNhAciIrSEWhEY+WRIM/OxHcdXFhsMDzyCMVqKKgKP9G/7pJVERB3qiSXYfzgVa+NvbbfMAXLoibis/VpLcKgWttdEdmD3CKuqqhIuLl3nto2si6xTV3Ol0Ar0i8BLI9QrNL/ICVj5XESD6UIObD+ELIRhyq5kJM6chdkzF2DjjokIttW/9b4Hu45b4DdcbJsTA7PcQWAEJq56EYkJr+KFoWquxnYfOIl84yA8t24aIuWYOu07kT68rU9EOvHhn/H5VQPCnk7G0klRCBFtmdEchpg5yVgXa4bt/HH88ZKWt1j2TpgxeE4Uwh82N2hr7aFl7TVR+9k9cCsvt8HVtW2Bm+fQZ/HygkQ8GVw30ss1eDQWLngZzw5t25Qesi6yTl3NgTe34Mj1IMQs3KOMSdv75jh4f5Im/vDrObcZM+ZuxrFr/hgWHY2Y6EHA0d/inX82/HnSlyVg/cd56PNkArbuP4TDu5dgyoM2pG9ZgeUntEyNffgmXt9yBraBcVi6W/3OpF5nkHaajQwR6cVJLE/YgGMWEyLjF2OjaMv2b03CS7EhImhLxfJ5m+uGn+zagn1f2BASuxgrl83CaC3ZblrYXhO1l93fnODn5w+TyQvFxXIynNaJW/h7PNHcKxRyPsKMZS19X0Idb29vWK2lyM+/3cDSzuM3cBCCTf+/vXuBjqK82wD+JNlsdpPNPYGlkJhghAaLIfRLeiwWxYihWlALoqBVQAEtxTZWCngBpVUERKBK+YSqoBaOHvLVwvFCUalYSoVzwCuWiwYTLKvkns1ts0m+9z87gQ3XXHaTneT5nTPtzuxk3sl48vLMvJdpQMnBAyhsQwdZce63G8QhbXgSIl1lOPRZodeI1vPRf8ZZhP0tTbZEREYTkYwhg2MRhgvUp2q/5PBCFHbR66z4NhryNZ8/caupqUZoaJi+1j5vvvk+Dn5dhKIzloP4x5tv6nu1j5yLnFOgKjv0MfbvO3slY1d3hi9vXoffjvDqv5E+BTdcZoPrv0fwob7plFIc2aeO1+bQJvSfYWgjIiOrLsQBqcvOUZ+epPbzR2hrf31N1DE+f+ImUlNT4XQ60SATl3Wj0FAzbDYbCgoK9C0GEzEG85+bhav7muHSh5TLbN6oPoCN8/Pwovd8QURE1H1YX1MX8Utw8zSXRqCqSntJVbeJjIxSAbI6YJtJ28aG5NyxuCEtXltzOT7Ea/l7tde4EBFRIGF9Tf7nl+AWHByEgQPT1DHL4Ha3572lvmMyhSImJhZffXUETU3N+lYiIiIi4/LLhGsSlEpKShAeHq5v6XpStpwDQxsRERH1FH6bKdfTPBkEq7Xrw5unzCCDN5ESERERtea34Ca+/dah9TOTQQJdRcqSMqVsIiIiop7Er8Gtvr4eDsdxREVFa33O/E3KkLKkTCmbiIiIqCfxa3ATlZWVKCkpRnR0jF+fvMmxpQwpS8okIiIi6mn8HtxEeXk5Tpz4TpsmxB993uSYcmwpQ8oiIiIi6om6JLgJeQr29ddHtSdjvmo6bWkalWPKsfmkjYiIiHqyLgtuQvqdFRZ+jaoqpzbHWkcHLsjPyM/KMeRYckz2aSMiIqKezi8T8LaFTNIbHR2rwlc0goKC0dBQr5YGuN2NaGxsRHNzk7affBcSEgKTKUQFtlC1hGnfyflWVJRxnjYiIiLqNbotuHkLCwtDeHgErFar+mxWQc2kgp3nYWBTU5MKcm7U17tQW1urvTCeT9eIiIioNwqI4EZEREREF9alfdyIiIiIqOMY3IiIiIgMgsGNiIiIyCAY3IiIiIgMgsGNiIiIyCAY3IiIiIgMgsGNiIiIyCAY3IiIiIgMgsGNiIiIyCAY3IiIiIgMgsGNiIiIyCAY3IiIiIgMgsGNiIiIyCAY3IiIiIgMgsGNiIiIyCAY3IiIiIgMgsGNiIiIyCAY3IiIiIgMgsGNiIiIyCAY3IiIiIgMIqhPH3uzWvRVIiIiIgpUJ4NbeXmFvomIiIiIAhGbSomIiIgMgsGNiIiIyCAY3IiIiIgMgsGNiIiIyCAY3IiIiIgMgsGNiIiIyCAY3IiIiIgMgsGNiIiIyCAY3IiIiIgMgsGNiIiIyCAY3IiIiIgMgsGNiIiIyCAY3IiIiIgMgsGNiIiIyCAY3IiIiIgMgsGNiIiIyCAY3IiIiIgMgsGNiIiIyCAY3IiIiIgMgsGNiIiIyCAY3IiIiIgMIqhPH3uzWlBeXqFv6nphYWEID4+A1WpVn80ICTEhONiTKZuamtDY6EZ9vQu1tbWoqalWn+u174iIiIh6k24LbsHBQYiOjkVMTDSCgoLR0FCvlga43Y0qqDWiublJ20++CwkJgckUgtDQULWEad/J+VZUlKlg16ztR0R0NmazWbsxjIgIV5/DtLokKChIfSNLb9Gs6s1mrX51uepRXV2j3QS7XC79eyIyim4JbrGxcYiPj0d9fR3q6upUYGtf5REaaobFYkFYmAUlJSUoKyvVvyEi8oiKikZcXKwKaqEqqMlN4KmwpjKMtq23aP37ekKcbHO7G1BaWobKyu5rcSGi9unS4CZNon372tWnZnW3V6NVGp0hFXJ4eLj6FIRvv3WwCZWIYLPZkJjYB8HBIQgJYTfeC2lsbEJTUyNOnPgOTqdT30pEgarLarWoqChcdFGK9nRN7u46G9qEHEOOJceUY0sZRNR72e39tEW6VTC0tY1cJ7leLdeOiAJbl9RsMTEx2h2wNGnW1tboW31HjinHljKkLCLqXUwmE1JSUhAZaYP0i6X2k+sm10+uo1xPIgpMfq/h5ClYfHwCKirK292XrT3k2FKGlMUnb0S9h4SMpKRkbeCBhI/e1HfNlzz9AIO16yjXk+GNKDD5NbhJnzZ59O6rptELaWk6lTKlbCLq+QYMGKA19ZHvyPWU60pEgcevwU0GIlRVVfr1SdvppCwp0zMIgoh6spb+bOR7Lf3eiCiw+C24yZQfMnrUH33aLsRTZrN+DkTUE8noUVm6qKtuLxTsdY2JKFD4pcaTyXVlnjaZ8qO7SNlyDnIuRNTzeKb8YJ82f5HrKtdXrjMRBQ6/BDd5I4JMruuTfm1WO0ZcNxW/mfdrTPt5Dn7QxkGjUracg5yLb03C0i3bsH1DHjL1LUYwbu5qrHl8xjnOeSzmr16Nx6dn6OvnMHYe1qyeh3H6KlF3kcl1ZZ428j+5znK9A1MGZj6u6ra5Y/X10wyfgcdV3Tb/HF+3yJz+h/PUj0SBxS/BTV5jJW9E6LTUHPzm0QW4fWwWBl80GFmjx2PWokWYdrlV3+H85BzkXHzLgbITTpR950CJvsUI+qWmIW1wMs4eY/sheVAaLk26QNNy/ySkDUpSexN1L3kjQkfmacv++QzcO+O05Y6bMHJodzYH/gRTHlqAx+4bi1R9i89l3aR+15uQra+2h1xnud6BKQ7Jg1XdlnqOWikuGZequi25v75+DrFJ6eepH4kCi8+Dm4zmlCHlnR6QkDoWc2aPx+AooOG/e/HO9vex60glEJqArHG34wf6bucj5yDn4tsRpjuw+K7xmDhnEwr1LUTUdeTdo/LWlI6I7WOHva8Npya6MMHSfyhyJtyPObdmwqJv7VrlqKqoh7NS/b++xefiE2Hvn9jhYCLXW647EXU/nwc3eZmzvDC+szKvHYGBVqDyk1fx8O9fRP7/vYpXlr+M/eXqy5iL8ePhnv0uRM5Fzsl3RmD+hq14+cER+voUrNqyFaumDcGERevwuvr8xuZ1eHziECBiBGav2KBv24Cl0zLgfSYRwyZh4Wr9+y35eHn1Akwedtqdf+KoVsdYNWsErn5wA97YMA9X6LuIiBFT8Pi6Teo4+n4PjIU6gw7Sf6fpGZi6xFP2qd+XqHvJ33On+rW5HHh/7Vqs0ZY/YcXiJfjb4XrY0i9HTl99ny71KfKfXYJl6z9Asb4l0Mj19m092k2mrVB15ArMHDYFS1/JV583YP6V+ndEBuHz4Ga1WlVY6nzftv0vrcSy5Yvw6Jr3UalvO8UFd63+8QLkXOScfMcMW4QZkZaWu08zzFYzLhrzCCbGf4l3t72Hz+vsyJ4+F8//8X5kuz7ybKuOQ+akBVjY0tcifQaeenwKrujvwuc7t+HtbXvh7DsCUx9dgAkt9WPEJKx6fh7GXQwckn3+XQTb6Hm4Z1gczBE2VbK+W+4f8OKjkzDMXIT3tqn99jlx0TW/wrL/ndHB8Kb/Tterc0kqxYfqmHsO8h2GFBgiIsJVkPDliIR67Pu0CHVIQLJXN09L+ijc9sv78chDD+KRubNx941ZSNK/OylqKK6/azbmt+xzXToumzAbj9x3k/63Nwp3q+/uztFWThrSap90jL/vQeRNSNfWTv7MtSnIucNz7JPfWdKRM/mXmCPlPTQXeXeNRfbpJ2VJwciJLfvcj9kTLz/zvNtJrrdcd8MzS92WjJ8+PB4pJ/Zq9e5hvz3mJPIPPzSVmuF2N+pr7RRzJWYsXI41a/6ENU8vwJzpUzFuWEvosmLEvb9ApgxOKC3Ani88Wy9EzkXOyd9CHdswddaTeGb1Cvxu5lYcgR326q24Z+4Kz7Y712N/rQ0pP/Q8uYoIO44jn+3Ac7dNx0NPPav2eRL3Lt+Fsoh0ZI/RdkF23jgMCSnElrl34neyz1MP467bNuK4Co6nZOG+X2Qh4st8zLnzd1i+Wu33xCzctu5jNFyciykX6JR7PqEndmDO5DwslmPmf6xvJepeMrO/ihKeFV/RakI3Wnp4WDInY/atP8FAUzE+2b8f+76sR2LGTzHlntGnQpAlE7fNvAnZduD452qfgyWwZtyE3NRImNTNoqc51oRQs1pOa9k1mcNb7WOxqkXt5+H5mcQf3oIfJ1bjkCr/0DfqTlXKm30zRqaG4ISUt/8Q6hIycf2UGcg9eVIDkDtlMnLSI+E8KPsUoDZpFG4d2tneW0H6de8JzCjZMRcT86S+fhab9+mbiQzC58EtJMSExsYOBLfU8Xjw0VuQaVdBrUlVoPLQLioJV90i/dlUaJu5ELdfJh3eivDOn1/EZ56fuiA5Fzknf3Mc3Ixq/TOqD6O0Qp1q+dentqFU+0fBHOwJXdUfbcXyuU9is7aDDck/yMAVA+UpmhmRibItAznfj4Pry/fwjHdIrd6EDw549R9MuQJD+rrw+fa1OKBvEtX5H+KQCor9hl5gpOh5OD5a3+qYRIHAZPLxaFJLCq7/UQosbgcK/i0b0nD9VWmwHN+N9X98CX978y28sXktVvz9KNz9hiMnS/spDBo3CoMsxdjz0jNY/7ra5/WNeGbFbpRZfFPfmCo+wfrlLyBfyt99FIN+doUqz4F/tZT35l+xZtV2FLjtGD7Kc1KWUdciu18jDm1ZiTWbPfv8eflrKGzqfOjy+XXvNg58tJ41GxmXz4ObzPvT3Nykr7WRhLa8HCSpuqW24C2s/P0KrHxiHh57aSu2vLoVCb9SoW2YhLZi7N20EvkF+s+1gZyLnJO/uRrb25Q4BBMeXofXZGqR7fl4fsVSLLz5Ypy6MY+DzSLhz6Gvn1Ja6xXc0uIRqcJe5j1yHO9lBjJVBo60dHwS4vb/TkT+J812zc36SkeEp+EGrRlRX+beoYWdon/+He/KYPi+6UiOcaPo4+0o8vyEpm73YRx3hSH2ohS1loKh/W1wH/8Ub7TaaQcOFLn1lc4pP/qeV/kJSP9eLNxFn2Jb65PCoeNuWOIHaCNSsy+2w1R+CP/a793P+AjePVymf+4Yud6+bZ7uTi64Tt1RExmO/xPNhbSENpVYKg/m49mlx3Bl3hzMWfgk8q4dhuxbHsQtl0poc2DXC4vxwu42dm4LcNkPP4KZV8ahZOdaPDZrEkaPzsXoG7d5jVRVlYvKv6HWM4NXnNWrqbRB7Qcn9jylfl6Ocdpy44Id2m4lVZ6wd9ZG4wh5zgdU1ZV61ol6Mlex1vy4T5aCKq0WdOxciT/vOOb53h4JC0xIHbMAjz3mvYxGqvpDsZgj1U5qH/XZXSOjpVpzujrYVeQ07ibv8NUPNnUjZkodfdo5LUBuqkn9YVvVGQFWeTF8rROn39sWuzo/YCwwfYlSCWEh5lYDv07SHhKqOpL92KgH8Xlwa2pqUndmbT1sKm6f4glt8qTtuZXv4ivsxzvvHESlCi1R9iTYY1RF5CzAW6uX4ZWP2h/a5FzknAJN5gAVyL7chnufysc/D+mB6ZpkrznSdmF/gRPmIVdgcquhqOORfYlX/HpfngLYcEmW3n5zUhauvi7t5PD/PUUOIDodV48/c76qIVMyYFfh7/in7MdGga+5uVn9XesrHeEuxxfS/CjLxrdwQGUv+/+Mx2X613A3wI16HHp9ERYuPHNZvPFT2UkFKxWkzGf+PZn8cjvsKa/u8NazntPCJRvxiewmVZ3ZggT57MUS3LnmW7nect0DTyEOO5xAShbuaRnbcZINY0amq0DnwJFd+iaiHsDnVUxjoxshIW3sC5F+Fb4vb1Nxfo5NS7eq0Obx1fZVmPvAIiz74yqsXL4I989Zhi0HO/akTc5FzinQHK9QlU1SFn47yvNELTZ7EpZOy2p117hl/TYcwRBM/ctqzJ/1K8yeNQ9rNkxGisurqRSb8JddDsReqb67bwyS5QCJWZi87H7Mz3sE91zu2avw+XzsKbMhc/o6rJo+BpnDM9QyAhMeWI0nbkzWQuT6rZ59iQJZhwc/ndURvPHvo6gLT0POuAGeTZ87UOYOw/cuSfOsn5SGy35oV3FAfIHjZW6Y+l1y2qS2abikr3d/smJU1gAxCd5z8ochMby9/cU85Vn6pmGQvqXFoKGZsEd5Ph8qLQPik/CjVtOahGHE99r4ypnz8O119x2tnnTZMWbJOswfP0Kv28Zg5pLVmJ1tQ9nufLxwVN+ZqAfweXCrr3e1vRNrVDi0AeaVxV6DDawYfMMcPP30Akz7EXDwiAOdaRyVc5FzCjRbFq3De8Wqsnlwk9Yn7bVFExC58231z4iXL9bi3gfW4p8n4nBFbi7G5GYAO57GC/9p/fvseSIPz7xfin7X5eH517dh+8Y/YOpgF/asW4LFu/Wdqt/GQ7OexJYvzRgyMQ9LlyxVywLMzE2Ga98mPPzb1oMbiAKVS2v2893Tn7rdb+KTEypcZVyLkdoMvB9g5xdlsF06Hvf+LBMJsi0qDSOnjMP4cTcjd7DsA+zcexhOSwpy7h6NQRKc9H0GhXvfKB6Ao0QFrktG4e5rM5F6cSZy75qFH3fg9SM7P/gC5VHpGD/jpxieKOHQhkFX3YEbJozFpGs9IbPgg//A4U7A8Mk3I1v2sajPN96F7E6/7qRZv+4BSNWTDzy0Xt2Y2nH1PQv0ui0PEzJscGx7FjMXvO01SIzI+IL69LE3qwXl5RX6ps6JjY2DzRaOqqq2dCq4Er95+hYMtrpRtPNFvLDDhcyJv8C4dH306IrF7RqIcDaRkZFwOmtQVhaY/bdiB2UgxdaAkoMHUNjG2uXqRfmYP+QLLJ7wMN7Tt3nEIW14EiJdZTj0WeG5K6uIZAwZHKvuw6txdN8RdK7bMlHXiomJRWJigtYNor1y1T/sP44+gvyWpsUWGZMx/+cq/BzeihWv7EedCkXZE+9ATnoCLC3FyN/VP/6Kv+zS+8IpSSPuwK3XpMCm7+Mu+RT7Sgchu3/RqTKSVGib/BMk6dOg1R3fjz3OIRh5cp+huG3uTUgu+qveDDsa9z52ObB7Eda87fmZFrasmzH1mnRPmNS4UX5wBzZv3H1yIIMlfSym3pgJe8s+Ncew86AJIzOBfy1ci2365vaQQV4nThSrfycCvLZITENmUoTnv9X56kAiA/N5cJPXS/XvPwClpW2bA9ye82vkTRgM/Um/hwpt/1i9Eq92sHnUW1xcAr755hjq643XOdc+dgGW3ZmEj1bkYfkufYRn+hSsWjwJaYWbMPG+9ayYqNeRVy8lJ1/UJaPF5amW/eIEWBucOF5YrALd2ej71BWj4BsnLps8F+OTvIJbi6gEJLiKUeyD1zjb+qcg0eJGlarbzn68MCQk94O6bT3Pebed9BMuLPwarlbdNIioO/g8uInU1FQ4nU609X2l1mFjMS0nE8l2Eyq++hjbN+Vj75mDtdotNNQMm82GgoJOPrbrLhFjMP+5Wbi6rxkufQoQeaMBqg9g4/w8vNjGSYiJepqUlJSAnRD2nMHNwKSZ9OhRdhQjCgR+CW6e5tIIVFWd+bKqrhQZGaUCZHXANpO2jQ3JuWNxQ1q8tuZyfIjX8veyeZN6taioaCQm9kFISFc8dWufnhbcGhulmfQ7VFb67t8IIuo4vwS34OAgDByYpvWHcLs7/97SjjCZQrW+MF99dQRNTYE4jJ2IOiM1dSBCT3+XVACwJA5AP2udT5ooA4G877mgoGXMPxF1N7/crkpQKikpQXh4972UWMqWc2BoI+qZ5CmQ9L0KtOnF6k4cQ0EPCG1yXeX6ynUmosDht3YGT/NkEKzWrg9vnjKDDN5ESkTnI/1oZfHMOku+1+R1jYkoUPi1g8i33zq0fmYySKCrSFlSppRNRD2bw3Fca8oj35PrKteXiAKLX4ObTMEhf/jSkVj6nPmblCFlSZlGnP6DiNrv2LFjDG8+JtdTrisRBR6/D8mqrKxESUkxoqNj/PrkTY4tZUhZUiYR9Q5utxtFRYXalBUyUWxAvlLTAOS6yfWT6yjXU64rEQUevwc3UV5ernVwlWlC/NHnTY4px5YypCwi6l0kZMg8Y1VVTi18UPvJdZPrJ9eRoY0ocPllOpBzkbcq9O1rV5+aUVNT0+mpQqRp1DNyNUjr08bmUSKSSbdljrfg4JCAnOct0Mg8bU1NjdqNLwciEAW+Lg1uLeTpWHx8vApadairq0Nb37DQQppFLRaLCoIWbcoPjh4lotNJf9e4uFjtBi8oSFV28j/qJk9Is6C22ku0/n2b1bos8qSyAaWlZZxcl8hAuiW4CZmkNzo6FjEx0apCCVbhrV7rEOt2N6o7wEbtsb2Q70JCQlTlG6ICW6hawrTv5HwrKso4TxsRnZe82zQ8PAIREeHaa7KkLvEOcb2DJ6xJ/Sp92Kqra1BTU813jxIZULcFN2/ShCoVq9VqVZ/NKqiZTr5AWiaAbGx0o77ehdraWq2yYZMoERER9UYBEdyIiIiI6MLYc5eIiIjIIBjciIiIiAxCBbfe1EGXiIiIyLiCT43eZIAjIiIiCmTBMmpThonL9BxEREREFLi0Pm4yCWNwsEnbQERERESBSQtuMvGtycRxCkRERESBTEtrMqGtycQnbkRERESBTAtuLled9qYCebUUEREREQUmFdyCtPd91tbWaK+bIiIiIqJABPw/KYiuVtaUQ3gAAAAASUVORK5CYII=;" vertex="1" parent="1">
          <mxGeometry x="60" y="570" width="244.7" height="310" as="geometry" />
        </mxCell>
        <mxCell id="Z8TzTKAZUmlHIoP4XjIV-25" value="" style="shape=image;verticalLabelPosition=bottom;labelBackgroundColor=default;verticalAlign=top;aspect=fixed;imageAspect=0;image=data:image/png,iVBORw0KGgoAAAANSUhEUgAAAm4AAADeCAYAAACE/YxPAAAAAXNSR0IArs4c6QAAAARnQU1BAACxjwv8YQUAAAAJcEhZcwAAEnQAABJ0Ad5mH3gAADM8SURBVHhe7d0NVFTXoS/wP1+DMCACosRcJiYSfWDuVewDa7G12uSKycJ6H8Ze1F4xWWhS1JbEqBijiRc1agxNlKph+dVEWdfKrdVnxGeCzVWbiC9B+yK2EVOCNzpGBYEZkOHr7X3OGZiBQUGZgaH/31qjcz7mnM1hOPs/e+9zxiM0NKwZHfLQ/r/LKkRERETkEp7a/23IwCYfMrAxtBERERH1Bg6CGwMbERERUW9k01VqDWwPztPTEx4eMhO6IvxZu3OJiIiI+jYR3AZp6er+QpaHhwd8ffuJhy98fHzg7e2jzCMiIiKi7nWPixM65u3tDb0+AH5+/mhqakJDQ4N4NInnDeLRjOZmV7S2EREREf396HJwk92ggYH94e+vh8ViQV2dBY2NjdpSIiIiInKWLgW3fv38EBQUJIJaM+7cqRX/N2lLiIiIiMjZOrgdSHsBAYEIDg5RWtjMZjNDGxEREZGLdSq4BQYGieAWgOpqkxLciIiIiMj17hncZEubXu8Pk0m2snEsGxEREVFPuWtwk2Pa5IUIJlMNu0aJiIiIeliHwU1ePSovRKitlRchsKWNiIiIqKd1GNxkS5u8epRj2oiIiIh6B4fBTX77gbxPm7zlBxERERH1Dg6Cmwf0evXmuhzXRkRERNR7tAluHpBfMyq/xopdpERERES9i01wk18M36x8Ybz87lFekEBERETUu2jBTQ1tsrXN19dX+cJ4IiIiIupdRHBrDW3NzYCPj48IbhzbRkRERNTbiODWGtokeUVpUxNb3IiIiIh6G0/b0CZvuushZjQ1aTOIiIiIqNfwtIY2ycNDHfLWbDuTiIiIiHoFm6tKJQY2IiIiot6qTXAjIiIiot6KwY2IiIjITbQJbvLWIERERETUG3mEhoZpA9s84OXliUGDwnH7dqU664ENwNB/HAK9pRJ/++u3qNHmwv9hDB8WBB/Uo+LyJVyVC1rmtVdfXoqvvhUrtaxTg//+f6WwL6W2L4fLiIioLwt6LBr/oNcmHGipR0KGYuTD/kDbekmy1jE2y/wffhyPhtjXTOZvi1Fark1YdaYOI+oGWnBTb8Lr5eXVzcFtFtblPo2h1eexZd4GnFbmPY7Z617FM0NFbCv9EJkZe/GVnP3DJdjxi1EQf07t1Hyejeff+pN4NgoLNi9B/MB6fPW7X2DVf7b+IQxPzcIbkwYp21wmtnlVm09ERH3f7HV7Rb2iTTjQUo/4T8Mb257FcJ/vcPqtdGz5XFtB1D7PrHgHs0f629Q5QPziHCz4Xvuaqebr49i+ZjcKrdVQp+owogfnaQ1t8n5uzuePiYt/pYa2m3/Crn/XQput8mL8n2PH7R9nv9EWnsfOo8XiU5APhicsQLw2V/4hzvrhIPHkOxQeYGgjIvp7c+Fka51ReKVemVd5wUE9UnMQe09+J54MQtz0WRiizgW+NxeTRWhD/SUc/k37kNW6rT+hVIQ1/8eewvxf/EBbauOudRjRg2sZ4+aKW7cN//mrmPu9AeIv4Dx2Lc3GCUctx1Wl2LV7t93jPz75Vlso/uY+zMLhS+KPMnAUfpb6uDIv/hfPiE9P8lPN72w+PRER0d+Log9b64zC79TgVvGN43rkq5zdOH0T8Bn6Yzz3tGwjexizp8ciDPUoPZ6Dgw7qptZtZSPjzT/ihpjnP3x8awOC1T3qMKIHJYKba1rbdBOW4KWnh8KnvhRHNm1wHNo6pQYH3z+t/NGE/XAWpo1Mxc9kM3YHn5KIiIjsWXtv/DFyylzEPZ2CiUPFp/+bZ7H//U6ErEs1MGtPiVzN7iuvnKbf45j9/CgEiac3PtuLDy6psx2KeAq/3bXb5pGFBd/XllldysF/nL0tPi49jv+1OP6un5KIiIjaqvlwN058XQ8MjMWCZ6NFhKtB0f5sFKmL72IA/nnpD6AMp6v6Dn9T5tnoTB1G9ABccx83H3/4a5fahH0/BXPVHk7H6irw7dVvbR7XcNvBR5vT247ggghqPv268CmJiIhI8S0+2C17b3xEPSI7bY5gy0ltkQNDn96L3Fz5yMbc0QPEC77D6T/sbj+mupN1GNH9svuuUue5jQt7X8eGP30nktbD+OdFaYjRlrTz3f9Fxquv2jw24IP/py2zVfMhTlxUm9iufr6rE5+SiIiIbFzKQWGpfFKDLz8+KP7tWM3NUpR+LR+XUPTRXmz4VbrjoNfZOozoPrnmBrzV3+DE/xZv9s2/wQmjmB74A8x/ycHVOPfJ0sg+UiIiegBN2v8d+K7QGsRex4YdH6Ko7X3ciFzENV2lLS7hvd98iNJ6ICh2FpZMcHDHm0H/E+vWrLF7LJkVrS0kIiLqxViHkZPZBDf1fm5Od2kvdh0vRT0GIGbWAkxsm938B2HoY0PtHiMeGqAtJCIi6sVYh5GTOfkrr4iIiIiou2gtbi5qbSMiIiKi++biMW5EREREdL+04Oaq7yolIiIiovslghsTGxEREZE7aOkqdc2NeImIiIjofongxm5SIiIiInfAixOIiIiI3ASDGxEREZGbUIIbx7cRERER9X6e9uPbONiNiIiIqLdiVykRERGRm2BwIyIiInITnhzfRkREROQe2rS4McURERER9VY2wY0XJhARERH1ZhzjRkREROQmGNyIiIiI3ASDGxEREZGbYHAjIiIichMMbkRERERuwia48VYgRERERL0ZW9yIiIiI3IRHaGhYS1Obl5cXBg0K16aIiIiIqDfRgpu8+W5zS3C7fbtSXUpEREREvQa7SomIiIjcBIMbERERkZtgcCMiIiJyEwxuRERERG6CwY2IiIjITTC4EREREbkJBjciIiIiN8HgRkREROQmGNyIiIiI3ASDGxEREZGbYHAjIiIichMMbkRERERugsGNiIiIyE0wuBERERG5CQY3IiIiIjfB4EZERETkJhjciIiIiNwEgxsRERGRm2BwIyIiInITDG5EREREboLBjYiIiMhNeISGhjWL/8TTZnh5eWHQoHDcvl2pLu0Bvr6+8PfXw8/PTzzXiTJ5w9NTzZdNTU1obGxAXZ0FtbW1qKkxi+d1yjIiIiKivq5XBDdPTw8EBQVjwIAgeHh4or6+Tjzq0dDQKIJaI5qbm5T15DJZRm9vL/j4+IiHr7JMlreyskIEO/GjEBEREfVRPR7cgoNDEBoairq6O7hz544IbBZtSef4+OjQr18/+Pr2w61bt1BRUa4tISIiIupbeiy4yS7RwYPDxbNm1NTUoKGhXl1wn7y9feDv7y+eeeD6dSO7UImIiKjP6ZGLE/r3749HHhmqtK5VVVU+cGiT5DbktuQ25bblPoiIiIj6EpcHtwEDBiAsbJDSpVlbW6PN7T5ym3Lbch9yX0RERER9hUuDm2wFCw0diMrK210ey9YVcttyH3JfbHkjIiKivsJlwU2OaQsPf6jbukbvxdp1Kvcp901ERETk7lwW3OSFCNXVVU5taWtL7kvuU70IgoiIiMi9uSS4yVt+yKtHnTGm7V7UfTZrZSAiIiJyX04PbvLmuvI+bfKWHz1F7luWQZaFiIiIyF05PbjJb0SQN9ftnnFtj+LJf5uLqaP9tOnOkfuWZZBlISKivmgU5q/JxtZs+8c7qxeIOiNAW6ez1G2tSR2lTd+/mRsP43j+Hrw8RpvhMonIED9/RqI22YEeK9+YdLyffwxHNiZrMxyLSc3E1jXzEKNNkwuCm/waK/mNCN0i6sf48bhYTEldhXnjuhbeZBlkWYiIqC8KgWFEJCIftg1pOjz0vUQs3JiLrS9Ea/M6Q93WyIiuDbGZm3UYR7JStCmV8aYR5qrruObyL/V5CIbhkTA8rE12oMfKV27EtSqTsn8rR8cvOCIKkSMMYLNLK6cGN3k1p/rdo910QcLFXdj58RXUe/ZHzOyuhTdZBlkWXmFKRNSHGU/jxbQ07ZGKGc+k41ApEJmQgqnaKs6i89MpD1sF61MxbcYS7BNl6I16rHyluVgyIwnPrz+hzXB8/Kg9pwY3f3+9CEz3/9VTT6SsxLu/frf1kf0bvPKTCPjIhTK8Jf8KSUOUVTtFlkWWqfvEI2PPYby/PF6b1jyXhSOHsjBXm5SCJy7AOx/kifniE8WBPXgnLR72JYnG1MVZeP+AWC7W2Z+TibnxNp8ctW3OH52CDcp29mgLiIioY8XY/HkZoI9AzARtlhCdmN56Tt6fgzXPtT0nt6EfhZkrslvO0Qc/yMaq5FHaa1Lwjpg3dah4OjRRWW6tF8Yv34Mje5ZhvDKl0senYE1OrrpvUR9sXZGMGNudW+uQqCSssq4nyti6P5V+dHLr8kO52LEiSdQkbUVj+ooc7FfWycP7WQsw3mYj9uVTf453ngvBpEXZHb6mrfAXssV6on6yXSd5Aw6K126w7QnVz1O2v/UFeacH677kgo6Pn5Uu3qYOlcdixt1aUNXtyXoyw+Z3rh5XMd+2VS9sIhautx6ftr9XTZt1ZP08f6JNa+yEZXhfLhPHMUG8r3bsV5/b/s67k1ODm5+fnwhL9z+2rcZUjwbtuaK+AfV1dnO6RJZFlqn76BCg1yGwX5tPCDr1U4N1rn5yJrYvT8QjlWeRf+wY8r8w4ZFpK7Et3frGi8b8beux8EkDTF+I5ccKUKoTJ4nXxclkshbelG0aMEX8YQ69IbdzVp1PRER3pfeSZ2MLLNXqdLQIGhsXJbSckwv+psPo5JXYtTqhg/AmztGbxIfpCeGwFBcorzlTGY7xz63EqiR5jr6Ak2LeBdndWH5R3ebnV5RX6voFQKcXD2VKrQ92vZ6M0borKNDqg4fGpyBz07zW0GU93782E4ZrhUqdcMGi7c86Zi1qHt5ak4I463b+6wp04+Zh7cYku58hdPxSzH68Amdkmc6VI/CJRGSsS25Zx758at310IQsvPwjoEhu97My+A5LxKpdmUhwfHBgzC9BuV8koqdpM4TpY6Kg9wvAyDFJ2hxhWhQi/cpRki+7R7V6Utlxx8dPoYvArPSJ0BWfEMtOo6RBHIvUpcgYpy1vR9u22H+A0tKjsdbN4qHQJ2BN9jJMHWNAsJcJ5VUW6AdHiuOcibdSDeo6Q+dh6w7rOuqs4KGxmL48u7V+9glAoNyuPgqzXkiAIVg+b/2ddzcnd5Xq0NDQqE113dcH1uGlXy3CIpvHr09dgxIF6404vfPXyLuqrNopsiyyTK42Nj4KweIE8W7am9icvQWb16Zh7d58FJaoy/WzUjF1mAmFWXPw4lqxPDsLS+YsRf7VEMTNSIH29hF0uHViKWakq9shIqJ7CEvE8gniLHrjMj7+QkzrkzE/MRLmT7MwSzsnb1o6B698aETwuCQ8J1t92tL74FrJRRRsm4PnV2Ypr1knXnvqhggm358sVjiLA2Le5SrxtKpEWb7rWJnyUnuxWDwnFsFX8/HKnCXYJNaT9cGsrLOoF+Fofor9+Lzq069p+xN1wvzdKKoV+/uRFoQmjEKkrgSHrNt5awle2HkYZ75oHTMm6WvPYrm2zqaVqVj7STl0UeMxW1vuSHDQdeyak4Z1SvnSMWNpPozBsXj2+dbayE5pAYqv6xA51tq8NhExj+pQcUPs69EYTNLmzhwbCd11cRzbdcve4/iJAFaWY60f38QvU/NQLIJszOQ2vV1dNW48RsrBc6J+3vRMMn4+OwnTtp1FRYU4hoPjIdsFp744WYRNwHwxF798JhHPTE3EL/NKxMcAUT/PeQlxyoY0QeHwLd6NJdMm46npK1Cgze5uTg1uXl7eaGy8/+DWTtRcPCe7SpXQthEfnKvVFnSOLIssk6tVmE3iFxqFZ8UnvMgwdV7hbvHHeLhYeT5ltHgzXy3E9mNivRbF+N058eYJH2bT3GrEud3qa4iIyAGtq836OL5vAeL0RhTseRuFcnlCjAg8RpzZmQ+z8gJV8e/PiTNsOCIdZQHzeRwSwWhdnnqO1huiETMhEnqdiFeBocq8Thk6XqkDSj7NEWf4VuZjv8MZEXyiY2dqc6RyFB+xWcuch8tXbfZXaRHhwYDxq5Mx3qAGPnOeCJS5p+1+rvLiQ3b7Krx576sQzBcKcMB2IxdzUCjCliE6QZvR1nl8/BcR0obGYLqcHDMWhiAjinLPwxgUgbHKFatJGD1UhLm/fIwiOdkVtZdRZFs/mr+BSVT/Os8HbIipl8dQEPXzT5cnI2GMqIvzVmDGjFS8mJkr3g8JGDtMHttyXCgogu+YUYgRD9/CU7ggj0+Y+NnsWiHLcPL1XBTZHjsncGpw8/T0RHNzkzbVRQNi8eSPR8CuY/PiH/HHT/+EQ9ldD22SLIssk6sVrV+PfV9aEJmYjq37juG4MhahdUxDaKB48w1JwI7jYpnNY8fTIu/rdAhUVxPEm8zJbwgiIremdbUp3W2lsloux6kNc7DOWvGH6aETAS0hx/58ezwnQczViWCkrtZW9IyVytglue7BHVnYkDEdw7s68iYyVJzPTSgvsf2QLp1HuZyldcWpTDDd7YKB3New+YQRgXEpWLUjD8ePqGPRJmmNA1amWkctf3d37Uq+9szKhEvfiQIONLS0nrVV+NllmP2GIeZJEfAmRCFctnAe/hglN8IRLVs8n4wRx0ts57P7GOZjsYjfohN88jZ2npZbDkDkxBS8vD4b+5XfbyamR8kVDAhRbkYRgri0Ddiw3vpI0ervEITbdde6po52fYrpjEcT8crKuUj62Vz8/J+0eYq/4aPffoCjf+16aOtZxdiVnoynnkoWKf49HDpnQuiEFGRaxxnIRsnSw5j21GSxTttHGrbLdYiI6N60rjalCzTjAIototJNntc65ETpBCrDIdmd5eCc++I2ZS1741bi9dR4hN4owPbMNMyQ6yYk4ajNMKxOUVp4dPBpd2eqAOjsQltnmJC/NhXTRDmeT8/CrtNl8B2eiIysZfbdd/chIKT9/eseCQ0AKow4o02389EZfGUOgCEuFlNGhMNcchKFOIuTIqSGj0hAXFwE9ObLOPORtn4PUMc62hLH8HVRN89Mw6bdh1HwRRkqRLzQG2Ix/1V5HKtlZhSMOLV+CZYsbft4Dds/VTbkUk4Nbk1NTZC34OgSGdoWTsFj4pNM1Z8P4f0/a/O7gSyLLFP3OQtjhfglPzTSbjBo3EDbe/+IN/ITCZg6WZ42ylHySR42r0zFtkITdENGYqyYW/itERgyDDNsNyIY4hNamsCJiKiLzLnY/pERumGTsUC5iED4/IraJfpsm3Pr0HgkxBvszuUtRg1GMEpwNC0LBz4pgTjtCxNhGKg86bxPLqC0VofhcW3uiqufjsghIh6UdRiL2gkeHo/pibHimQllX+Zj39p0zP2wDBgc8cA3qw0fMcn+6lR9CqIjxOG8dsGuG9beYRResojXpmB0hAVfnVdv81Fw/jIsEaMwV4Q5y6UzOKTMdbZbqFbad3SiPK0XAT43Wo5aa2WYnIKFyzfgneQI5O/dgnVLUzEj+6z6MyrH8TRKlCGD4v3yj/Uo+uK8+vjrQ5g0bQrGj4tCeA/0gjk1uDU2NsDLqwsfI/x+gLQX1NCmTI74V6xvuR3IJmS+loG0xEfVhfdBlkWWqfuYcOabcvEHPxnvLk/C+DHiD2l5DpaPsz8h/GReGhYuWoqFcWqgC45LxqQRYp1KozgVAEXv5KNYvKmmb8/ETGUdEfYmp2PV8nRkLE50fCIhIqJ7Ks46gCJzAGL+ZYHaEvXFFhy9KKrxZ7OxZlascmNXvSEBL7+2DC+Lc+5PHZ1wvzWLytyAuMUT1RvBhsVi5sZ5iGvTclYtm2dESFk4YRSiHX7ozsOBz4zQj0nBO6k2+35X3sajBKf2nVdX64THZyzA/EUvYc00NWzK7SyKE8HEbMY1dZX7Zhk4HhkrEmEQG24pn86Ik7mt91xz5MC5EliGRCJS/Czn8rSZeUViSswbYkFJy0zH7n38OusYzind5DoYpmXh4Ad7sP9IFn4SpjSftSjTReMnE8W+Ehdgx+p0LExbhnfmaLcCKbuIoyjDzv1nlaAe/vR67M9ahoWLM7FjTzoSxk3E1DEPiQ8BrufU4FZXZ4G3dxeCW9RIGPprzwUfX2+bhx9Ch0Rg2CMdXNXSCbIsskzdqTBrDwquiuQ+cR5WrV+J+U9U4IMTtmMKTNi1dTcKbxowdU2uMj5i/5oUjDSfxfa3toi3hSA+FS5/NRcluljMVdbJw47FCQgtPYx1Gbl3+YRDRER3dxhb8kWgGByP+Wmy9cWEfRkrsO8rHeJSMrUxTaIiDirDobWvYZ+jE+7h1dh2ohzhk5cp6x/fl4kZ/ieQf1lbrtm3NQ/FtZGYumIDNi6UV5u2V7g2HZs/MSFyRtt9L8X2LtwEtzBrCw7JnyEtBwe17UzSi+1sXP3ArVplH+agJFqEmYNa+cLKcerddGwSgfeu9haiRFaxVy7iD+oc4TCKZZeypQRn9qpzOtKZ49c54ncs6t2iG+qUfnA49DdPYNvxNjFL/F7fOliCisYAGMYlYOq0iYgO08Fcdhqbl6n1s/nYCryecxbGWh2CnxBhbXIsDCKwm0vzsWmRVoe7mEdoaFiz+E88bVZapAYNCsft25Xq0gcUHByCgAB/VFdrN8/phMcSX8GCpx+FH6rw5W/fQPan3TeeLTAwECZTDSoqnDDMUW+Awb8MZdobxRF5JdLwgT6ou3kZxWVtB6eqrOtUXzmPkrtsi4iIHpA4b0ePCIav6QqKvupEvRAWiZgI/V3P4ZLeYICurEzrUu1AV/fdEa1MeNDtKOZh6/EkIE+O9RNh5olhCBU/xVdflrm0AaFTx6+zwkTdXCPq5nv8AMHDR2FoQD1u/bW4w3U7s44rODW4ya+Xevjhf0B5+U1tTue0hLf6K/jozXVdulfb3YSEDMS33/436uru/9sciIiI+ibb4KbNol7HyV2ldcotOHx8unavla8Pb8SW/7yAK1evKIP/u4MsgywLQxsRERG5K6e2uElqd6ke1dXylsg9JzCwP0wms3O6SYmIiNxeCCLHRAAcqtOrObXFTaqsrICvbz94e9t+YZhryX3LMsiyEBERkSPlKPmCoa23c3pwa2pqxq1bt+Dv76/NcT25b1kGWRYiIiIid+X04Cap3ZMe8PNzfXhT9+nBLlIiIiJyey4JbtL160ZlnFlXL1R4EHJfcp9y30RERETuzmXBTV7NaTReQ//+QS4Z7yb3Ifcl98krSYmIiKgvcFlwk6qqqnDr1k0EBQ1wasub3Lbch9yX3CcRERFRX+DS4Cbdvn0bN258p9wmxBlj3uQ25bblPuS+iIiIiPoKlwc3SbaCffNNqdIy1l1dp9auUblNuW22tBEREVFf0yPBTZLjzsrKvkF1tQkDBgTf94UL8jXytXIbcltymxzTRkRERH2R0785oTM8PT0QFBQswlcQPDw8UV9fJx71aGhoRGNjo/JVVZJcJsvo7e0lApuPePgqy2R55c11eZ82IiIi6st6RXCzJb+Y3t9fDz8/P/FcJ8rkLYKd2jDY1NQkglwD6uosqK2tRU2Nma1rRERE9Hej1wU3IiIiInKsx8a4EREREVHXMLgRERERuQkGNyIiIiI3weBGRERE5CYY3IiIiIjcBIMbERERkZtgcCMiIiJyEwxuRERERG6CwY2IiIjITTC4EREREbkJBjciIiIiN8HgRkREROQmGNyIiIiI3ASDGxEREZGbYHAjIiIichMMbkRERERugsGNiIiIyE0wuBERERG5CQY3IiIiIjfB4EZERETkJjxCQ8OaxX/iaTO8vLwwaFC4uoSIiIiIehWHwe327Up1KRERERH1GuwqJSIiInITDG5EREREboLBjYiIiMhNMLgRERERuQkGNyIiIiI3weBGRERE5CYY3IiIiIjcBIMbERERkZtgcCMiIiJyEwxuRERERG6CwY2IiIjITTC4EREREbkJBjciIiIiN8HgRkREROQmGNyIiIiI3ASDGxEREZGbYHAjIiIichMMbkRERERugsGNiIiIyE0wuBERERG5CQY3IiIiIjfhERoa1iz+E0+b4eXlhUGDwnH7dqW6tAf4+vrC318PPz8/8VwnyuQNT081XzY1NaGxsQF1dRbU1taipsYsntcpy4iIiIj6ul4R3Dw9PRAUFIwBA4Lg4eGJ+vo68ahHQ0OjCGqNaG5uUtaTy2QZvb294OPjIx6+yjJZ3srKChHsxI9CRERE1Ef1eHALDg5BaGgo6uru4M6dOyKwWbQlnePjo0O/fv3g69sPt27dQkVFubaEiIiIqG/pseAmu0QHDw4Xz5pRU1ODhoZ6dcF98vb2gb+/v3jmgevXjexCJSIioj6nRy5O6N+/Px55ZKjSulZVVfnAoU2S25DbktuU25b7ICIiIupLXB7cBgwYgLCwQUqXZm1tjTa3+8htym3Lfch9EREREfUVLg1ushUsNHQgKitvd3ksW1fIbct9yH2x5Y2IiIj6CpcFNzmmLTz8oW7rGr0Xa9ep3KfcNxEREZG7c1lwkxciVFdXObWlrS25L7lP9SIIIiIiIvfmkuAmb/khrx51xpi2e1H32ayVgYiIiMh9OT24yZvryvu0yVt+9BS5b1kGWRYiIiIid+X04Ca/EUHeXLd7xrU9iif/bS6mjvbTpjtH7luWQZaFiIj6olGYvyYbW7PtH++sXiDqjABtnc5St7UmdZQ2ff9mbjyM4/l78PIYbYbLJCJD/PwZidpkB3qsfGPS8X7+MRzZmKzNcCwmNRNb18xDjDZNLghu8mus5DcidIuoH+PH42IxJXUV5o3rWniTZZBlcW/xyNhzGO8vj9emiYhIFQLDiEhEPmwb0nR46HuJWLgxF1tfiNbmdYa6rZERXRtiMzfrMI5kpWhTKuNNI8xV13HN5V/q8xAMwyNheFib7ECPla/ciGtVJmX/Vo6OX3BEFCJHGND7m11S8M4hUf5DWZirzXEWpwY3eTWn+t2j3XRBwsVd2PnxFdR79kfM7K6FN1kGWRb3vsJUhwC9DoH9dNo0ERHZMZ7Gi2lp2iMVM55Jx6FSIDIhBVO1VZxF56dTHrYK1qdi2owl2CfK0Bv1WPlKc7FkRhKeX39Cm+H4+LkPtezKQ5vjLE79yit5QUBAgD+qq6u1OV3zRMpKzBs9UJsSfLzhYxs166/gozfXIe+qNn0PgYGBMJnUG/R2D9kCtgzRf30bb//tJ1iQNArh4jdmvn4W+99ejQMXtdUU0Zi6OBXPfj8SIXKdGxdx8oM3sfmEbVlCMGnRa5j7I3Wd+qoSfLz1NWw+bQImLMP7L8cjXL6pGy2wiCxccjARv9ypvZSI6O/aRKw5sAxxN/Pw1AvvafM0L2TjeFIITmUm441P1FnRiemY/7PxiOwvzql3jDiXvxtrd56GWVmqbmtk8ZuYtlILFvpRmJk+D1NGG7TzcxmKjryHt3LPi9fI1pYkROpkpa2en8s/exM/X3sa45fvQcaIi1g3502cUrcEfXwKlqdMxujBAYClHGXn8vFeVi6K1J0Dz2XhyDTgwNJTMLw0HXFyPVHGwt9v0fan0o9OxuK0qepymGAsPIBNmXkoVpbOw9bjSUBeOj4emI4ZceHQi7KVXz6B7Su24JS2EfvyqT8HDs7BHwL+HS88aXD4mrbCxfHd8bQFh5LTsd26TvIGHEwehq9yk7AkV5unn4d3chOh+zAVL25L0PYl67GOj9+k1XnIiL6ITVlGTHlxYsvvq/BAFt7Yr/6k7WnbQwkOJB9AwIYFSIhwfAyl4IkLkDE7HiPDtON48TT2vrUFBTfU5ZL9OuKYXDmPozlvY985UT8rv6/IltBpqRU/QMVpu995d3Jqi5ufnx/q6+9/bFuNqR4N2nNFfQPq6+zmdIksiyxT91FbwEJGpCAjOQK3PjuG/P86j+rgeMx/Kxvzo7TVRGibv209Foo/AtMXYp1jBSj1jsLU5dlYM1m+CaQAJKzORsbT1nWO4UylAVNfz8bLcjvfnEPBsbMoqxVviitnleUnv1RfSUREHdN7yQpVBAKtDSFaBI2NixLwSKV6Li34mw6jk1di1+oEEVQcEefwTZmYOyEcluIC7fwcjvHPrcSqJHkOv4CTYt4F+Tm8/KK6zc+vKK/U9QuATi8eypQoy+RM7Ho9GaN1V8Q5XZzrvzDhofEpyNw0T+xFIwOMnwFTXpsJw7VCsb0CXLBo+7OOWYuah7fWpCDOup3/ugLduHlYuzHJ7mcIHb8Usx+vwBlZpnPlCHwiERnrklvWsS+f2mL00IQsvPwjoEhu97My+A5LxKpdmUhwfHBgzC9BuV8kokXYtJo+Jgp6vwCMHCPCmdW0KET6laMkX3aPqvsSP6rQ8fFT6CIwK30idMUnxLLTKGkQxyJ1KTLGacvb0bbtF4K4TcswdZj4HYn3gC7YII5hJt6y6TY3pGbjg+WJiDGEqMdAFwLDGHGMdrfW4fJ3tl1bB3fKUd4UgPDh8Zi7Zj3mD1XXcSUnd5Xq0NDQqE113dcH1uGlXy3CIpvHr09dgxIF6404vfPXnW5tk2RZZJm6m24IcGbpHCwRCX3zWyvw/Jz3UFQfiSkp6l+YPiVVvHEsKMqZgxfXinWys7BkzlIcKg1A3JyXEKesFYsfRofAXLhFW2cL1qW9iX0irF2Si0vzsSv7JIwiyNdfO6ksP1CovJCIiDoSlojlEwzAjcv4+AsxrU/G/MRImD/NwixxjpXn0k3i/P3Kh0YEj0vCc44qYr0PrpVcRMG2OXh+ZVbL+fnUDRFMvj9ZrHAWB8S8y1XiaVWJsnzXsTLlpfZisXhOLIKv5uOVOUuwSay3eW0aZmWdRb0IR/NTrB/kJR2qT7+m7U/UGfN3o6hW7O9HWhCaMAqRuhIcsm7nrSV4YedhnPmidcyYpK89i+XaOptWpmLtJ+XQRY3HbG25I8FB17FrThrWKeVLx4yl+TAGx+LZ58VxdKS0AMXXdYgca73QYCJiHtWh4obY16MxmKTNnTk2Errr4ji265a9x/ETAbCspf58E79MzUOxCLIxk+813jscBq9jWJKUiGeeScKmT2UyFOVMTMVMZXkiFjwjyiRCfdnhJZg2VayXkI4Dl0VFq4vE1BdTlIA7Nj5KGWNnLszCMzPm4OfTkrC9sBwV4lCHjwsHdqbjmamHUaJsU/xO5Hac1NomOTW4eXl5o7Hx/oNbO1Fz8dxPIuCjhLaN+OBcrbagc2RZZJm6XelZbLPtFjXnoeCCCfphY5U37JSR4o1RKT5F5JnU5YpibP5jCSxhUZgyQU6Xw3RH/JH903QsfDpSG4h5FrtEGDxk1+VKREQdGpqII8ogcfVxfN8CxOmNKNjzNpTPugkxIvAYcWZnvl13WfHvz8EoKvpIR1nAfB6HRDBap53D9YZoxEyIhF4n6vfAUGVepwwdj8gwUbV/mqN1Z6rMx36HMyL4RMeqcUJVjuIjNmuJeuXyVZv9VVpE3DBg/OpkjDeogc+cJwJlrrW7V1VefMhuX4U37z1UyHyhAAdsN3IxB4UibBmiE7QZbZ3Hx38RIW1oDKbLyTFjYQgyoij3PIxBERirXLGahNFDRZj7y8cokpNdUXsZRcds6k/zNzCJ6l/nea+GGAsu5G/RuqBNyF8pjoXIZNAZMFLm7cljMVwms9qLOPqutfu0GNt/rz7XDRuFn4r/LU3yReL3PjIRGbMSEDNchwOvJmPG82l4I9c+KLuCU4Obp6cnmpubtKkuGhCLJ388AnYdmxf/iD9++iccyu56aJNkWWSZupv52gW7PxTp5FXxxxEUjMfF89BA8ea6WYYCdVGr62bUyyZdHzlxHuvW5Io3lUj56dnYf/wYjuzPwarkUR003RMRUTtaV5vS3VYqK9xynNowB+usFX+YXpx1w5GQcwzHxXm25ZGTIOaK83Ggulpb0TNWYsd+EQTFugd3ZGFDxnQM7+rIm8hQBIoAUV5i+yFeOo9yOctLnVKZYLrbBQO5r2HzCSMC41Kwakcejh/Jw/tZCzBJBENbplpHLX93d+1KvvbMyoRL34kCDjS0tJ61VfjZZZj9hiHmSRHwJkQhXLZwHv4YJTfCES1bPJ+MEcdLbOezs9orusBiEb/F+1GO63bD4IxK4JNDk0IeFf89GqzWr223f6wM1+T/Op34fQGnNu7BKTneTR+JSSnp2JCdi+P5edixOqm1e9uFnBrc7tujiXhl5Vwk/Wwufv5P2jzF3/DRbz/A0b92PbQ5k8+A9l+pNXZwiPhEVIFv5IRsdPTTi89Gbdj9kQoXd+OXMybjqZkixW87jHOVIUp//NpZts3nRETUIa2rTekCzTggPgyHIC55Xuv5V+kEKsOhaeJc+1T7x4vblLXsjVuJ11PjEXqjANsz0zBDrpuQhKM2w7A6pV62kung0+7OVAHQta0P7smE/LWpmCbK8Xx6FnadLoPv8ERkZC3Tht/cv4CQ9veveyRU1EMVRpzRptv56Ay+MgfAEBeLKSPCYS45iUKcxUkRUsNHJCAuLgJ682Wc+Uhb3yVEQLO7HYr1rhLaeMdq+ftQ2bXdTQiHXTuqOR9vzJyMGWniOB88gaLScli8xM86bh4ylsdqK7mOU4NbU1MT5C04ukSGtoVT8Jj4JFP150N4/8/a/G4gyyLL1N10hhhMt2sWi8UPI8Wb/GYZToqpoyVGYEg0ftpm7ERc7DDoLWW4IN/IegOin05EglznRglO5W3Bq6k5KKzU4ZERrn9jEBG5PXMutn9khG7YZCxQLiIQPr+idok+2+YD8dB4JMTLqygdGDUYwSjBUVFxH/ikBBXKzIkw2Nz0oFM+uYDSWh2Gx7W5K65+OiKHAMayDmNRO8HD4zE9UdYNJpR9mY99a9Mx98MyYHDEA9+sNnzEJPuWJH0KoiMc9y61OozCSxbx2hSMjrDgq/Pq1bgF5y/DEjEKc0WYs1w6g0PKXFcJwMiJrRec6JMmYaQSmo0oOS3+O31ZPBOCovDDlgsFRd38Q3VMG65fEeHTgITnFiBjfRZmG8Rxzn4TS1KTsblQbTUNF/W/PR10Tu4mc2pwa2xsUG4x0ml+P0DaC2poUyZH/CvW//pdvKs8NiHztQykJcr2zfsjyyLL1N0sPlGYvW4e4mQTdVgsZm58CePDTCg6vk95k5e9ly8+9YlffuZKTFXGIohPgLM2YPGEEFScPYR9ciOYhPlpC7Bw2QJ1O8o66pvs1s3Lyhqy2VcZB/c/foLpY0YpYyWIiKhjxVkHUGQOQMy/iHOrnPHFFhy9CEQ/m401s2KVClpvSMDLry3Dy8vT8VNHle63ZnEuNyBu8US1QlfO8+Kc36blrFrex0KElIUTRiFaG3dmLw8HPjNCPyYF76Ta7Ptd2eUmPrDvO6+u1gmPz1iA+YtewpppatiU21kUFy7SlVnt5nsAloHjkbEiEQax4Zby6Yw4mdt6zzVHDpwrgWVIpHIbjnN52sy8IjEl5g2xoKRlpmP3Pn5dp49Lx94d8ls0crA3VR16ZLlYgJ2yG7p0N36nXLAQgLj0PdixPhNrsnOxStTNslWu+OgWFKEMuhETMWlMNKYuyMGaxaKeXp6F57Rv4ygrtnYrVyu3MYEMejk52Lr0Hl9Z8QCcGtzq6izw9u5CcIsaCUN/7bng4+tt8/BD6JAIDHukg6taOkGWRZapu9V/vhtHvRKxZt8xHN+Xibn/qENx7mq8Yb0YQXzqW/5qLkr6xWOhHItwPBdrUqJQ9+l7eP117Q/BvBvb95xF+RBtO9o61WKdTe9axyicx7vvn4CxXyzmr9+AVbPv/1gQEf19OIwt+SJQDI4XH45lO5IJ+zJWYN9XOsSlZCrjiQ/uSEdCUBkOrX0N+xw1KR1ejW0nyhE+eZmyvjzPz/A/gXzrZ2rNvq15KK6NxNQVG7BxoRz93l7h2nRs/sSEyBlt970U27twE9zCrC04JH+GtBwc1LYzSS+2s3H1A7dqlX2Yg5LoBdhxUCtfWDlOvZuOTfe6UG5vIUpkFXvlIv6gzhEOo1h2KVtKcGavOqcjnTl+XWNC4cETqA4TwXG4CLgijpgv52NdRq7WcigvWPh3bP/UqHZ9jolF3PAQ6BrLUbx3KX65V63DD61+WxxrEfD0IrxPTsTUidEI9jKh7JMtWNxSP+di+++KYW4EdGEGRH4vBuO1Jd2t192A97HEV7Dg6Ufhhyp8+ds3kP1p941n6/4b8NrfpDF4+CgMDTCj9AtrU3p76jr1uPXXYpQ5bHMWb54nhiFUd7d1xHYMBljKyu7SbE1ERHclh6iMCIav6QqKZMV8LyIAxEToUXfzMorLtA/mDujF+Vknzs8d1QOKru67I1qZ8KDbUVhv2ivH+ml1kfgpvvrStXVNp47fXak/R6QMbuuT8OpHIYgcEyEC5XmU2NxU1566TuBdj6O2juVux0Qet3BUf9lxDnhQTg1u8uulHn74H1BeflOb0zkt4a2L34xwLyEhA/Htt/+Nuro6bc6DcnB3bSIiIrdkG9y0WW6pbXDTZvcRTu4qrVNuweHj07Wb3n59eCO2/OcFXLl6BcZuiqyyDLIs3RfaiIiIiFzLqS1uktpdqkd1tbwlcs8JDOwPk8ncjd2kktqUHFB192ZzIiKi3q8zXYruQOvSxN2HHLkrpwc3T08PPPZYpNhmBRoa7v97Sx+Et7cPBgwIxtdfl6CpSfy4RERERG7IqV2lkgxKt27dgr+/vzbH9eS+ZRkY2oiIiMidOT24SWr3pAf8/Fwf3tR9enRzFykRERGR67kkuEnXrxuVcWZdvVDhQch9yX3KfRMRERG5O5cFN3k1p9F4Df37ByljzpxN7kPuS+6TV5ISERFRX+Cy4CZVVVXh1q2bCAoa4NSWN7ltuQ+5L7lPIiIior7ApcFNun37Nm7c+E65TYgzxrzJbcpty33IfRERERH1FS4PbpJsBfvmm1KlZay7uk6tXaNym3LbbGkjIiKivqZHgpskx52VlX2D6mqTco+1+71wQb5GvlZuQ25LbpNj2oiIiKgvcvoNeDtD3qQ3KChYhK8geHh4or6+Tjzq0dDQiMbGRuWrqiS5TJbR29tLBDYf8fBVlsnyVlZW8D5tRERE1Kf1iuBmS34xvb+/Hn5+fuK5TpTJWwQ7tWGwqalJBLkG1NVZUFtbi5oaM1vXiIiI6O+GFtxUvSG4EREREZFjPTbGjYiIiIi6hsGNiIiIyE3YBDc5zk0+iIiIiKg3smtxa716kwGOiIiIqLexC27yqs3m5mbl9hxERERE1Lu0G+PW0FAvgpu3NkVEREREvUW74CZvfOvt3W42EREREfWwdglN3tDW25stbkRERES9jU1wU+/Da7HcUb6pQN6Ml4iIiIh6jzYtbh7K933W1tYoXzdFRERERL2Hp6M7f9TUmKDTye8J5Vg3IiIiot7CYTJraGhQvsC9Xz8/bQ4RERER9bQOm9RMpip4eXmwy5SIiIiol/BsVq9J0MgJD8h58ma8lZWV8PPz44UKRERERL2A0uLW0Tdc3blTi+rqKgQE+HO8GxEREVEPu2caM5mqYTbXiPCmZ8sbERERUQ9yENzUvlPZXWptiZOtbiaTCYGBARzzRkRERNQjgP8PPJ0p6wRD5ZYAAAAASUVORK5CYII=;" vertex="1" parent="1">
          <mxGeometry x="161" y="270" width="224.15" height="80" as="geometry" />
        </mxCell>
      </root>
    </mxGraphModel>
  </diagram>
</mxfile>
